<ttFont>
          <CharString index="0">
            hvcurveto
            -42 -30 callgsubr
            -74 -69 340 -249 hhcurveto
            -249 -67 -104 callgsubr
            return
          </CharString>
          <CharString index="1">
            -105 callsubr
            35 callgsubr
            -134 hvcurveto
            -36 callsubr
            return
          </CharString>
          <CharString index="2">
            -76 callgsubr
            129 150 144 -61 128 -91 callsubr
            55 71 113 186 -103 203 -183 hvcurveto
            -858 hlineto
            -67 callgsubr
            return
          </CharString>
          <CharString index="3">
            2277 rmoveto
            -164 -83 -177 -113 -65 hvcurveto
            -67 -116 -156 -158 -159 vvcurveto
            -51 38 -56 58 94 86 78 64 85 vhcurveto
            131 98 281 135 224 vvcurveto
            return
          </CharString>
          <CharString index="4">
            -88 161 156 129 81 162 33 callsubr
            862 hmoveto
            153 -7 -121 57 callgsubr
            -155 -129 -81 -163 -163 55 callsubr
            155 129 81 163 33 callsubr
            return
          </CharString>
          <CharString index="5">
            -31 callgsubr
            211 204 28 183 -77 callgsubr
            -212 -227 -26 -178 -93 return
          </CharString>
          <CharString index="6">
            -72 callgsubr
            -150 -157 65 -106 -73 callsubr
            217 234 268 40 callgsubr
            103 -155 -55 -13 callsubr
            224 vlineto
            -3 43 21 -1 46 hhcurveto
            12 hlineto
            100 -278 rlineto
            -190 71 91 -161 266 -85 callsubr
            -1 434 rlineto
            102 1 22 68 105 hhcurveto
            172 10 -167 -172 hvcurveto
            -63 callsubr
          </CharString>
          <CharString index="7">
            210 -283 31 callgsubr
            -83 callgsubr
            vhcurveto
            -36 callsubr
            return
          </CharString>
          <CharString index="8">
            -12 callsubr
            237 -1 callsubr
            96 -86 callsubr
            -1 -46 -38 -88 -261 -25 callsubr
            return
          </CharString>
          <CharString index="9">
            -90 callsubr
            43 118 137 -64 callgsubr
            173 180 62 125 51 hvcurveto
            return
          </CharString>
          <CharString index="10">
            -9 callgsubr
            3 6 2 7 9 vvcurveto
            35 -12 36 -37 vhcurveto
            16 callsubr
            110 223 -4 hvcurveto
            -51 callsubr
          </CharString>
          <CharString index="11">
            rmoveto
            111 46 107 75 56 -40 callgsubr
            55 -74 46 -109 112 1 rlinecurve
            65 46 return
          </CharString>
          <CharString index="12">
            2330 rmoveto
            11 -184 200 -92 callsubr
            -97 29 callgsubr
            return
          </CharString>
          <CharString index="13">
            -163 vvcurveto
            -50 43 -52 54 94 86 78 64 85 vhcurveto
            132 99 279 133 224 vvcurveto
            return
          </CharString>
          <CharString index="14">
            rmoveto
            101 -5 -64 67 -104 hhcurveto
            -129 -59 -106 callsubr
            -149 -157 63 -105 -63 callgsubr
          </CharString>
          <CharString index="15">
            -118 116 -82 rrcurveto
            -70 98 131 -134 120 55 callgsubr
            111 -81 91 -51 80 hvcurveto
            140 -90 -96 305 -215 hhcurveto
            -141 return
          </CharString>
          <CharString index="16">
            -146 -101 -24 -113 -71 -68 callgsubr
            64 -98 120 hhcurveto
            110 return
          </CharString>
          <CharString index="17">
            rmoveto
            19 15 -2 -3 17 hvcurveto
            2 -66 11 -87 -86 vvcurveto
            -107 -20 -93 -89 -112 -22 68 116 141 return
          </CharString>
          <CharString index="18">
            1 callgsubr
            -70 hvcurveto
            123 -98 callgsubr
            return
          </CharString>
          <CharString index="19">
            hhcurveto
            -411 -274 33 callgsubr
            263 -291 407 -97 callsubr
          </CharString>
          <CharString index="20">
            -170 -9 341 264 -12 vhcurveto
            -2 48 -3 51 48 vvcurveto
            190 30 174 130 vhcurveto
            endchar
          </CharString>
          <CharString index="21">
            205 229 63 hvcurveto
            -122 -57 callgsubr
            return
          </CharString>
          <CharString index="22">
            hhcurveto
            246 300 -12 239 59 -41 -1 -46 10 hvcurveto
            -76 16 -53 40 -41 63 -196 299 rcurveline
            177 66 124 117 236 11 -1 11 12 vvcurveto
            -1037 -370 rmoveto
            return
          </CharString>
          <CharString index="23">
            -1 -663 rlineto
            -169 -94 -89 -167 -167 -95 75 160 -8 vhcurveto
            679 vlineto
            1 return
          </CharString>
          <CharString index="24">
            rmoveto
            -293 -219 -117 -146 -155 hvcurveto
            -154 -145 -129 -206 -295 vvcurveto
            -291 128 -211 154 -145 vhcurveto
            -146 155 220 -116 293 hhcurveto
            293 218 115 147 155 hvcurveto
            153 144 128 209 292 vvcurveto
            538 -418 373 -529 vhcurveto
            -1 -1618 rmoveto
            -406 -296 293 404 -7 hvcurveto
            422 294 298 416 406 294 -293 -403 7 vhcurveto
            -421 -296 -300 -413 vhcurveto
            return
          </CharString>
          <CharString index="25">
            -35 callgsubr
            -441 -345 -82 callgsubr
            153 1 -346 -189 -153 -23 -151 -102 return
          </CharString>
          <CharString index="26">
            rmoveto
            160 582 153 -582 rlineto
            62 952 rmoveto
            -71 callsubr
            -34 callgsubr
            return
          </CharString>
          <CharString index="27">
            -1 -6 0 -5 -5 vvcurveto
            -211 4 126 -158 209 hhcurveto
            179 126 123 186 152 -112 75 -155 hvcurveto
            94 23 66 51 42 vhcurveto
            32 27 43 19 58 vvcurveto
            32 -32 23 -31 -277 -184 -237 -275 vhcurveto
            return
          </CharString>
          <CharString index="28">
            322 -346 502 hhcurveto
            602 331 318 527 426 -296 374 -552 return
          </CharString>
          <CharString index="29">
            3 callgsubr
            -372 541 hlineto
            108 -10 rlineto
            -12 78 -16 -173 return
          </CharString>
          <CharString index="30">
            rmoveto
            204 -9 -125 151 -204 hhcurveto
            -183 -124 -129 -187 -149 117 -72 152 hvcurveto
            -96 -24 -66 -49 -40 vhcurveto
            -33 -27 -42 -23 -54 vvcurveto
            -32 32 -22 31 278 183 233 279 vhcurveto
            return
          </CharString>
          <CharString index="31">
            -208 253 -21 218 346 155 28 191 67 -24 -17 -47 11 vhcurveto
            -68 15 return
          </CharString>
          <CharString index="32">
            -69 callgsubr
            -242 177 -322 -88 callsubr
          </CharString>
          <CharString index="33">
            -89 callgsubr
            36 0 34 34 131 7 116 101 vvcurveto
            357 -101 168 -580 -42 callgsubr
          </CharString>
          <CharString index="34">
            vvcurveto
            -66 callgsubr
            return
          </CharString>
          <CharString index="35">
            -85 callgsubr
            137 -9 -224 -152 vhcurveto
            -54 callsubr
          </CharString>
          <CharString index="36">
            -6 callsubr
            103 48 5 -82 hvcurveto
            -1 -24 -5 -18 -7 -23 -247 -768 8 callsubr
            return
          </CharString>
          <CharString index="37">
            -19 callsubr
            36 callgsubr
            hintmask 01100000
            -97 callgsubr
            return
          </CharString>
          <CharString index="38">
            88 176 hvcurveto
            862 hmoveto
            153 -8 -120 57 callgsubr
            return
          </CharString>
          <CharString index="39">
            2572 rmoveto
            -162 -87 -177 -113 -63 hvcurveto
            -68 return
          </CharString>
          <CharString index="40">
            -68 callsubr
            -120 -156 -155 -94 callsubr
            return
          </CharString>
          <CharString index="41">
            126 vhcurveto
            689 vlineto
            218 -91 15 -221 -40 callsubr
            vhcurveto
            endchar
          </CharString>
          <CharString index="42">
            rmoveto
            -375 20 257 96 callgsubr
            422 283 272 437 400 -264 241 -400 -423 -282 -264 -433 -18 -1 -18 2 -18 hvcurveto
            return
          </CharString>
          <CharString index="43">
            268 -58 callsubr
            return
          </CharString>
          <CharString index="44">
            -9 0 -9 -9 vvcurveto
            2 -30 rlineto
            -131 -1 -47 -89 -127 -15 -26 -1 -25 hhcurveto
            -35 -31 1 11 -3 hvcurveto
            endchar
          </CharString>
          <CharString index="45">
            -93 -53 -57 -96 -138 -37 56 callsubr
            vhcurveto
            -62 callgsubr
          </CharString>
          <CharString index="46">
            -82 callsubr
            -148 -16 -13 callgsubr
          </CharString>
          <CharString index="47">
            rmoveto
            268 -12 -259 136 -279 hhcurveto
            -562 -337 -281 -559 -490 386 -315 440 379 284 123 286 57 -15 67 -53 14 callsubr
            -301 -66 284 312 193 37 219 166 hvcurveto
            206 -91 -356 244 hhcurveto
            return
          </CharString>
          <CharString index="48">
            -151 -163 -73 -155 -99 154 51 -4 callsubr
            return
          </CharString>
          <CharString index="49">
            40 callgsubr
            101 -155 -53 -13 callsubr
            return
          </CharString>
          <CharString index="50">
            -65 callsubr
            713 -390 rmoveto
            -155 -21 405 172 160 16 197 100 162 14 -408 -157 -163 -18 -206 -97 hvcurveto
            return
          </CharString>
          <CharString index="51">
            1929 rmoveto
            -100 -57 -63 -64 -34 hvcurveto
            -275 -512 -297 -522 -273 -510 rrcurveto
            -16 -29 -16 -36 -43 vvcurveto
            -115 107 -88 131 138 41 99 92 50 vhcurveto
            265 485 280 507 265 487 rrcurveto
            17 31 16 33 49 vvcurveto
            125 -112 76 70 callsubr
            return
          </CharString>
          <CharString index="52">
            914 1296 rmoveto
            -238 -118 144 112 72 48 59 96 29 34 -8 -17 38 hvcurveto
            -16 -37 -9 -35 -36 vvcurveto
            -104 76 -80 132 126 89 73 125 214 -206 106 -226 -276 -307 -158 -308 -38 4 -42 11 -43 vhcurveto
            -55 hlineto
            return
          </CharString>
          <CharString index="53">
            -137 hlineto
            -351 -288 -28 callsubr
          </CharString>
          <CharString index="54">
            89 callgsubr
            582 153 -582 rlineto
            62 952 rmoveto
            return
          </CharString>
          <CharString index="55">
            -61 callgsubr
            94 -138 -52 -10 -66 callsubr
          </CharString>
          <CharString index="56">
            -18 callgsubr
            134 46 18 140 hvcurveto
            endchar
          </CharString>
          <CharString index="57">
            230 -210 -21 1165 187 return
          </CharString>
          <CharString index="58">
            723 vlineto
            91 -4 -145 42 -148 hhcurveto
            return
          </CharString>
          <CharString index="59">
            -86 callgsubr
            170 10 21 callsubr
            return
          </CharString>
          <CharString index="60">
            -99 callgsubr
            hintmask 11000000
            -15 callsubr
            hintmask 10100000
            return
          </CharString>
          <CharString index="61">
            25 rmoveto
            -12 callgsubr
            172 -79 199 132 111 33 61 72 hvcurveto
            -54 185 rlineto
            -38 -48 -83 -22 -83 hhcurveto
            -82 -66 25 78 -5 hvcurveto
            144 167 236 119 33 vhcurveto
            return
          </CharString>
          <CharString index="62">
            hhcurveto
            290 205 136 208 81 hvcurveto
            4 7 1 8 9 vvcurveto
            35 -1 -14 33 -35 85 callgsubr
            return
          </CharString>
          <CharString index="63">
            2006 rmoveto
            155 -7 -123 57 callsubr
            -155 return
          </CharString>
          <CharString index="64">
            -21 callsubr
            -282 -21 -204 -101 153 38 callgsubr
            endchar
          </CharString>
          <CharString index="65">
            211 rmoveto
            3 -155 43 -154 20 -126 rrcurveto
            -120 24 11 -96 145 hhcurveto
            156 30 86 130 34 hvcurveto
            39 132 67 177 167 vvcurveto
            165 -100 63 -178 49 callsubr
            return
          </CharString>
          <CharString index="66">
            -94 139 50 -38 callsubr
            return
          </CharString>
          <CharString index="67">
            -24 callgsubr
            -95 138 49 6 -122 return
          </CharString>
          <CharString index="68">
            223 119 46 163 109 vhcurveto
            return
          </CharString>
          <CharString index="69">
            6 -123 hvcurveto
            -542 vlineto
            -2 return
          </CharString>
          <CharString index="70">
            -192 -254 -44 callgsubr
            -129 -124 50 -94 vvcurveto
            -189 229 -19 197 52 callgsubr
            -111 -51 -8 104 vhcurveto
            endchar
          </CharString>
          <CharString index="71">
            -763 vlineto
            -1 return
          </CharString>
          <CharString index="72">
            -123 rlineto
            -3 -1 1 3 return
          </CharString>
          <CharString index="73">
            -20 21 -20 hstemhm
            return
          </CharString>
          <CharString index="74">
            18 callsubr
            104 48 4 -82 hvcurveto
            1 -24 -8 -18 -7 -23 -246 -768 rcurveline
            -19 -67 -11 -44 -64 -15 rrcurveto
            return
          </CharString>
          <CharString index="75">
            124 32 122 120 138 return
          </CharString>
          <CharString index="76">
            90 -4 -144 47 -152 hhcurveto
            return
          </CharString>
          <CharString index="77">
            52 -4 callsubr
            return
          </CharString>
          <CharString index="78">
            hmoveto
            -12 callgsubr
            170 -79 200 132 112 33 61 72 hvcurveto
            -56 185 rlineto
            -38 -45 -85 -22 -82 hhcurveto
            -82 -67 25 78 -4 hvcurveto
            return
          </CharString>
          <CharString index="79">
            -101 -340 hvcurveto
            -10 0 -11 -10 vvcurveto
            endchar
          </CharString>
          <CharString index="80">
            rmoveto
            1 549 rlineto
            94 80 71 94 139 47 -89 -132 8 vhcurveto
            -1 -467 rlineto
            -2 return
          </CharString>
          <CharString index="81">
            13 12 105 124 -55 87 vvcurveto
            222 return
          </CharString>
          <CharString index="82">
            -178 117 -244 hhcurveto
            return
          </CharString>
          <CharString index="83">
            hlineto
            16 -87 3 14 callgsubr
            hintmask 10110000
            -76 callsubr
            return
          </CharString>
          <CharString index="84">
            rmoveto
            188 -12 -111 119 -196 hhcurveto
            -170 -155 -94 -170 -150 115 -72 153 hvcurveto
            -1 -95 -23 -68 -50 -39 rrcurveto
            -30 -24 -43 -24 -50 vvcurveto
            -35 return
          </CharString>
          <CharString index="85">
            69 69 3 75 -11 callgsubr
            126 89 73 125 75 callgsubr
            -254 -375 34 callsubr
            vhcurveto
            return
          </CharString>
          <CharString index="86">
            -14 callsubr
            -210 return
          </CharString>
          <CharString index="87">
            26 callsubr
            -93 139 49 -38 callsubr
            return
          </CharString>
          <CharString index="88">
            rmoveto
            3 -36 -1 -34 -34 -139 -13 -128 -114 vvcurveto
            return
          </CharString>
          <CharString index="89">
            389 313 150 391 return
          </CharString>
          <CharString index="90">
            127 -86 157 return
          </CharString>
          <CharString index="91">
            105 vvcurveto
            210 -283 31 callgsubr
            return
          </CharString>
          <CharString index="92">
            131 -105 100 88 callsubr
            return
          </CharString>
          <CharString index="93">
            -84 callsubr
            151 160 -67 -16 callsubr
            return
          </CharString>
          <CharString index="94">
            -7 135 vhcurveto
            return
          </CharString>
          <CharString index="95">
            -35 callsubr
            hvcurveto
            92 2 74 29 93 return
          </CharString>
          <CharString index="96">
            -146 -239 -19 callgsubr
            return
          </CharString>
          <CharString index="97">
            34 callgsubr
            44 callgsubr
            return
          </CharString>
          <CharString index="98">
            454 -295 295 -295 454 return
          </CharString>
          <CharString index="99">
            36 34 117 8 99 98 vvcurveto
            276 -61 245 -412 -207 return
          </CharString>
          <CharString index="100">
            vhcurveto
            142 -61 143 -52 162 -61 rrcurveto
            -11 28 23 -8 33 hhcurveto
            return
          </CharString>
          <CharString index="101">
            -231 -343 -18 -220 -82 return
          </CharString>
          <CharString index="102">
            -128 -124 83 -98 vvcurveto
            return
          </CharString>
          <CharString index="103">
            6 -134 return
          </CharString>
          <CharString index="104">
            28 callgsubr
            73 63 callsubr
            -165 -162 -78 -170 -169 160 -79 168 178 145 78 184 hvcurveto
            return
          </CharString>
          <CharString index="105">
            -33 -22 -6 -10 -28 vhcurveto
            -207 -77 -210 -67 -169 -98 rrcurveto
            return
          </CharString>
          <CharString index="106">
            167 -110 237 hhcurveto
            277 return
          </CharString>
          <CharString index="107">
            -21 22 -21 return
          </CharString>
          <CharString index="108">
            2005 rmoveto
            -260 -97 -225 -210 return
          </CharString>
          <CharString index="109">
            -254 -20 -185 return
          </CharString>
          <CharString index="110">
            vvcurveto
            150 -145 72 -155 19 callsubr
            return
          </CharString>
          <CharString index="111">
            hvcurveto
            10 15 callgsubr
          </CharString>
          <CharString index="112">
            -149 -159 63 1 -105 vhcurveto
            -66 callgsubr
            219 20 callsubr
            101 -155 -53 return
          </CharString>
          <CharString index="113">
            vhcurveto
            -2 39 -1 -8 callsubr
            -178 -64 -143 return
          </CharString>
          <CharString index="114">
            -166 -235 -224 -198 return
          </CharString>
          <CharString index="115">
            rcurveline
            -19 -66 -10 -45 -65 -15 rrcurveto
            return
          </CharString>
          <CharString index="116">
            264 1116 265 return
          </CharString>
          <CharString index="117">
            28 callsubr
            -143 return
          </CharString>
          <CharString index="118">
            -73 callsubr
            217 234 -64 callsubr
            endchar
          </CharString>
          <CharString index="119">
            28 -81 hhcurveto
            -342 406 hlineto
            64 -4 -70 36 -84 hhcurveto
            -105 -54 -56 -100 hvcurveto
            -350 -337 vlineto
            return
          </CharString>
          <CharString index="120">
            24 180 92 20 callgsubr
            724 return
          </CharString>
          <CharString index="121">
            -29 -21 -19 -20 -16 hvcurveto
            -59 -49 -110 -43 -106 hhcurveto
            return
          </CharString>
          <CharString index="122">
            95 callgsubr
            219 27 callgsubr
            -47 69 callsubr
            return
          </CharString>
          <CharString index="123">
            -85 -91 -80 -118 hhcurveto
            -224 -78 return
          </CharString>
          <CharString index="124">
            51 6 -119 hvcurveto
            endchar
          </CharString>
          <CharString index="125">
            -53 callsubr
            -6 callsubr
            return
          </CharString>
          <CharString index="126">
            -156 -142 -73 -153 return
          </CharString>
          <CharString index="127">
            232 268 40 callgsubr
            return
          </CharString>
          <CharString index="128">
            -291 -247 12 hvcurveto
            return
          </CharString>
          <CharString index="129">
            197 -139 261 257 201 129 266 hvcurveto
            9 -1 10 10 vvcurveto
            return
          </CharString>
          <CharString index="130">
            86 130 35 hvcurveto
            34 130 70 174 165 vvcurveto
            170 -94 65 -184 return
          </CharString>
          <CharString index="131">
            -131 -141 -77 -109 -38 hvcurveto
            152 return
          </CharString>
          <CharString index="132">
            250 -89 hvcurveto
            37 -13 68 -19 4 -30 rrcurveto
            return
          </CharString>
          <CharString index="133">
            hhcurveto
            -24 callgsubr
            return
          </CharString>
          <CharString index="134">
            hvcurveto
            49 -717 hlineto
            return
          </CharString>
          <CharString index="135">
            rlineto
            76 callgsubr
            return
          </CharString>
          <CharString index="136">
            vhcurveto
            -147 -313 -185 313 rlineto
            -11 18 -19 22 23 59 114 -12 return
          </CharString>
          <CharString index="137">
            -140 7 102 -78 150 hhcurveto
            111 60 75 93 18 hvcurveto
            67 369 rlineto
            return
          </CharString>
          <CharString index="138">
            -36 callsubr
            -150 -158 64 -106 vvcurveto
            -207 275 -21 215 return
          </CharString>
          <CharString index="139">
            212 225 26 179 96 -125 return
          </CharString>
          <CharString index="140">
            7 0 7 -1 7 hvcurveto
            return
          </CharString>
          <CharString index="141">
            -231 -193 -371 return
          </CharString>
          <CharString index="142">
            hhcurveto
            423 284 273 438 399 -266 240 -399 return
          </CharString>
          <CharString index="143">
            -190 249 -17 197 return
          </CharString>
          <CharString index="144">
            rmoveto
            101 -5 -65 67 -104 hhcurveto
            return
          </CharString>
          <CharString index="145">
            768 rcurveline
            -5 16 return
          </CharString>
          <CharString index="146">
            10 76 callsubr
          </CharString>
          <CharString index="147">
            vhcurveto
            459 53 callgsubr
            -191 125 -253 hhcurveto
            return
          </CharString>
          <CharString index="148">
            59 callsubr
            248 -19 198 219 242 26 184 87 return
          </CharString>
          <CharString index="149">
            -413 -271 -260 -416 hvcurveto
            -16 2 -14 -15 vvcurveto
            endchar
          </CharString>
          <CharString index="150">
            -73 25 -158 38 -5 84 rrcurveto
            70 return
          </CharString>
          <CharString index="151">
            vvcurveto
            149 -157 13 -155 -144 -194 -20 -144 return
          </CharString>
          <CharString index="152">
            -1 -149 -157 59 -101 -73 callsubr
            218 return
          </CharString>
          <CharString index="153">
            65 callgsubr
            -19 194 return
          </CharString>
          <CharString index="154">
            hvcurveto
            43 -113 rlineto
            -197 75 return
          </CharString>
          <CharString index="155">
            -152 -148 -73 -153 hvcurveto
            return
          </CharString>
          <CharString index="156">
            -190 -104 -73 -195 -1 vhcurveto
            return
          </CharString>
          <CharString index="157">
            -48 -211 184 hhcurveto
            142 return
          </CharString>
          <CharString index="158">
            178 148 79 182 hvcurveto
            return
          </CharString>
          <CharString index="159">
            89 -141 -45 -6 125 vhcurveto
            return
          </CharString>
          <CharString index="160">
            358 736 256 return
          </CharString>
          <CharString index="161">
            216 358 221 return
          </CharString>
          <CharString index="162">
            123 -88 161 return
          </CharString>
          <CharString index="163">
            85 127 -7 return
          </CharString>
          <CharString index="164">
            77 12 callgsubr
            return
          </CharString>
          <CharString index="165">
            107 75 56 hvcurveto
            return
          </CharString>
          <CharString index="166">
            vvcurveto
            -190 return
          </CharString>
          <CharString index="167">
            717 rmoveto
            341 -17 -144 267 -353 hhcurveto
            return
          </CharString>
          <CharString index="168">
            -49 callsubr
            -214 return
          </CharString>
          <CharString index="169">
            -39 82 hhcurveto
            100 57 60 96 hvcurveto
            350 342 vlineto
            return
          </CharString>
          <CharString index="170">
            -164 hhcurveto
            return
          </CharString>
          <CharString index="171">
            vhcurveto
            49 hlineto
            -1 -203 -21 -202 -176 vvcurveto
            return
          </CharString>
          <CharString index="172">
            hstemhm
            49 509 -372 372 220 423 return
          </CharString>
          <CharString index="173">
            70 -133 hhcurveto
            -733 hlineto
            return
          </CharString>
          <CharString index="174">
            96 callsubr
            180 return
          </CharString>
          <CharString index="175">
            0 11 11 vvcurveto
            endchar
          </CharString>
          <CharString index="176">
            -6 122 vhcurveto
            return
          </CharString>
          <CharString index="177">
            -132 vhcurveto
            return
          </CharString>
          <CharString index="178">
            rmoveto
            -109 -69 65 111 -2 hvcurveto
            114 return
          </CharString>
          <CharString index="179">
            rlineto
            -10 -140 -145 64 -106 vvcurveto
            -180 return
          </CharString>
          <CharString index="180">
            61 -95 59 callsubr
            return
          </CharString>
          <CharString index="181">
            -21 495 -20 hstem
            return
          </CharString>
          <CharString index="182">
            -10 hvcurveto
            64 -16 45 return
          </CharString>
          <CharString index="183">
            10 vvcurveto
            endchar
          </CharString>
          <CharString index="184">
            -129 35 -141 hhcurveto
            -307 -250 return
          </CharString>
          <CharString index="185">
            1211 rmoveto
            61 -2 -30 25 -63 hhcurveto
            return
          </CharString>
          <CharString index="186">
            hlineto
            -2 21 -6 99 -44 65 -6 85 rlinecurve
            return
          </CharString>
          <CharString index="187">
            rmoveto
            -174 8 145 -99 180 hhcurveto
            return
          </CharString>
          <CharString index="188">
            -38 -16 -24 -37 -57 vvcurveto
            -121 104 -61 return
          </CharString>
          <CharString index="189">
            -61 2 -91 hhcurveto
            91 callsubr
            -90 -57 -11 return
          </CharString>
          <CharString index="190">
            44 callgsubr
            -166 return
          </CharString>
          <CharString index="191">
            -948 -21 361 -20 return
          </CharString>
          <CharString index="192">
            90 252 -234 hhcurveto
            return
          </CharString>
          <CharString index="193">
            21 0 callsubr
            return
          </CharString>
          <CharString index="194">
            213 245 return
          </CharString>
          <CharString index="195">
            -133 vhcurveto
            return
          </CharString>
          <CharString index="196">
            -21 1095 201 387 201 return
          </CharString>
          <CharString index="197">
            -73 callsubr
            217 vhcurveto
            return
          </CharString>
          <CharString index="198">
            -714 hlineto
            return
          </CharString>
          <CharString index="199">
            9 -226 hhcurveto
            -437 -612 return
          </CharString>
          <CharString index="200">
            -1 15 -1 13 15 vvcurveto
            188 return
          </CharString>
          <CharString index="201">
            -129 244 719 192 return
          </CharString>
          <CharString index="202">
            -20 hstemhm
            hintmask 10100000
            return
          </CharString>
          <CharString index="203">
            87 callsubr
            26 return
          </CharString>
          <CharString index="204">
            6 -122 hvcurveto
            return
          </CharString>
          <CharString index="205">
            -142 -51 -6 return
          </CharString>
          <CharString index="206">
            hhcurveto
            -192 return
          </CharString>
        <CharString name=".notdef">
          endchar
        </CharString>
        <CharString name=".null">
          endchar
        </CharString>
        <CharString name="A">
          5 19 0 callsubr
          1594 -20 hstemhm
          38 459 hintmask 01110000
          585 641 rmoveto
          200 582 143 -582 rlineto
          62 952 rmoveto
          -343 -85 -18 -210 hvcurveto
          -5 0 -6 -5 vvcurveto
          -1 -24 -5 -19 -7 -22 -335 -878 8 callsubr
          -5 callgsubr
          118 -72 172 68 callgsubr
          91 -114 -59 -2 87 vhcurveto
          15 6 16 6 26 vhcurveto
          24 87 rlineto
          436 -24 callsubr
          -25 44 -20 68 -263 877 rcurveline
          266 -80 -155 45 -169 hhcurveto
          endchar
        </CharString>
        <CharString name="AE">
          762 0 221 1163 209 hstem
          971 489 rmoveto
          2 -69 rlineto
          -1 -149 -157 60 -102 -73 callsubr
          218 vhcurveto
          870 hlineto
          190 112 208 196 117 -55 81 -118 -127 -60 -76 callgsubr
          132 147 146 -61 126 -91 callsubr
          54 74 110 187 -104 202 -182 hvcurveto
          -858 hlineto
          -296 -292 -16 -219 -76 hvcurveto
          -2 -3 0 -2 -3 vvcurveto
          1 -37 9 -6 34 -9 rrcurveto
          29 -8 14 -17 -20 vvcurveto
          -26 -13 -28 -13 -25 vhcurveto
          -391 -750 -27 -52 -28 -32 -47 -24 rlinecurve
          -69 -35 -79 4 -87 vvcurveto
          -137 110 -61 150 177 135 88 148 29 vhcurveto
          1 7 1 4 5 vvcurveto
          -4 58 -97 -22 -4 59 1 15 6 25 18 34 37 69 rcurveline
          349 725 rmoveto
          2 -7 2 -8 1 -7 rrcurveto
          -551 -272 vlineto
          endchar
        </CharString>
        <CharString name="Aacute">
          9 18 0 callsubr
          2573 -34 callsubr
          12 439 hintmask 01011000
          1322 -67 callsubr
          hintmask 01101000
          -15 callsubr
          hintmask 01011000
          -782 -1931 -74 callgsubr
          hintmask 10011000
          -95 callgsubr
        </CharString>
        <CharString name="Acircumflex">
          -8 19 0 callsubr
          2559 -20 hstemhm
          34 439 hintmask 01110000
          572 -107 callgsubr
          -10 -1101 -81 callsubr
          68 callgsubr
          vhcurveto
          91 -116 -59 87 vvcurveto
          15 5 17 7 25 vhcurveto
          24 87 rlineto
          406 hlineto
          16 -87 3 -12 0 -10 1 -9 rlinecurve
          -128 -124 83 -98 vvcurveto
          hintmask 10110000
          -95 callgsubr
        </CharString>
        <CharString name="Adieresis">
          79 86 callsubr
          2237 -20 hstemhm
          79 439 -111 384 294 455 hintmask 01101100
          790 -103 callgsubr
          -1046 -1365 -33 callsubr
          hintmask 01110100
          -45 -11 -37 15 -56 vvcurveto
          -157 107 -72 161 155 132 -21 callgsubr
          hintmask 10110100
          -208 252 -21 219 346 155 28 191 66 -24 -15 -47 10 vhcurveto
          -68 14 -26 44 -19 69 -221 38 callsubr
          -2 -26 callsubr
          -333 20 -230 vhcurveto
          endchar
        </CharString>
        <CharString name="Agrave">
          0 18 0 callsubr
          2573 -20 hstemhm
          69 439 hintmask 01110000
          261 -95 callsubr
          335 -1689 -74 callgsubr
          hintmask 10110000
          -95 callgsubr
        </CharString>
        <CharString name="Aring">
          13 19 0 callsubr
          1595 54 callsubr
          hstemhm
          46 439 -111 351 -275 275 359 282 hintmask 01110011
          905 1810 71 callsubr
          70 68 111 104 68 -62 -104 6 vhcurveto
          -121 -64 -71 -115 40 callsubr
          -253 -205 -134 -261 -261 22 callsubr
          -792 -1377 -53 callsubr
          hintmask 01110101
          -71 callsubr
          hintmask 01111001
          -34 callgsubr
          68 callgsubr
          vhcurveto
          91 -116 -59 87 vvcurveto
          15 5 17 7 25 vhcurveto
          24 39 callgsubr
          16 -87 3 14 callgsubr
          hintmask 10111001
          -95 callgsubr
        </CharString>
        <CharString name="Atilde">
          56 20 0 callsubr
          1867 2 callgsubr
          hstemhm
          62 439 hintmask 01111000
          660 -89 callsubr
          -73 -1659 -33 callsubr
          -34 callgsubr
          154 131 -21 callgsubr
          hintmask 10111000
          -95 callgsubr
        </CharString>
        <CharString name="B">
          60 -3 232 1168 204 hstem
          972 895 rmoveto
          -28 -25 1 11 -16 hvcurveto
          -1 303 rlineto
          106 2 6 81 108 hhcurveto
          155 21 -124 -160 -158 -43 -60 -179 hvcurveto
          44 -664 rmoveto
          -90 -20 56 80 -4 hvcurveto
          353 vlineto
          17 15 5 21 196 55 -48 -197 4 vhcurveto
          -151 -26 -117 -149 vhcurveto
          851 256 rmoveto
          -15 239 -149 112 -230 16 rrcurveto
          197 11 150 93 213 vvcurveto
          377 -374 55 -403 vhcurveto
          -165 -169 -9 -153 hhcurveto
          -83 callgsubr
          hvcurveto
          30 callgsubr
          121 131 -4 133 hhcurveto
          459 467 43 415 hvcurveto
          11 68 callsubr
        </CharString>
        <CharString name="C">
          -228 -5 -21 1403 244 hstem
          1113 472 vstem
          974 1377 rmoveto
          88 44 -104 -111 7 hvcurveto
          -91 6 32 -22 74 hhcurveto
          62 callgsubr
          -565 -330 -284 -562 -487 388 -314 438 403 300 123 287 57 -17 66 -51 -30 -20 -20 -19 -16 hvcurveto
          -59 -51 -121 -43 -113 hhcurveto
          -319 -68 286 312 193 33 220 166 hvcurveto
          endchar
        </CharString>
        <CharString name="Ccedilla">
          -256 -619 204 409 -21 43 -21 1378 245 hstem
          870 277 vstem
          870 -47 callgsubr
          606 1496 -60 callsubr
          106 59 69 109 hvcurveto
          6 -1 5 6 vvcurveto
          endchar
        </CharString>
        <CharString name="Ccircumflex">
          -258 -5 -21 1400 245 939 -20 hstem
          436 -107 callgsubr
          1034 -527 -60 callsubr
          107 58 70 111 hvcurveto
          5 -1 4 5 vvcurveto
          endchar
        </CharString>
        <CharString name="D">
          101 0 251 1117 225 hstem
          963 251 rmoveto
          -58 -17 12 28 24 8 35 1 49 hvcurveto
          -1 876 rlineto
          25 -8 17 15 vvcurveto
          29 9 7 66 236 19 -303 -264 -260 -37 -290 -219 vhcurveto
          951 655 rmoveto
          478 -25 -327 209 -952 hhcurveto
          -260 -281 -20 -204 -101 152 86 callgsubr
          hvcurveto
          -765 vlineto
          -1 -149 -157 61 -103 vvcurveto
          -209 282 -21 259 962 344 205 606 30 -1 31 -1 34 vhcurveto
          endchar
        </CharString>
        <CharString name="E">
          -71 2 21 callgsubr
          hstem
          1734 434 -92 callgsubr
        </CharString>
        <CharString name="Eacute">
          -34 1 21 callgsubr
          979 -34 callsubr
          hintmask 11010000
          1297 -46 callgsubr
          393 -2138 -93 callsubr
        </CharString>
        <CharString name="Ecircumflex">
          -44 2 21 callgsubr
          965 -20 hstem
          548 -107 callgsubr
          1165 -1308 -92 callgsubr
        </CharString>
        <CharString name="Edieresis">
          26 3 21 callgsubr
          644 -20 hstem
          758 -103 callgsubr
          128 -1573 37 callsubr
          -127 -60 -105 callsubr
          152 86 callgsubr
          hvcurveto
          31 callsubr
          -56 callgsubr
        </CharString>
        <CharString name="Egrave">
          -47 1 21 callgsubr
          979 -20 hstem
          230 -95 callsubr
          1509 -1896 -93 callsubr
        </CharString>
        <CharString name="Eth">
          221 0 231 1166 196 hstem
          274 744 rmoveto
          -90 -52 4 83 -6 hvcurveto
          99 52 10 96 vhcurveto
          92 callgsubr
          90 62 -4 -84 5 hvcurveto
          -105 -56 -3 -100 vhcurveto
          91 callsubr
          1007 110 rmoveto
          -222 -1 -2 -401 -203 hhcurveto
          -103 -22 74 100 -2 hvcurveto
          4 1 5 4 vvcurveto
          792 vlineto
          108 1 20 79 108 hhcurveto
          176 23 -302 -204 4 hvcurveto
          -13 0 -12 1 -12 vhcurveto
          -1025 322 rmoveto
          -756 vlineto
          45 callsubr
          vhcurveto
          404 hlineto
          607 344 227 603 529 -333 234 -535 hvcurveto
          -488 hlineto
          98 callgsubr
          -20 -204 -101 151 86 callgsubr
          hvcurveto
          -9 vlineto
          endchar
        </CharString>
        <CharString name="Euro">
          -65 -1 -21 611 177 100 178 332 243 hstem
          1677 410 rmoveto
          50 -1 -24 49 -42 hhcurveto
          14 callsubr
          -173 -87 92 129 -50 hvcurveto
          261 hlineto
          58 31 30 60 58 -32 29 -56 hvcurveto
          -305 hlineto
          -4 32 -3 33 -4 35 rrcurveto
          315 77 callgsubr
          -318 hlineto
          146 9 49 186 143 208 -91 -356 244 hhcurveto
          106 58 69 109 279 -267 142 -283 -479 -293 -199 -377 -94 hvcurveto
          -107 80 callgsubr
          78 hlineto
          -2 -33 0 -32 -1 -35 rrcurveto
          -74 hlineto
          -57 -31 -29 -57 -59 30 -32 58 hvcurveto
          91 hlineto
          -363 74 276 -248 438 hhcurveto
          296 386 123 291 hvcurveto
          7 -1 5 7 vvcurveto
          endchar
        </CharString>
        <CharString name="F">
          -159 22 -21 1382 209 hstem
          1288 371 vstem
          1352 860 rmoveto
          124 -5 -62 103 -136 hhcurveto
          -96 -23 -107 -67 -33 hvcurveto
          -141 -11 rlineto
          481 432 -198 vlineto
          -76 4 98 -60 103 hhcurveto
          110 56 71 113 169 -100 190 -185 hvcurveto
          -821 hlineto
          -83 callgsubr
          hvcurveto
          -36 callsubr
          -149 -157 63 -105 -73 callsubr
          217 212 281 21 205 101 -155 -52 -13 callsubr
          341 vlineto
          105 -11 rlineto
          -8 78 -19 -176 102 hhcurveto
          139 67 120 147 13 -1 11 -1 12 hvcurveto
          endchar
        </CharString>
        <CharString name="G">
          -107 -25 352 1050 244 hstemhm
          1113 472 -472 502 hintmask 11010000
          947 1621 rmoveto
          -526 -368 -315 -538 -516 387 -277 512 306 387 124 95 hvcurveto
          56 -30 91 79 143 94 4 139 vvcurveto
          162 -215 3 -179 -195 -183 -32 -194 -76 38 -15 53 -16 vhcurveto
          59 -18 27 -49 5 -76 rrcurveto
          -45 -35 -23 -85 -179 -43 356 255 199 41 240 156 88 44 -104 -111 7 vhcurveto
          -91 6 32 -22 74 hhcurveto
          hintmask 11100000
          62 callgsubr
          hvcurveto
          endchar
        </CharString>
        <CharString name="H">
          437 24 -21 730 189 675 -20 hstem
          1245 1351 rmoveto
          5 -78 120 35 6 -114 -1 -272 rcurveline
          -479 hlineto
          1 252 rlineto
          6 -1 6 6 145 131 -72 100 vvcurveto
          211 -253 31 callgsubr
          -67 callgsubr
          152 86 callgsubr
          vhcurveto
          31 callsubr
          236 237 28 200 101 -125 -49 -7 125 vhcurveto
          1 325 rlineto
          481 -305 hlineto
          -55 -4 -32 -28 -21 vhcurveto
          -42 -31 -56 15 -71 vvcurveto
          -212 250 -18 221 213 284 20 207 102 -161 -54 -7 140 vhcurveto
          759 vlineto
          1 152 168 -67 108 vvcurveto
          197 -265 30 -232 -252 -221 -30 -212 vhcurveto
          endchar
        </CharString>
        <CharString name="I">
          -752 22 -21 1591 -20 hstem
          893 410 rmoveto
          3 764 rlineto
          149 159 -64 1 105 vhcurveto
          -100 callsubr
          -149 -157 63 -105 11 callsubr
        </CharString>
        <CharString name="Iacute">
          -479 21 -21 2571 9 callgsubr
          963 -47 callsubr
          -106 -2162 rmoveto
          3 764 rlineto
          149 159 -64 1 105 vhcurveto
          -100 callsubr
          -149 -157 63 -105 -73 callsubr
          219 232 -64 callsubr
          endchar
        </CharString>
        <CharString name="Icircumflex">
          -674 22 -21 2557 -20 hstem
          215 -107 callgsubr
          667 -1332 rmoveto
          3 764 rlineto
          149 159 -64 1 105 vhcurveto
          -100 callsubr
          -149 -157 63 -105 11 callsubr
        </CharString>
        <CharString name="Idieresis">
          -267 23 -21 2236 -20 hstem
          221 340 294 360 vstem
          560 -44 callsubr
          -127 -81 -161 -165 122 -103 callsubr
          -370 -1597 rmoveto
          2 764 rlineto
          149 161 -63 104 vvcurveto
          -100 callsubr
          -150 -157 65 -106 11 callsubr
        </CharString>
        <CharString name="Igrave">
          -611 21 -21 2571 -20 hstem
          -25 2330 rmoveto
          11 -184 199 -92 callsubr
          -96 29 callgsubr
          1010 -1920 rmoveto
          3 764 rlineto
          149 159 -64 1 105 vhcurveto
          -100 callsubr
          -149 -157 63 -105 -73 callsubr
          219 232 -64 callsubr
          endchar
        </CharString>
        <CharString name="Iogonek">
          -652 -711 219 513 -21 1591 -20 hstem
          118 265 vstem
          670 -46 callsubr
          267 385 rmoveto
          3 764 rlineto
          149 159 -64 1 105 vhcurveto
          -100 callsubr
          -149 -157 63 -105 -73 callsubr
          219 232 -64 callsubr
          endchar
        </CharString>
        <CharString name="Itilde">
          -334 23 -21 1865 2 callgsubr
          hstem
          410 1 callgsubr
          -69 hvcurveto
          122 -98 callgsubr
          592 -1890 rmoveto
          2 764 rlineto
          149 161 -63 104 vvcurveto
          -100 callsubr
          -150 -157 65 -106 11 callsubr
        </CharString>
        <CharString name="J">
          -196 -25 287 1331 -20 hstem
          23 490 rmoveto
          -351 18 340 -164 364 hhcurveto
          371 323 171 374 1 hvcurveto
          1 654 rlineto
          150 161 -66 107 vvcurveto
          207 -276 21 -215 -233 -269 -30 -196 -100 154 38 callgsubr
          -1 -665 rlineto
          -141 -46 -117 -135 -41 -46 13 35 -1 vhcurveto
          8 3 11 8 12 vhcurveto
          50 79 87 69 130 vvcurveto
          159 -152 80 -160 -212 -100 -156 -212 vhcurveto
          endchar
        </CharString>
        <CharString name="Jcircumflex">
          -133 -25 287 2296 -20 hstem
          482 -107 callgsubr
          -456 -1252 rmoveto
          -351 18 340 -164 364 hhcurveto
          371 323 171 374 1 hvcurveto
          1 654 rlineto
          150 161 -66 107 vvcurveto
          207 -276 21 -215 -233 -269 -30 -196 -100 154 38 callgsubr
          -1 -665 rlineto
          -141 -46 -117 -135 -41 -46 13 35 -1 vhcurveto
          8 3 11 8 12 vhcurveto
          50 79 87 69 130 vvcurveto
          159 -152 80 -160 -212 -100 -156 -212 vhcurveto
          endchar
        </CharString>
        <CharString name="K">
          280 86 callsubr
          1590 -34 callsubr
          hintmask 01010000
          1012 243 rmoveto
          -5 79 -110 -39 -6 107 1 273 rcurveline
          48 34 rlineto
          25 18 24 15 -1 vvcurveto
          255 -386 12 -19 3 -20 2 -22 rlinecurve
          -48 -25 -47 -37 vvcurveto
          -100 64 -49 289 226 262 24 189 60 -32 19 -44 14 vhcurveto
          -72 22 -52 36 -45 59 -381 543 rcurveline
          200 184 67 59 92 33 98 24 rlinecurve
          66 16 75 21 81 vvcurveto
          170 -219 37 -175 -170 -196 -41 -169 -81 104 2 3 -60 vhcurveto
          2 -45 -488 -380 -17 3 2 352 rcurveline
          1 150 160 -66 1 106 rrcurveto
          hintmask 10100000
          -100 callsubr
          -149 -157 63 -105 -73 callsubr
          219 252 209 30 212 vhcurveto
          endchar
        </CharString>
        <CharString name="L">
          -293 1 204 1387 -20 hstem
          1543 438 rmoveto
          103 -5 -65 65 -104 hhcurveto
          25 callgsubr
          -15 -4 -20 -5 -15 hhcurveto
          -156 -15 29 110 -7 hvcurveto
          4 830 1 149 158 -64 1 105 rlinecurve
          -100 callsubr
          -149 -157 63 -105 -73 callsubr
          217 vhcurveto
          684 hlineto
          190 113 207 200 hvcurveto
          11 15 callgsubr
        </CharString>
        <CharString name="Lslash">
          -179 -3 216 1378 -20 hstem
          89 651 rmoveto
          -17 15 21 -5 21 hhcurveto
          28 30 10 7 27 hvcurveto
          883 236 rlineto
          63 17 67 14 65 vvcurveto
          83 -46 26 -42 -27 -32 -7 -9 -33 vhcurveto
          -883 -236 rlineto
          -60 -19 -60 -12 -69 vvcurveto
          -34 11 -33 18 -18 vhcurveto
          525 941 rmoveto
          98 callgsubr
          -21 -204 -56 38 -5 42 -10 hvcurveto
          51 -12 23 -37 5 -60 rrcurveto
          -768 vlineto
          -174 -157 89 -107 -73 callsubr
          218 vhcurveto
          684 hlineto
          190 112 209 199 118 -54 80 -119 25 callgsubr
          -4 -39 -26 -5 -33 hhcurveto
          -79 -38 52 80 -2 hvcurveto
          3 1 4 5 vvcurveto
          3 814 rlineto
          1 175 159 -90 105 vvcurveto
          212 -283 31 callgsubr
          vhcurveto
          endchar
        </CharString>
        <CharString name="M">
          374 21 -21 1592 -20 hstemhm
          70 430 -271 271 -271 452 hintmask 11100000
          500 838 rmoveto
          405 -602 rlineto
          -16 10 14 -7 16 hhcurveto
          16 12 8 15 9 hvcurveto
          359 600 rlineto
          -416 vlineto
          5 callsubr
          -7 135 vhcurveto
          1 764 rlineto
          152 162 -67 108 vvcurveto
          209 -248 17 -217 -213 -95 -143 -135 -79 vhcurveto
          -243 -412 -268 434 rlineto
          138 -87 -60 118 -222 hhcurveto
          -178 -195 -50 -178 hvcurveto
          hintmask 11010000
          -99 153 50 6 -132 -10 callgsubr
          163 vhcurveto
          hintmask 11001000
          148 149 72 155 hvcurveto
          hintmask 11100000
          100 -174 -52 -13 callsubr
          endchar
        </CharString>
        <CharString name="N">
          -43 21 -21 1594 -20 hstemhm
          69 19 callgsubr
          456 -294 294 -294 451 hintmask 11100100
          519 410 -14 callgsubr
          hintmask 11100001
          4 callgsubr
          hintmask 11100100
          48 callsubr
          hintmask 11100010
          -101 155 53 7 -16 callgsubr
          hintmask 11010100
          -101 54 callgsubr
          -10 callgsubr
          161 vhcurveto
          hintmask 11001100
          -2 callgsubr
        </CharString>
        <CharString name="NULL">
          endchar
        </CharString>
        <CharString name="Nacute">
          15 20 -21 2572 -34 callsubr
          25 19 callgsubr
          440 -278 278 -278 451 hintmask 1011001000000000
          1313 -67 callsubr
          hintmask 1101001000000000
          -15 callsubr
          hintmask 1011000010000000
          -837 -2162 -14 callgsubr
          4 callgsubr
          hintmask 1011001000000000
          48 callsubr
          hintmask 1011000100000000
          -101 156 53 6 -16 callgsubr
          hintmask 1010101000000000
          -101 54 callgsubr
          -10 callgsubr
          161 vhcurveto
          hintmask 1010011000000000
          -2 callgsubr
        </CharString>
        <CharString name="Ntilde">
          58 22 -21 1866 2 callgsubr
          hstemhm
          70 19 callgsubr
          455 -293 293 -293 451 hintmask 1111001000000000
          646 -89 callsubr
          -128 -1890 -26 callgsubr
          80 -96 103 hhcurveto
          123 33 86 129 hvcurveto
          -1 959 rlineto
          hintmask 1111000010000000
          1 4 callgsubr
          hintmask 1111001000000000
          48 callsubr
          hintmask 1111000100000000
          -101 155 53 7 -22 callgsubr
          rlineto
          86 -93 -60 84 -167 hhcurveto
          49 callgsubr
          hintmask 1110101000000000
          -101 152 51 7 -133 -23 callgsubr
          148 -66 163 vhcurveto
          hintmask 1110011000000000
          -2 callgsubr
        </CharString>
        <CharString name="O">
          22 -25 9 callsubr
          hstem
          57 717 rmoveto
          -396 23 -79 callsubr
          -613 -321 -305 -535 hvcurveto
          -21 2 -20 -21 vvcurveto
          867 637 rmoveto
          170 10 21 callsubr
          3 -55 1 -59 -56 70 callgsubr
          -202 -84 callgsubr
        </CharString>
        <CharString name="OE">
          914 -2 223 -223 258 1075 264 -211 211 hstemhm
          hintmask 10010000
          70 758 rmoveto
          1 -59 rlineto
          -469 24 329 -232 495 hhcurveto
          1407 hlineto
          190 112 209 197 117 -55 81 -118 -125 -63 -103 -104 -27 -78 callsubr
          100 hhcurveto
          146 61 132 147 146 -61 126 -146 -101 -24 -112 -72 -68 callgsubr
          62 -98 122 hhcurveto
          110 54 74 110 184 -104 207 -181 hvcurveto
          -1311 hlineto
          -625 -309 -217 -620 hvcurveto
          722 268 rmoveto
          hintmask 01100000
          153 -3 152 149 vhcurveto
          231 -1075 -194 hlineto
          -168 -18 332 257 69 2 63 1 49 hvcurveto
          endchar
        </CharString>
        <CharString name="Oacute">
          48 -26 9 callsubr
          952 -34 callsubr
          hintmask 11010000
          1331 -46 callgsubr
          -1330 -1855 rmoveto
          -396 22 -79 callsubr
          -610 -323 -302 -532 -22 0 -24 2 -22 hvcurveto
          866 637 rmoveto
          170 10 21 callsubr
          2 -53 2 -59 -57 70 callgsubr
          -203 -84 callgsubr
        </CharString>
        <CharString name="Ocircumflex">
          46 -25 9 callsubr
          938 -20 hstem
          581 -107 callgsubr
          -559 -1025 -48 callsubr
          3 -55 1 -59 -56 70 callgsubr
          -202 -84 callgsubr
        </CharString>
        <CharString name="Odieresis">
          104 -23 9 callsubr
          616 -20 hstem
          786 -103 callgsubr
          -1596 -1289 -48 callgsubr
          3 -55 1 -59 -56 70 callgsubr
          -202 -84 callgsubr
        </CharString>
        <CharString name="Ograve">
          45 -25 9 callsubr
          951 -20 hstem
          259 -95 callsubr
          -215 -1612 -48 callsubr
          2 -53 2 -59 -57 70 callgsubr
          -203 -84 callgsubr
        </CharString>
        <CharString name="Oslash">
          89 -134 -21 130 9 callsubr
          109 -20 hstem
          371 -35 rmoveto
          -10 -17 -4 -16 -15 vvcurveto
          -41 44 -31 41 27 26 12 31 19 vhcurveto
          1048 1718 rlineto
          12 19 5 18 17 vvcurveto
          41 -4 -37 28 -41 hhcurveto
          -28 -29 -14 -32 -20 hvcurveto
          -1377 -966 rmoveto
          -395 7 293 -347 507 hhcurveto
          623 357 343 562 401 -289 339 -518 -634 -344 -328 -574 -1 hvcurveto
          901 637 rmoveto
          169 -5 -293 -250 -246 -22 -327 -165 -166 3 331 261 237 22 287 164 hvcurveto
          endchar
        </CharString>
        <CharString name="Otilde">
          91 -24 9 callsubr
          246 2 callgsubr
          hstem
          41 316 vstem
          663 -89 callsubr
          -622 -1583 -48 callgsubr
          2 -53 2 -59 -57 70 callgsubr
          -203 -84 callgsubr
        </CharString>
        <CharString name="P">
          45 20 -21 571 182 647 192 hstem
          1045 754 rmoveto
          -23 -31 -2 -28 hhcurveto
          -28 -24 1 11 -9 hvcurveto
          476 vlineto
          94 1 10 65 96 hhcurveto
          180 -2 -218 -179 -129 -21 -120 -120 hvcurveto
          -148 -344 rmoveto
          165 vlineto
          -5 74 93 1 77 hhcurveto
          370 372 155 363 356 -368 147 -375 hvcurveto
          -595 hlineto
          -207 -271 -23 -203 -101 153 -30 callsubr
          hvcurveto
          -36 callsubr
          -149 -157 63 -105 -73 callsubr
          219 233 267 -58 callsubr
          endchar
        </CharString>
        <CharString name="Q">
          11 -447 -21 1820 266 hstem
          26 698 rmoveto
          24 -431 269 -241 410 -43 357 -315 rcurveline
          67 -60 76 -77 121 1 rrcurveto
          156 289 154 152 25 -7 19 -8 21 hvcurveto
          -5 -19 -17 -1 -25 hhcurveto
          -61 -46 8 28 -41 hvcurveto
          -187 125 rlineto
          281 118 140 251 392 vvcurveto
          542 -303 257 -546 -614 -319 -233 -599 -30 0 -29 2 -31 vhcurveto
          867 656 rmoveto
          152 33 -254 -224 hvcurveto
          -83 -3 -79 -61 vvcurveto
          2 -49 rlineto
          1 -18 -1 -18 -19 vvcurveto
          -146 -16 -165 -131 -87 callsubr
        </CharString>
        <CharString name="R">
          273 1402 191 hstem
          1936 1165 -101 callsubr
        </CharString>
        <CharString name="Racute">
          292 1401 191 979 9 callgsubr
          1479 -47 callsubr
          420 -1407 -100 callgsubr
        </CharString>
        <CharString name="Rcaron">
          301 1402 191 966 -20 hstem
          1395 2559 rmoveto
          -112 -1 -44 -105 -57 -76 -121 -162 rcurveline
          -120 162 rlineto
          71 -53 -47 111 -111 hhcurveto
          -66 -46 -40 -67 -19 3 -22 9 -23 6 callgsubr
          9 25 3 24 1 20 rlinecurve
          63 -4 -44 39 -64 hhcurveto
          528 -1394 -101 callsubr
        </CharString>
        <CharString name="Rcommaaccent">
          272 84 callsubr
          2029 191 hstem
          733 308 vstem
          1376 -81 callgsubr
          542 1594 -100 callgsubr
        </CharString>
        <CharString name="S">
          -301 -27 290 1118 238 hstemhm
          58 492 473 394 -394 493 hintmask 11110000
          550 1262 rmoveto
          76 103 43 111 124 132 -53 -148 3 vhcurveto
          -45 1 23 -31 53 hhcurveto
          230 87 67 107 244 -378 97 -276 -396 -309 -127 -396 -362 296 -138 322 -87 hvcurveto
          193 -57 40 -45 -54 vvcurveto
          -54 -52 -36 -60 -165 -216 64 138 -83 vhcurveto
          55 -47 -44 41 -46 hhcurveto
          -51 -44 -46 -102 -352 364 -88 357 hvcurveto
          hintmask 11101000
          352 342 164 324 376 -292 138 -375 107 hvcurveto
          -97 28 -200 41 -2 111 rrcurveto
          endchar
        </CharString>
        <CharString name="T">
          -62 21 -21 1380 213 hstem
          1221 1380 rmoveto
          130 hlineto
          40 -163 rlineto
          -103 23 63 -94 122 hhcurveto
          110 54 72 111 185 -103 205 -181 hvcurveto
          -1147 hlineto
          -183 -104 93 callgsubr
          109 124 52 97 99 30 hvcurveto
          40 160 rlineto
          112 hlineto
          -1 -954 rlineto
          5 callsubr
          -24 136 vhcurveto
          endchar
        </CharString>
        <CharString name="Thorn">
          36 21 -21 1204 181 463 -20 hstem
          1240 905 rmoveto
          -135 -1 -40 -145 -135 hhcurveto
          -163 579 131 hlineto
          142 57 -126 -140 7 hvcurveto
          1 -33 rlineto
          -985 522 rmoveto
          1 -1007 rlineto
          45 callsubr
          20 callsubr
          102 -155 -55 -7 132 vhcurveto
          65 vlineto
          -5 72 92 1 77 hhcurveto
          331 321 139 318 321 -315 141 -336 hvcurveto
          -244 hlineto
          1 39 rlineto
          153 161 -62 104 vvcurveto
          211 -283 31 callgsubr
          98 callgsubr
          -22 -205 -100 152 50 6 -135 vhcurveto
          2 -9 rlineto
          endchar
        </CharString>
        <CharString name="U">
          54 -26 288 1331 -20 hstemhm
          1235 -9 callsubr
          hintmask 11100000
          191 1183 -79 callgsubr
          -211 -280 -22 -203 -100 152 51 -4 callsubr
          vhcurveto
          endchar
        </CharString>
        <CharString name="Uacute">
          70 -27 288 2310 -34 callsubr
          774 189 211 -9 callsubr
          hintmask 10111000
          1310 -67 callsubr
          hintmask 11011000
          -15 callsubr
          hintmask 10111000
          -1179 -1389 -88 callgsubr
          hintmask 10110010
          42 callgsubr
          hintmask 10111000
          -59 callsubr
          hvcurveto
          hintmask 10110100
          -84 callsubr
          150 160 -66 -16 callsubr
          -211 -279 -22 -203 -100 151 51 -4 callsubr
          vhcurveto
          endchar
        </CharString>
        <CharString name="Ucircumflex">
          72 -26 288 2296 -20 hstemhm
          1197 -9 callsubr
          hintmask 11100000
          561 -107 callgsubr
          -407 -559 -79 callgsubr
          98 callgsubr
          -29 callgsubr
          152 38 callgsubr
          endchar
        </CharString>
        <CharString name="Udieresis">
          123 -24 288 1974 -20 hstemhm
          1225 401 -242 293 -293 454 hintmask 11100000
          763 -103 callgsubr
          -1444 -823 -75 callgsubr
          vhcurveto
          hintmask 11010000
          -18 callsubr
          hvcurveto
          -1 653 rlineto
          hintmask 11001000
          153 162 -96 callgsubr
          151 160 -68 107 vvcurveto
          209 -285 18 -217 -67 callgsubr
          152 86 callgsubr
          vhcurveto
          endchar
        </CharString>
        <CharString name="Ugrave">
          71 -26 288 2309 -20 hstemhm
          1377 295 -295 454 hintmask 11100000
          237 -95 callsubr
          -63 -1146 -88 callgsubr
          hintmask 11010000
          -1 153 163 -39 callgsubr
          -59 callsubr
          vhcurveto
          -43 callsubr
        </CharString>
        <CharString name="Umacron">
          110 -27 288 1923 -20 hstemhm
          1218 -9 callsubr
          hintmask 11100000
          1488 1983 rmoveto
          131 -6 -78 66 callsubr
          -136 -81 -80 -141 -142 81 -80 137 hvcurveto
          733 hlineto
          151 65 85 156 hvcurveto
          -1314 -800 -88 callgsubr
          hintmask 11001000
          -1 153 163 -96 callgsubr
          150 160 -66 -16 callsubr
          -83 callgsubr
          vhcurveto
          endchar
        </CharString>
        <CharString name="Uogonek">
          82 -736 219 491 288 -241 -21 1593 -20 hstemhm
          436 265 518 -9 callsubr
          hintmask 10111100
          988 -29 callsubr
          83 callgsubr
          -812 1184 -58 callgsubr
          hintmask 11011100
          -17 callgsubr
          -18 callsubr
          2 vhcurveto
          59 callgsubr
          hintmask 11011001
          42 callgsubr
          hintmask 11011100
          -59 callsubr
          hvcurveto
          hintmask 11011010
          -43 callsubr
        </CharString>
        <CharString name="V">
          -73 -25 -21 1640 -20 hstem
          1292 452 vstem
          1000 1371 rmoveto
          202 -12 -261 21 -219 hhcurveto
          67 callgsubr
          -55 29 -8 42 -11 hvcurveto
          64 -18 38 -43 27 -62 279 -632 rcurveline
          76 -173 107 -412 199 1 rrcurveto
          211 65 310 172 69 hvcurveto
          302 734 28 68 36 44 72 15 rlinecurve
          51 11 42 2 62 3 callsubr
          -98 140 60 6 -91 vhcurveto
          -1 -21 -3 -17 -9 -27 -140 -390 rcurveline
          -29 -11 -17 -39 -23 hhcurveto
          -24 -12 37 21 -10 hvcurveto
          -163 400 rlineto
          -8 18 -7 16 19 106 136 -68 105 vvcurveto
          endchar
        </CharString>
        <CharString name="W">
          977 -26 -21 1641 -20 hstem
          2325 453 vstem
          1094 1353 rmoveto
          4 -41 26 -9 34 -10 57 -18 37 -30 29 -52 -131 -369 rcurveline
          -29 -12 -12 -39 -26 hhcurveto
          -22 -15 37 21 -9 hvcurveto
          -163 359 rlineto
          -9 19 -9 17 23 95 140 -59 101 vvcurveto
          204 -280 21 -212 67 callgsubr
          -56 27 -8 42 -11 vhcurveto
          64 -18 37 -45 29 -59 293 -632 rcurveline
          81 -175 57 -147 83 -136 rrcurveto
          -67 38 38 -60 85 hhcurveto
          219 55 327 180 68 hvcurveto
          174 458 149 -381 rlineto
          -187 67 104 -397 211 hhcurveto
          214 65 337 169 62 hvcurveto
          268 710 26 68 42 43 71 15 rlinecurve
          50 11 39 2 61 vvcurveto
          151 -144 72 -156 19 callsubr
          vhcurveto
          -100 145 64 -100 vvcurveto
          -17 -3 -16 -8 -24 vhcurveto
          -116 -349 rlineto
          -30 -13 -9 -39 -28 hhcurveto
          -22 -19 39 20 -7 hvcurveto
          -132 359 rlineto
          -7 18 -6 17 14 99 134 -53 96 vvcurveto
          206 -277 21 -214 -249 -254 -30 -211 vhcurveto
          endchar
        </CharString>
        <CharString name="X">
          59 23 -21 1592 -20 hstem
          1862 221 rmoveto
          -4 55 -26 17 -43 15 -72 24 -54 35 -45 57 -428 508 rcurveline
          242 242 42 42 52 27 60 19 rlinecurve
          83 25 108 -5 106 vvcurveto
          153 -148 51 -154 -173 -192 -60 -175 -72 82 10 4 -52 vhcurveto
          -30 -24 -19 -21 -20 vhcurveto
          -91 -89 -73 89 rlineto
          -16 20 -19 17 27 65 113 -24 84 vvcurveto
          228 -290 3 -239 -192 -275 -23 -188 -63 28 -19 48 -14 vhcurveto
          72 -22 50 -33 45 -56 371 -459 rcurveline
          -296 -291 -44 -43 -46 -28 -56 -21 rlinecurve
          -72 -26 -89 -2 -96 vvcurveto
          -143 129 -65 142 179 217 56 180 79 -112 -18 -1 59 vhcurveto
          27 19 17 21 20 vhcurveto
          140 137 112 -137 rlineto
          17 -23 18 -13 -27 -66 -113 24 -80 vvcurveto
          -208 325 -27 214 234 245 25 196 vhcurveto
          endchar
        </CharString>
        <CharString name="Y">
          -47 21 -21 1593 -34 callsubr
          1280 477 hintmask 10110000
          1199 410 -65 callgsubr
          hintmask 11010000
          203 -281 21 -211 67 callgsubr
          -59 34 -9 45 -36 callgsubr
        </CharString>
        <CharString name="Yacute">
          -49 20 -21 2572 -34 callsubr
          716 229 266 477 hintmask 10111000
          1252 -99 callgsubr
          hintmask 11011000
          -15 callsubr
          hintmask 10111000
          -121 -2162 -65 callgsubr
          203 -281 21 -211 -236 -264 -29 -198 -60 34 -8 44 -36 callgsubr
        </CharString>
        <CharString name="Z">
          -211 1 225 1150 219 hstem
          1587 423 rmoveto
          96 -6 -62 64 -97 -269 154 -357 -294 hhcurveto
          -40 -55 6 40 17 7 15 13 24 hvcurveto
          537 1087 rlineto
          14 27 21 33 41 vvcurveto
          56 -40 23 -65 vhcurveto
          -1071 hlineto
          -183 -105 93 callgsubr
          110 124 52 97 99 30 hvcurveto
          38 160 rlineto
          227 hlineto
          16 14 -16 -15 1 hvcurveto
          -579 -1140 rlineto
          -19 -38 -25 -34 -43 vvcurveto
          -64 40 -25 65 vhcurveto
          1102 hlineto
          196 91 226 197 hvcurveto
          endchar
        </CharString>
        <CharString name="a">
          -251 -26 -50 callsubr
          hstemhm
          157 417 hintmask 10110000
          779 648 -98 callsubr
          hintmask 01110000
          -93 callgsubr
          -112 200 -71 153 54 10 35 35 114 19 111 114 129 -1 -196 -150 vhcurveto
          -10 87 callgsubr
          -137 hlineto
          -359 -280 -103 -348 hvcurveto
          -21 vlineto
          endchar
        </CharString>
        <CharString name="aacute">
          -196 -27 -50 callsubr
          952 -34 callsubr
          113 416 hintmask 10101100
          1215 -104 callsubr
          hintmask 10110100
          -4 callgsubr
          hintmask 10101100
          -479 -1629 -98 callsubr
          hintmask 01101100
          -74 callsubr
        </CharString>
        <CharString name="acircumflex">
          -232 -26 -50 callsubr
          938 -20 hstemhm
          141 416 hintmask 10111000
          471 -106 callgsubr
          293 -799 -98 callsubr
          hintmask 01111000
          -85 callgsubr
          129 -1 -196 -150 vhcurveto
          -10 87 callgsubr
          -137 hlineto
          -351 -288 -101 -340 hvcurveto
          -10 0 -11 -10 vvcurveto
          endchar
        </CharString>
        <CharString name="acute">
          -977 82 -21 829 9 callgsubr
          574 891 rmoveto
          -163 -85 -177 -113 -63 hvcurveto
          -68 -121 -155 -152 -163 vvcurveto
          -51 41 -53 54 94 87 78 64 84 vhcurveto
          134 97 278 137 222 vvcurveto
          hintmask 11000000
          131 -104 100 -135 vhcurveto
          endchar
        </CharString>
        <CharString name="adieresis">
          -112 -24 -50 callsubr
          616 -20 hstemhm
          187 416 -416 506 293 465 hintmask 10110110
          693 -105 callgsubr
          -746 -1063 -78 callgsubr
          hintmask 01111010
          -89 callgsubr
          33 0 34 33 127 7 112 98 vvcurveto
          368 -90 172 -591 -27 callgsubr
          137 -9 -224 -152 vhcurveto
          -137 hlineto
          -352 -287 -28 callsubr
        </CharString>
        <CharString name="ae">
          411 -25 230 -230 357 737 256 -188 188 hstemhm
          185 413 1195 339 hintmask 10011100
          184 999 rmoveto
          -12 vlineto
          -175 11 217 -9 186 hhcurveto
          136 3 -1 198 133 hhcurveto
          130 -1 -199 -148 hvcurveto
          -10 87 callgsubr
          -137 hlineto
          -349 -291 -100 -335 -272 255 -78 274 187 315 36 132 50 hvcurveto
          -93 79 121 -75 170 hhcurveto
          298 195 132 212 84 hvcurveto
          2 6 2 7 8 vvcurveto
          35 -13 37 -35 vhcurveto
          hintmask 01101100
          -87 -92 -80 -115 -8 callgsubr
          -161 -127 -61 -64 -95 hvcurveto
          84 -83 -141 41 -175 hhcurveto
          -273 -311 -68 -258 hvcurveto
          445 -622 rmoveto
          144 35 126 144 19 17 -1 -3 15 vhcurveto
          1 -88 6 -98 -89 vvcurveto
          hintmask 10101100
          -96 -12 -67 -93 -98 -27 53 88 -7 vhcurveto
          1162 477 rmoveto
          -320 hlineto
          -32 callsubr
          29 -104 -142 2 vhcurveto
          endchar
        </CharString>
        <CharString name="agrave">
          -228 -27 -50 callsubr
          952 -20 hstemhm
          163 431 hintmask 10111000
          163 -94 callgsubr
          637 -1387 -98 callsubr
          hintmask 01111000
          -74 callsubr
        </CharString>
        <CharString name="ampersand">
          338 -50 247 1162 306 -251 251 hstemhm
          hintmask 10100000
          1135 1434 rmoveto
          168 -6 -253 63 -175 hhcurveto
          -300 -322 -124 -290 -124 61 -81 85 -54 hvcurveto
          -116 -103 -106 -151 -213 vvcurveto
          -434 470 -141 440 425 505 126 413 98 -35 157 -59 132 vhcurveto
          202 85 112 152 48 241 -119 94 rcurveline
          -153 -154 -31 -3 -333 hhcurveto
          -306 -122 -166 -269 -51 hvcurveto
          121 -94 rlineto
          62 42 6 24 107 hhcurveto
          30 -109 26 -85 2 -136 rrcurveto
          -208 -105 -114 -210 -215 -127 218 214 -3 vhcurveto
          98 18 127 87 62 40 46 64 36 -18 22 -27 8 vhcurveto
          -65 19 -35 54 79 vvcurveto
          107 50 125 101 vhcurveto
          hintmask 11000000
          76 53 -55 64 hhcurveto
          40 21 29 39 3 0 2 -1 3 hvcurveto
          endchar
        </CharString>
        <CharString name="aring">
          -213 -25 -50 callsubr
          122 54 callsubr
          hstemhm
          151 416 -221 275 359 282 hintmask 10111011
          801 1664 71 callsubr
          71 68 110 104 68 -62 -104 6 vhcurveto
          -121 -64 -71 -115 vhcurveto
          460 63 callgsubr
          -254 -204 -135 -262 -259 199 -139 259 257 201 129 264 hvcurveto
          10 0 11 10 vvcurveto
          -489 -1223 -78 callgsubr
          hintmask 01111101
          -72 callsubr
        </CharString>
        <CharString name="asciicircum">
          -729 701 -21 912 -20 hstem
          1019 786 rmoveto
          -3 17 -3 16 -6 16 -137 326 rcurveline
          173 -75 -45 258 -228 hhcurveto
          -224 -56 -257 -174 -70 hvcurveto
          -137 -326 -7 -17 -5 -16 1 -23 rlinecurve
          -60 42 -39 60 102 40 97 67 50 vhcurveto
          204 320 204 -320 rlineto
          -68 43 55 -96 96 hhcurveto
          66 35 39 68 hvcurveto
          endchar
        </CharString>
        <CharString name="asciitilde">
          -299 758 -21 125 2 callgsubr
          hstem
          473 1295 8 callgsubr
          -71 hvcurveto
          124 -35 callsubr
          92 75 29 92 hvcurveto
          238 -1 callsubr
          97 -86 callsubr
          -2 -47 -38 -88 -259 -25 callsubr
          endchar
        </CharString>
        <CharString name="asterisk">
          148 -22 0 callsubr
          2010 -20 hstemhm
          hintmask 01100000
          1706 272 rmoveto
          -6 88 -67 73 -56 47 -113 96 -118 105 -107 99 rrcurveto
          -10 9 -5 6 1 vvcurveto
          254 20 458 -20 284 vvcurveto
          166 -99 184 -148 -56 -52 -22 -19 -47 vhcurveto
          -148 -61 -119 -74 -132 -85 rrcurveto
          29 173 70 186 186 vvcurveto
          184 -96 70 -186 -186 -95 -69 -181 -183 65 -190 34 -176 vhcurveto
          -133 85 -120 72 -148 62 rrcurveto
          18 -45 -54 24 -52 hhcurveto
          -148 -100 -177 -169 -287 445 19 267 -21 hvcurveto
          -1 -6 -6 -11 -9 vhcurveto
          -111 -97 -114 -107 -113 -96 rrcurveto
          -56 -48 -73 -74 -93 vvcurveto
          -148 188 -158 151 125 57 107 88 45 vhcurveto
          45 22 139 403 32 hhcurveto
          4 27 -79 -21 7 hvcurveto
          hintmask 10100000
          -174 57 96 -370 215 hhcurveto
          155 187 157 154 hvcurveto
          endchar
        </CharString>
        <CharString name="at">
          1165 -461 -21 701 219 -219 301 651 224 210 -20 504 -20 hstemhm
          hintmask 11011100
          1469 1171 rmoveto
          52 52 -29 -20 32 hvcurveto
          -643 vlineto
          -35 -2 -74 -6 -49 hhcurveto
          -165 17 309 128 150 20 146 116 hvcurveto
          707 -653 rmoveto
          -58 14 168 75 93 4 87 2 88 hvcurveto
          -1 277 rlineto
          85 -5 -133 4 -131 hhcurveto
          -128 -79 -38 -89 -36 hvcurveto
          77 -77 -112 48 -157 hhcurveto
          -326 -145 -261 -334 -323 119 -256 328 168 125 50 83 82 hvcurveto
          -93 42 129 -19 141 hhcurveto
          565 443 251 563 329 -151 222 -184 160 hvcurveto
          205 -236 -345 119 -442 hhcurveto
          -681 -488 -252 -420 -256 hvcurveto
          -102 -167 -74 -200 -252 vvcurveto
          -399 167 -280 215 -203 vhcurveto
          -245 258 378 -153 500 hhcurveto
          332 292 78 114 232 hvcurveto
          -254 393 rlineto
          39 -25 -34 14 -40 -132 -199 -153 -169 hhcurveto
          -539 -389 263 537 537 433 265 529 461 400 -199 -452 hvcurveto
          hintmask 10111100
          -199 -54 -235 -175 vhcurveto
          endchar
        </CharString>
        <CharString name="atilde">
          -154 -25 -50 callsubr
          246 2 callgsubr
          hstemhm
          170 416 hintmask 10111100
          561 -90 callgsubr
          230 -1357 -78 callgsubr
          hintmask 01111100
          -72 callsubr
        </CharString>
        <CharString name="b">
          -116 -24 254 840 255 561 -20 hstem
          1706 713 rmoveto
          342 -19 -149 270 -327 hhcurveto
          -177 -154 -41 -128 -94 hvcurveto
          628 vlineto
          92 -4 -141 10 -164 -7 callgsubr
          -1158 rlineto
          2 -85 0 -11 0 vvcurveto
          0 1 1 0 vhcurveto
          -2 -10 -1 -11 -9 vvcurveto
          -133 64 -96 95 102 120 49 116 99 vhcurveto
          -112 92 190 -78 239 hhcurveto
          366 166 295 375 hvcurveto
          23 -2 22 23 vvcurveto
          -781 -484 rmoveto
          -92 -41 53 75 -5 hvcurveto
          631 vlineto
          37 1 71 44 50 hhcurveto
          176 -13 -235 -192 11 hvcurveto
          2 -37 2 -36 -35 vvcurveto
          -162 -30 -143 88 callsubr
          endchar
        </CharString>
        <CharString name="backslash">
          -960 -102 -21 2120 -20 hstem
          884 81 rmoveto
          -2 23 -5 20 -5 19 -165 554 -178 575 -158 557 rrcurveto
          92 -29 -62 76 -119 hhcurveto
          -129 -104 -60 -127 -30 6 -25 7 -24 hvcurveto
          501 -1686 rlineto
          -91 25 68 -77 119 hhcurveto
          135 95 70 134 hvcurveto
          endchar
        </CharString>
        <CharString name="bar">
          -1275 -280 -21 2189 -20 hstem
          34 442 vstem
          476 1671 rmoveto
          17 vlineto
          128 -7 -76 72 -137 hhcurveto
          -144 -78 -78 -139 hvcurveto
          -1755 vlineto
          -135 79 -82 143 141 80 81 136 -1 vhcurveto
          endchar
        </CharString>
        <CharString name="braceleft">
          -577 94 callsubr
          720 244 hstem
          171 1384 rmoveto
          -86 vlineto
          -157 -35 -115 -154 vhcurveto
          -1 -192 rlineto
          152 41 -115 -158 -2 hvcurveto
          -1 -86 rlineto
          -5 -1 -5 -4 vvcurveto
          -345 6 230 -245 345 hhcurveto
          171 136 63 82 110 hvcurveto
          -43 119 rlineto
          -11 -49 -51 -9 -57 hhcurveto
          -154 -35 108 151 -3 hvcurveto
          4 1 4 5 vvcurveto
          86 vlineto
          247 -122 160 -194 50 vhcurveto
          199 49 114 157 3 251 1 87 rcurveline
          157 2 29 115 161 hhcurveto
          57 50 -10 -11 48 hvcurveto
          43 119 rlineto
          83 -111 -133 63 -173 hhcurveto
          -350 -229 -252 -353 -2 hvcurveto
          endchar
        </CharString>
        <CharString name="braceright">
          -575 94 callsubr
          719 244 hstem
          cntrmask 11100000
          444 1989 rmoveto
          -173 -134 -62 -84 -112 hvcurveto
          43 -119 rlineto
          11 48 52 10 56 hhcurveto
          157 39 -113 -159 -2 hvcurveto
          -1 -87 rlineto
          -3 -1 -3 -3 vvcurveto
          -245 125 -153 191 -49 vhcurveto
          -196 -51 -119 -158 -248 vvcurveto
          -86 vlineto
          -160 -35 -112 -159 -57 -51 9 11 -47 vhcurveto
          -43 -119 rlineto
          -83 112 134 -62 173 hhcurveto
          351 224 252 352 4 hvcurveto
          1 86 rlineto
          159 2 29 114 161 hhcurveto
          1 192 rlineto
          -160 -31 113 159 -3 hvcurveto
          86 vlineto
          352 -227 253 -351 vhcurveto
          endchar
        </CharString>
        <CharString name="bracketleft">
          -955 -275 -21 2387 -20 hstem
          38 381 vstem
          787 1873 rmoveto
          200 -12 -221 18 -218 hhcurveto
          -255 -43 -138 -253 hvcurveto
          -1856 vlineto
          -91 5 142 -49 153 hhcurveto
          229 221 18 222 213 -148 14 -220 hvcurveto
          -1 1454 rlineto
          234 134 19 230 hvcurveto
          endchar
        </CharString>
        <CharString name="bracketright">
          -955 -276 -21 2387 -20 hstem
          400 380 vstem
          32 -79 rmoveto
          -203 11 221 -15 219 hhcurveto
          254 44 138 253 hvcurveto
          -1 1856 rlineto
          91 -4 -144 49 -150 hhcurveto
          -230 -222 -18 -221 -215 149 -13 221 hvcurveto
          1 -1454 rlineto
          -234 -135 -19 -230 hvcurveto
          endchar
        </CharString>
        <CharString name="breve">
          -703 61 310 186 -20 hstem
          68 198 586 198 vstem
          852 557 rmoveto
          -136 -1 -153 -50 -139 hhcurveto
          -137 -149 45 132 -7 hvcurveto
          9 -197 vlineto
          -4 -1 -5 -4 vvcurveto
          -299 5 187 -184 298 hhcurveto
          303 189 188 308 hvcurveto
          endchar
        </CharString>
        <CharString name="brokenbar">
          -1156 -280 -21 2191 -20 hstem
          94 442 vstem
          536 -84 rmoveto
          1 566 rlineto
          84 -4 -106 46 -112 hhcurveto
          -146 -74 -78 -139 hvcurveto
          -2 -564 rlineto
          -83 5 106 -49 111 hhcurveto
          142 78 81 136 hvcurveto
          1 1278 rmoveto
          566 vlineto
          84 -5 -105 46 -112 hhcurveto
          -145 -76 -78 -139 hvcurveto
          -564 vlineto
          -83 5 105 -49 110 hhcurveto
          141 80 81 136 1 hvcurveto
          endchar
        </CharString>
        <CharString name="bullet">
          -668 381 -21 922 -20 hstem
          1062 863 rmoveto
          259 -12 -192 160 -271 hhcurveto
          -299 -238 -153 -297 -283 201 -189 291 297 224 174 298 10 0 11 -1 11 hvcurveto
          endchar
        </CharString>
        <CharString name="c">
          -512 -25 356 778 214 hstem
          920 384 vstem
          57 603 rmoveto
          -377 20 256 -251 392 -45 callsubr
          -256 -61 200 273 153 20 152 125 99 29 -123 -94 2 hvcurveto
          -42 1 32 -24 54 hhcurveto
          170 127 83 105 187 -271 122 -296 42 callsubr
        </CharString>
        <CharString name="c_k">
          1369 -26 357 -311 0 callsubr
          1067 256 551 -20 hstemhm
          992 219 hintmask 00111100
          2110 372 rmoveto
          -1 204 rlineto
          2 80 48 5 hhcurveto
          180 -317 51 -90 -10 -122 92 -51 rlinecurve
          -39 68 90 -5 122 hhcurveto
          188 181 27 184 60 -38 6 -49 5 hvcurveto
          -76 8 -49 24 -33 53 -316 483 rcurveline
          152 104 rlineto
          73 46 212 22 112 44 callsubr
          vhcurveto
          -64 110 -5 -52 vvcurveto
          -28 -14 -15 -23 -16 vhcurveto
          -348 -243 rlineto
          195 14 194 163 vvcurveto
          370 -82 243 -537 -353 -159 -187 -273 -79 12 -85 26 -93 vhcurveto
          111 -79 -117 55 -104 hhcurveto
          -416 -269 -265 -406 hvcurveto
          hintmask 10011100
          -405 262 -273 409 325 256 174 192 35 -14 36 -36 vhcurveto
          -89 -91 -80 -114 hhcurveto
          -241 -65 192 264 146 30 134 139 hvcurveto
          205 -88 -303 213 hhcurveto
          89 52 57 92 103 -74 168 -2 100 hvcurveto
          145 60 72 72 72 78 -78 -155 7 vhcurveto
          -2 -889 rlineto
          -2 -137 -144 59 -97 vvcurveto
          hintmask 01011100
          -1 callgsubr
          246 26 181 91 -142 -50 -6 124 vhcurveto
          endchar
        </CharString>
        <CharString name="caron">
          -823 74 -21 816 -20 hstem
          821 869 rmoveto
          -114 -41 -108 -74 -56 hvcurveto
          -123 -162 -118 162 -54 74 -51 107 -109 1 rlinecurve
          -65 -46 -41 -66 -18 3 -24 9 -22 47 callsubr
          67 -335 248 hhcurveto
          248 67 43 callgsubr
          9 25 3 24 1 20 rlinecurve
          63 -4 -44 39 -64 hhcurveto
          endchar
        </CharString>
        <CharString name="ccedilla">
          -471 -619 204 389 356 -314 -21 1071 256 hstemhm
          762 277 hintmask 10111000
          762 -47 callgsubr
          -721 884 rmoveto
          hintmask 11011000
          -377 20 257 -251 391 -54 callgsubr
          -411 -272 -258 -412 -17 0 -17 2 -17 hvcurveto
          endchar
        </CharString>
        <CharString name="ccircumflex">
          -473 -25 356 736 256 940 -20 hstem
          326 -106 callgsubr
          -292 -844 rmoveto
          -377 20 256 -251 392 -54 callgsubr
          42 callsubr
        </CharString>
        <CharString name="cedilla">
          -1064 -614 204 410 -20 hstem
          455 276 vstem
          455 -276 rmoveto
          -85 -35 -49 -85 -95 -87 46 38 -60 vhcurveto
          -180 vlineto
          -95 5 168 -13 126 hhcurveto
          193 146 108 198 180 -146 93 -150 35 hvcurveto
          -208 hlineto
          87 -59 134 -80 7 -128 rrcurveto
          -10 vlineto
          endchar
        </CharString>
        <CharString name="cent">
          -516 -268 -21 290 -21 hstem
          734 1063 rmoveto
          16 15 -1 -2 14 hvcurveto
          -54 -653 -76 75 -34 126 -3 143 rlinecurve
          151 32 162 92 vhcurveto
          49 -1256 rmoveto
          16 4 65 8 99 vhcurveto
          235 39 230 165 154 vvcurveto
          34 -16 33 -35 vhcurveto
          -85 -91 -80 -117 hhcurveto
          -33 -30 5 9 -30 hvcurveto
          21 212 20 242 17 210 rrcurveto
          -86 97 30 -157 100 hhcurveto
          95 45 62 96 181 -150 139 -191 60 hvcurveto
          10 131 7 86 15 vvcurveto
          37 -34 13 -25 -55 15 3 -263 -24 vhcurveto
          5 -35 -36 3 -37 hhcurveto
          -415 -271 -269 -417 -396 301 -274 382 hvcurveto
          -6 -99 -5 -68 -19 vvcurveto
          -56 33 -27 23 29 19 32 65 vhcurveto
          endchar
        </CharString>
        <CharString name="circumflex">
          -823 64 -21 816 -20 hstem
          176 43 -96 callsubr
          88 callgsubr
          -3 23 -9 23 hvcurveto
          -42 -30 callgsubr
          -75 -69 340 -247 hhcurveto
          -251 -66 -104 callgsubr
          endchar
        </CharString>
        <CharString name="colon">
          -1117 1 -21 1316 -20 hstem
          667 -55 callgsubr
          822 vmoveto
          -3 callsubr
          endchar
        </CharString>
        <CharString name="comma">
          -1171 -351 -21 382 -21 486 -20 hstem
          661 168 -23 callsubr
          26 -26 36 269 193 66 callgsubr
        </CharString>
        <CharString name="commaaccent">
          -1065 -904 -21 845 -20 hstem
          100 -360 rmoveto
          -135 7 116 -69 144 hhcurveto
          -95 -25 -68 -48 -39 vhcurveto
          -29 -24 -44 -25 -50 vvcurveto
          -35 28 -25 35 276 185 230 274 207 -109 134 -211 -183 -141 -101 -181 vhcurveto
          endchar
        </CharString>
        <CharString name="copyright">
          209 -18 200 90 293 768 185 81 201 hstem
          43 240 1417 240 vstem
          1493 1212 rmoveto
          204 -8 -198 102 -212 hhcurveto
          -428 -254 -216 -422 -368 236 -240 376 224 292 93 220 40 -13 49 -38 -33 -19 -36 -19 -26 hvcurveto
          -29 -41 -60 -25 -71 hhcurveto
          -231 -50 220 237 147 27 164 127 hvcurveto
          157 -67 -270 184 hhcurveto
          80 47 53 83 hvcurveto
          5 -1 3 5 vvcurveto
          -500 588 -83 callsubr
          endchar
        </CharString>
        <CharString name="currency">
          -464 186 -21 214 188 629 187 198 -34 callsubr
          94 449 210 450 hintmask 11110110
          100 1473 rmoveto
          -3 -1 -2 -3 vvcurveto
          1 -8 1 -8 3 -7 21 -37 rcurveline
          117 -168 rlineto
          -88 -81 -60 -113 -153 vvcurveto
          -158 66 -126 89 -85 vhcurveto
          -125 -178 -13 -18 -15 -19 1 -29 rlinecurve
          -60 58 -52 67 43 35 25 27 17 vhcurveto
          130 187 rlineto
          -17 54 61 -8 69 hhcurveto
          84 76 12 23 66 hvcurveto
          140 -197 rlineto
          -27 19 33 -25 44 hhcurveto
          63 61 47 60 42 -20 19 -18 25 hvcurveto
          -43 59 -33 53 -48 65 rrcurveto
          82 80 66 121 151 vvcurveto
          149 -54 111 -78 83 vhcurveto
          47 71 51 61 41 76 rrcurveto
          4 9 3 11 12 vvcurveto
          59 -1 -58 52 -70 hhcurveto
          -44 -30 -27 -25 -17 hvcurveto
          -121 -176 rlineto
          20 -57 -64 10 -71 hhcurveto
          -92 -76 -11 -23 -72 hvcurveto
          -37 49 -29 40 -27 44 rrcurveto
          hintmask 11101110
          44 -28 -22 56 -71 hhcurveto
          -69 -60 -51 -60 hvcurveto
          653 -691 rmoveto
          -88 -2 -2 -125 -84 hhcurveto
          -116 -7 263 149 108 17 109 83 96 14 -170 -138 hvcurveto
          -41 -1 -38 -30 vvcurveto
          endchar
        </CharString>
        <CharString name="d">
          -97 -26 254 -234 -21 1095 256 560 -20 hstemhm
          hintmask 10110000
          41 61 callgsubr
          199 138 60 92 99 hvcurveto
          hintmask 01110000
          -92 42 91 -61 137 hhcurveto
          217 242 51 183 89 -142 -44 -6 123 hvcurveto
          5 1390 rlineto
          107 -7 -132 12 -177 17 callgsubr
          140 44 69 callgsubr
          -309 vlineto
          76 -89 -121 45 -167 hhcurveto
          -376 -161 -304 -384 -23 -1 -24 3 -23 hvcurveto
          754 502 rmoveto
          61 56 -31 -24 41 hvcurveto
          -740 vlineto
          hintmask 10110000
          -40 -3 -85 -5 -56 hhcurveto
          -151 -11 194 163 -7 hvcurveto
          -2 44 -3 47 48 vvcurveto
          173 27 171 133 vhcurveto
          endchar
        </CharString>
        <CharString name="dagger">
          -285 19 -21 1890 -20 hstem
          1098 vmoveto
          -123 7 29 -112 105 57 -32 97 88 hhcurveto
          213 -633 hlineto
          18 callgsubr
          77 -119 -41 -6 105 vhcurveto
          1 640 rlineto
          227 hlineto
          89 -37 -97 58 82 callgsubr
          -17 162 -126 hvcurveto
          -58 32 -96 -85 hhcurveto
          -227 201 hlineto
          118 125 -52 84 vvcurveto
          154 -204 24 -181 -183 -203 -24 -154 -78 119 41 6 -105 vhcurveto
          -208 -213 vlineto
          -88 32 96 -55 hhcurveto
          -122 -22 -151 -148 -20 1 -21 1 -20 hvcurveto
          endchar
        </CharString>
        <CharString name="daggerdbl">
          -200 18 -21 1889 -20 hstem
          531 509 vstem
          52 1221 rmoveto
          -123 5 32 -112 104 55 -29 96 86 hhcurveto
          226 -270 -227 hlineto
          -88 33 96 -55 hhcurveto
          -118 -26 -141 -143 -148 17 -163 127 hvcurveto
          55 -30 97 86 hhcurveto
          213 hlineto
          1 -84 rlineto
          18 callgsubr
          79 -119 -44 -6 112 vhcurveto
          -1 84 rlineto
          227 hlineto
          89 -34 -97 57 hhcurveto
          119 24 146 145 146 -19 157 -124 hvcurveto
          -58 31 -96 -85 hhcurveto
          -240 270 241 hlineto
          88 -37 -96 59 82 callgsubr
          -16 162 -128 hvcurveto
          -57 33 -96 -86 hhcurveto
          -227 hlineto
          -1 78 -2 118 128 -51 -1 82 rlinecurve
          154 -3 -198 25 -184 hhcurveto
          -183 -203 -24 -154 -79 119 43 6 -112 hvcurveto
          1 -78 rlineto
          -213 hlineto
          -88 31 96 -55 hhcurveto
          -119 -24 -145 -146 -23 1 -23 1 -23 hvcurveto
          endchar
        </CharString>
        <CharString name="degree">
          -763 798 54 callsubr
          hstem
          32 274 359 283 vstem
          487 1014 rmoveto
          -104 -71 61 104 -6 hvcurveto
          121 64 72 118 109 66 -67 -110 2 vhcurveto
          -115 -71 -66 -107 40 callsubr
          -254 -204 -134 -260 -262 22 callsubr
          endchar
        </CharString>
        <CharString name="dieresis">
          -205 83 74 callsubr
          669 325 -38 callgsubr
          -157 -52 callgsubr
          172 114 -69 callsubr
          -157 -129 -50 callgsubr
          171 114 87 178 hvcurveto
          endchar
        </CharString>
        <CharString name="divide">
          -770 145 -21 505 196 503 -20 hstem
          285 493 vstem
          777 340 rmoveto
          -2 13 rlineto
          129 -7 -101 74 -137 hhcurveto
          -138 -107 -79 -135 -139 101 -79 144 141 104 78 138 3 hvcurveto
          772 vmoveto
          -1 13 rlineto
          129 -5 -106 74 -135 hhcurveto
          -139 -106 -80 -136 -138 104 -78 142 141 103 78 138 3 hvcurveto
          -634 -483 rmoveto
          92 callgsubr
          94 62 3 96 93 -64 4 -93 hvcurveto
          91 callsubr
          -89 -58 -10 -88 -94 54 -4 93 hvcurveto
          endchar
        </CharString>
        <CharString name="dollar">
          -353 -246 -21 248 281 1352 -20 278 -20 hstemhm
          2 402 -374 374 -374 491 438 437 -380 449 hintmask 1111010100000000
          718 1613 rmoveto
          -381 -27 -307 -156 -328 vvcurveto
          -337 347 -109 256 -90 vhcurveto
          -25 -295 -106 16 -96 42 -2 42 rlinecurve
          139 -6 -62 43 -141 hhcurveto
          hintmask 1111100010000000
          -118 -75 -25 -117 -287 289 -114 294 -24 hvcurveto
          -19 -215 rlineto
          -23 2 27 -15 15 hhcurveto
          31 44 64 184 13 hvcurveto
          396 371 83 398 381 -391 67 -289 106 hvcurveto
          10 120 9 115 9 104 rrcurveto
          106 -13 97 -27 -17 vvcurveto
          hintmask 1111001100000000
          -63 -57 15 -75 vvcurveto
          -89 94 -49 101 117 125 62 140 258 -355 117 -208 vhcurveto
          9 85 3 59 19 vvcurveto
          65 -28 30 -27 -27 -27 -28 -55 vhcurveto
          -35 -429 rmoveto
          -26 -298 -90 45 -60 56 -4 85 rlinecurve
          79 75 29 104 3 vhcurveto
          22 -1098 rmoveto
          7 76 7 87 7 95 rrcurveto
          82 -37 62 -40 -57 vvcurveto
          -84 -68 -34 -97 -5 vhcurveto
          endchar
        </CharString>
        <CharString name="dotaccent">
          -1029 143 74 callsubr
          726 383 -10 callsubr
          -166 -161 -6 callgsubr
          148 79 182 hvcurveto
          endchar
        </CharString>
        <CharString name="dotlessi">
          -780 21 -21 1296 -20 hstem
          230 915 -61 callgsubr
          93 98 callsubr
          -66 callsubr
        </CharString>
        <CharString name="e">
          -500 -4 -21 1094 256 hstem
          979 339 vstem
          660 823 -69 callgsubr
          -242 177 -322 hhcurveto
          -411 -274 33 callgsubr
          263 -291 407 300 183 132 213 84 hvcurveto
          22 46 -36 65 -43 -18 -145 -60 -423 -164 -9 477 rrcurveto
          -51 callsubr
        </CharString>
        <CharString name="eacute">
          -364 -26 53 callsubr
          952 -34 callsubr
          926 339 hintmask 11011000
          1072 -104 callsubr
          hintmask 11101000
          -4 callgsubr
          hintmask 11011000
          -464 -1454 -69 callgsubr
          -241 177 -323 hhcurveto
          -411 -273 33 callgsubr
          261 -291 408 -97 callsubr
        </CharString>
        <CharString name="ecircumflex">
          -455 -25 53 callsubr
          938 -20 hstem
          956 339 vstem
          330 -106 callgsubr
          308 -624 -75 callsubr
        </CharString>
        <CharString name="edieresis">
          -250 -23 53 callsubr
          616 -20 hstem
          106 476 451 339 vstem
          582 -105 callgsubr
          -730 -888 -75 callsubr
        </CharString>
        <CharString name="egrave">
          -458 -26 53 callsubr
          952 -20 hstem
          994 339 vstem
          23 -94 callgsubr
          652 -1212 -69 callgsubr
          -241 177 -323 -88 callsubr
        </CharString>
        <CharString name="eight">
          -361 -22 288 1105 248 hstemhm
          58 391 -358 494 396 328 hintmask 11101000
          553 612 rmoveto
          140 -62 206 -28 7 -93 rrcurveto
          -114 -124 -49 -122 -106 -100 56 98 -5 vhcurveto
          72 53 71 50 49 vhcurveto
          320 429 rmoveto
          hintmask 11011000
          -207 52 -80 80 86 vvcurveto
          101 93 11 107 99 92 -35 -82 5 vhcurveto
          -92 -101 -120 -7 vhcurveto
          436 206 rmoveto
          259 -13 -285 112 -270 hhcurveto
          -336 -314 -143 -341 -195 80 -118 114 -84 hvcurveto
          hintmask 11101000
          -112 -60 -115 -93 -165 vvcurveto
          -310 335 -132 317 386 362 99 383 235 -129 131 -169 91 vhcurveto
          82 79 67 99 153 vvcurveto
          endchar
        </CharString>
        <CharString name="ellipsis">
          621 1 74 callsubr
          2357 253 -73 callgsubr
          -1597 12 -73 callgsubr
          801 12 -73 callgsubr
          endchar
        </CharString>
        <CharString name="emdash">
          127 446 342 hstem
          1672 446 rmoveto
          105 62 59 109 112 -59 62 -107 hvcurveto
          -1411 hlineto
          -105 -66 -61 -110 -109 65 -62 105 hvcurveto
          endchar
        </CharString>
        <CharString name="endash">
          -464 447 341 hstem
          1251 632 rmoveto
          12 vlineto
          93 -4 -56 51 -99 hhcurveto
          -826 hlineto
          -106 -72 -67 -113 -103 57 -58 103 hvcurveto
          826 hlineto
          113 63 65 121 hvcurveto
          endchar
        </CharString>
        <CharString name="equal">
          -764 198 196 140 196 hstem
          1037 307 rmoveto
          85 -4 -62 2 -90 hhcurveto
          91 callsubr
          -88 -60 -10 -86 -96 53 -4 94 hvcurveto
          92 callgsubr
          101 55 3 105 hvcurveto
          337 vmoveto
          85 -4 82 callsubr
          -87 -94 53 -4 93 73 callgsubr
        </CharString>
        <CharString name="eth">
          -203 -50 266 574 284 543 -20 39 -20 hstemhm
          hintmask 11010000
          1048 1441 rmoveto
          39 25 rlineto
          31 20 47 23 39 vvcurveto
          37 -34 51 -39 -32 -26 -23 -15 -23 vhcurveto
          -123 -78 rlineto
          hintmask 11100000
          60 -148 -169 37 -207 hhcurveto
          -68 -44 -45 -67 -145 214 -4 110 -40 hvcurveto
          -44 -27 rlineto
          -31 -22 -41 -19 -44 vvcurveto
          -36 4 32 -47 36 hhcurveto
          32 26 22 16 25 hvcurveto
          119 77 rlineto
          7 11 10 3 10 hhcurveto
          69 59 -157 -96 29 hvcurveto
          48 -96 -101 33 -128 hhcurveto
          -319 -224 -219 -314 -399 328 -192 407 443 313 233 436 397 -239 269 -256 155 hvcurveto
          -90 -660 rmoveto
          -49 1 -58 -59 59 callsubr
          -15 -208 -138 -119 -37 124 123 128 43 199 125 vhcurveto
          27 39 5 31 hhcurveto
          25 17 -3 -12 hvcurveto
          endchar
        </CharString>
        <CharString name="exclam">
          -1095 1 -21 1684 -20 hstem
          667 -55 callgsubr
          -638 1140 rmoveto
          -233 12 162 -581 143 hhcurveto
          178 23 139 152 33 hvcurveto
          30 156 60 184 188 vvcurveto
          204 -117 74 -208 -207 -108 -77 -205 vhcurveto
          endchar
        </CharString>
        <CharString name="exclamdown">
          -938 1 -21 1684 -20 hstem
          714 253 -73 callgsubr
          -578 1140 rmoveto
          -232 4 123 -582 147 hhcurveto
          179 29 139 152 41 hvcurveto
          37 158 82 195 194 vvcurveto
          189 -110 70 -202 -200 -128 -77 -205 -2 vhcurveto
          endchar
        </CharString>
        <CharString name="f">
          -629 21 89 callsubr
          65 callsubr
          hintmask 11101100
          -55 callsubr
          hintmask 11110100
          -51 callgsubr
          endchar
        </CharString>
        <CharString name="f_j">
          579 -339 223 137 89 callsubr
          4 -20 65 callsubr
          626 493 hintmask 1111001110000000
          -55 callsubr
          hintmask 1110110110000000
          -51 callgsubr
          1419 358 -102 callgsubr
        </CharString>
        <CharString name="f_u">
          1070 -24 254 -228 228 -210 -21 1098 200 563 -20 hstemhm
          902 451 -214 214 hintmask 01011100
          781 1566 rmoveto
          -22 callsubr
          -55 hlineto
          -67 -29 -27 -66 -75 25 -31 71 27 callsubr
          -2 -137 -144 59 -97 vvcurveto
          5 callgsubr
          -17 192 214 246 48 callgsubr
          124 vhcurveto
          -1 726 rlineto
          186 hlineto
          hintmask 10011010
          98 7 -8 -147 hvcurveto
          -161 -20 -153 -136 vvcurveto
          -303 84 -213 432 221 160 90 119 103 vhcurveto
          hintmask 00111100
          -31 callgsubr
          191 255 19 187 93 -139 -54 -6 123 hvcurveto
          -1 793 rlineto
          -31 callsubr
          -213 -246 -26 -180 -94 140 52 6 -124 hvcurveto
          -2 -545 rlineto
          hintmask 10011100
          -94 -75 -56 -96 -185 -9 153 197 vhcurveto
          80 4 74 75 vvcurveto
          199 vlineto
          225 -12 -125 65 -249 hhcurveto
          -516 79 callsubr
          endchar
        </CharString>
        <CharString name="ff">
          664 25 0 callsubr
          1095 201 389 172 hstemhm
          238 387 1292 451 hintmask 10111100
          2054 78 callsubr
          -106 hlineto
          -2 93 -200 121 85 vvcurveto
          69 49 25 63 61 72 -23 -27 44 -11 callgsubr
          125 90 74 124 75 callgsubr
          -255 -255 -170 -87 -157 -97 vhcurveto
          188 -46 -217 56 -234 hhcurveto
          -374 34 callsubr
          hvcurveto
          -32 callgsubr
          -137 -144 61 -95 vvcurveto
          13 callgsubr
          408 -717 vlineto
          -2 -137 -144 61 -95 vvcurveto
          hintmask 01111100
          13 callgsubr
          98 vlineto
          76 20 35 80 hvcurveto
          -1158 311 rmoveto
          -120 7 101 -56 128 hhcurveto
          55 41 13 20 32 hvcurveto
          -2 -23 -2 -24 -25 -3 0 -4 -4 vvcurveto
          -422 hlineto
          -5 93 -206 99 78 vvcurveto
          71 74 25 83 51 54 -10 -15 35 vhcurveto
          -18 -37 -5 -33 -46 vvcurveto
          endchar
        </CharString>
        <CharString name="fi">
          160 17 0 callsubr
          1103 197 431 190 hstemhm
          226 399 585 504 hintmask 01111100
          791 348 rmoveto
          752 372 -727 vlineto
          -133 -101 60 -94 vvcurveto
          -189 207 -20 200 214 235 25 180 92 -138 -48 -10 127 vhcurveto
          782 vlineto
          117 -5 -202 25 -267 hhcurveto
          -470 -201 116 133 109 116 73 200 102 115 -4 -88 114 hvcurveto
          81 callsubr
          128 150 122 65 149 301 -380 59 -317 -437 -354 -182 -440 vhcurveto
          -56 hlineto
          -63 -33 -51 -50 -50 30 -50 66 hvcurveto
          50 -719 hlineto
          -137 -145 61 -95 vvcurveto
          hintmask 10111100
          -190 247 -19 200 216 212 25 184 86 -112 -46 -6 103 vhcurveto
          endchar
        </CharString>
        <CharString name="five">
          -571 -24 279 1016 321 143 -20 hstem
          1239 1622 rmoveto
          68 -4 -47 45 -68 hhcurveto
          -10 -8 -4 -7 -6 hvcurveto
          -121 -102 -220 -11 -235 hhcurveto
          -201 hlineto
          -177 -809 224 -21 296 -61 4 -222 rlinecurve
          -142 -125 -82 -143 -114 -101 25 41 -73 vhcurveto
          6 -12 -9 4 -14 hhcurveto
          -35 -28 -54 -38 hvcurveto
          1 -9 5 -10 9 -10 rrcurveto
          -136 127 192 -98 261 hhcurveto
          342 238 180 346 386 -310 192 -398 hvcurveto
          -47 hlineto
          -16 -16 -1 -1 -17 hvcurveto
          42 193 rlineto
          551 hlineto
          162 80 153 169 hvcurveto
          9 0 9 76 callsubr
        </CharString>
        <CharString name="four">
          -327 19 -21 423 350 845 -20 hstem
          1229 378 rmoveto
          4 2 4 5 vvcurveto
          -2 33 rlineto
          8 hlineto
          163 100 4 158 182 -90 3 -173 hvcurveto
          -8 hlineto
          2 602 rlineto
          232 -13 -273 11 -280 hhcurveto
          -576 -807 rlineto
          -43 -60 -18 -73 -99 vvcurveto
          -143 79 -13 138 vhcurveto
          417 hlineto
          2 -37 rlineto
          -2 -134 -146 51 -94 vvcurveto
          -167 255 -42 172 174 259 43 171 85 -143 -45 -6 123 vhcurveto
          -539 843 rmoveto
          -449 -323 vlineto
          96 149 98 155 104 145 rrcurveto
          endchar
        </CharString>
        <CharString name="fraction">
          -197 47 -21 1823 -34 callsubr
          hintmask 11000000
          1331 1849 rmoveto
          -126 -44 -76 -73 -57 hvcurveto
          -344 -440 -354 -453 -344 -438 rrcurveto
          -27 -34 -28 -43 -58 vvcurveto
          -112 124 -96 117 121 45 82 72 57 vhcurveto
          343 431 365 452 331 441 rrcurveto
          26 35 29 38 57 vvcurveto
          hintmask 10100000
          114 -113 102 -121 vhcurveto
          endchar
        </CharString>
        <CharString name="g">
          -208 -577 262 731 270 339 233 -189 256 82 -20 hstemhm
          124 323 417 475 -333 474 hintmask 11101110
          1339 901 rmoveto
          -1 63 -34 69 0 vvcurveto
          0 49 -8 68 102 65 82 125 108 -66 67 -101 -10 -12 -1 -1 -11 vhcurveto
          -114 -26 -67 -33 -93 hhcurveto
          hintmask 11011101
          -132 -184 67 -196 hhcurveto
          -347 -303 -109 -331 -197 113 -117 135 -67 hvcurveto
          -137 -38 -71 -65 -167 vvcurveto
          -116 68 -76 72 -53 vhcurveto
          -45 -34 -51 -50 -80 vvcurveto
          -343 373 -59 346 345 292 118 351 403 -255 23 -455 vhcurveto
          -30 -67 -9 -56 hhcurveto
          -48 -27 5 19 hvcurveto
          -5 95 rlineto
          -8 52 143 -4 53 hhcurveto
          hintmask 11101110
          330 224 162 323 hvcurveto
          -891 -989 rmoveto
          hintmask 11101101
          108 -16 444 27 6 -109 rrcurveto
          -108 -105 -21 -118 -209 -119 29 197 -8 vhcurveto
          268 1159 rmoveto
          hintmask 11011110
          95 54 -95 -100 -100 -39 -89 -97 -95 -50 127 98 94 38 64 94 hvcurveto
          endchar
        </CharString>
        <CharString name="germandbls">
          198 -57 317 -239 -21 788 173 436 196 hstemhm
          hintmask 10110000
          1462 -57 rmoveto
          285 205 151 280 312 -233 209 -300 20 hvcurveto
          149 26 142 87 172 vvcurveto
          286 -352 107 -306 -382 -307 -62 -279 -91 vhcurveto
          -35 -109 -6 -125 -144 vvcurveto
          -454 vlineto
          -1 -150 -158 61 -102 vvcurveto
          hintmask 01110000
          -66 callgsubr
          219 236 271 27 199 103 -157 -55 -7 137 vhcurveto
          3 726 rlineto
          11 0 11 11 vvcurveto
          108 12 119 103 104 56 -125 -110 -111 -42 -90 -110 -53 -22 -37 -53 -46 22 -37 50 180 119 -110 -176 3 vhcurveto
          hintmask 10110000
          -106 -35 -136 -110 -55 -28 -43 -63 -151 193 -60 163 vhcurveto
          endchar
        </CharString>
        <CharString name="grave">
          -1021 82 -21 829 -20 hstem
          12 649 rmoveto
          8 -182 204 -121 114 -81 -25 callgsubr
          56 41 50 58 106 -83 94 -49 76 hvcurveto
          141 -91 -96 304 -216 hhcurveto
          -139 -98 -103 -139 hvcurveto
          endchar
        </CharString>
        <CharString name="greater">
          -887 7 -21 1307 -20 hstem
          26 1139 rmoveto
          7 -143 166 -107 119 -95 195 -156 rcurveline
          -195 -156 rlineto
          -117 -93 -176 -111 -150 vvcurveto
          -84 54 -58 86 123 74 83 59 72 vhcurveto
          314 255 rlineto
          77 62 105 54 138 vvcurveto
          141 -102 53 -81 65 vhcurveto
          -315 255 rlineto
          59 -70 -75 83 -123 hhcurveto
          -92 -46 -63 -90 hvcurveto
          endchar
        </CharString>
        <CharString name="guillemotleft">
          205 125 0 callsubr
          1063 -34 callsubr
          hintmask 01010000
          1013 259 rmoveto
          -5 135 -201 88 -107 23 callgsubr
          84 -53 59 -86 -43 callgsubr
          887 hmoveto
          -5 134 -200 89 -108 23 callgsubr
          hintmask 10100000
          84 -53 59 -86 -2 callsubr
          -96 -56 -62 -69 -145 vvcurveto
          -218 137 -57 158 -68 -7 callsubr
          91 48 64 89 hvcurveto
          endchar
        </CharString>
        <CharString name="guillemotright">
          -2 7 -21 22 0 callsubr
          1304 -34 callsubr
          hintmask 10010000
          249 -14 rmoveto
          185 170 185 95 116 hvcurveto
          103 84 191 118 172 vvcurveto
          171 -191 117 -102 84 vhcurveto
          94 -114 -174 186 -183 hhcurveto
          -80 -59 -57 -81 -68 40 -40 40 -45 hvcurveto
          64 -71 73 -61 77 -74 41 callgsubr
          -39 -41 -41 -45 -63 vvcurveto
          hintmask 01010000
          -84 55 -58 85 vhcurveto
          hintmask 10010000
          hintmask 01001000
          745 hmoveto
          91 callgsubr
          hvcurveto
          104 84 191 120 172 vvcurveto
          168 -195 119 -100 83 vhcurveto
          94 -113 -177 186 -181 hhcurveto
          -80 -58 -56 -82 -68 39 -40 41 -45 hvcurveto
          64 -72 73 -60 77 -74 162 -156 rcurveline
          -162 -156 -76 -73 -74 -63 -63 -69 rlinecurve
          -39 -43 -41 -43 -63 vvcurveto
          hintmask 00110000
          -84 54 -58 85 vhcurveto
          endchar
        </CharString>
        <CharString name="guilsinglleft">
          -723 126 -21 1064 -20 hstem
          979 259 rmoveto
          -5 135 -208 74 -100 56 -205 115 rcurveline
          205 115 rlineto
          101 54 212 78 140 vvcurveto
          84 -54 59 -85 -43 callgsubr
          endchar
        </CharString>
        <CharString name="guilsinglright">
          -792 7 -21 1306 -20 hstem
          103 1141 rmoveto
          5 -142 198 -121 89 -84 41 callgsubr
          -40 -42 -40 -41 -66 vvcurveto
          -85 56 -57 85 91 callgsubr
          vhcurveto
          103 84 191 116 175 vvcurveto
          170 -193 117 -101 84 vhcurveto
          94 -113 -176 186 -182 hhcurveto
          -91 -48 -62 -89 hvcurveto
          endchar
        </CharString>
        <CharString name="h">
          66 20 -21 1070 255 561 -20 hstem
          826 351 rmoveto
          572 vlineto
          52 2 75 94 104 hhcurveto
          133 35 -81 -123 5 hvcurveto
          1 -476 rlineto
          -2 -128 -98 38 -90 59 callsubr
          197 -20 200 211 216 26 179 92 -115 -50 -7 109 vhcurveto
          -2 28 0 27 27 151 21 126 124 vvcurveto
          268 -90 218 -402 -208 -165 -68 -136 -109 vhcurveto
          2 659 rlineto
          96 -4 -141 10 -169 hhcurveto
          -214 -234 -28 -183 -86 140 44 69 callgsubr
          -1 -1132 10 callsubr
          99 callgsubr
          -178 239 -28 208 51 callgsubr
          -113 -45 -6 102 vhcurveto
          endchar
        </CharString>
        <CharString name="hbar">
          158 21 -21 1069 256 29 196 336 -20 hstem
          247 1354 rmoveto
          92 callgsubr
          91 65 3 90 99 -58 4 -99 hvcurveto
          91 callsubr
          -89 -58 -10 -90 -92 56 -4 91 hvcurveto
          1258 -1354 rmoveto
          212 245 26 180 51 -38 5 -38 10 hvcurveto
          -47 11 -26 36 -3 59 rrcurveto
          5 1 5 5 vvcurveto
          316 vlineto
          366 -6 -118 250 -374 hhcurveto
          -208 -150 -69 -105 -99 hvcurveto
          3 502 rlineto
          93 callsubr
          -3 -122 2 -187 hhcurveto
          -211 -236 -29 -180 -49 34 -5 38 -8 hvcurveto
          46 -11 24 -34 3 -55 rrcurveto
          -1135 vlineto
          -1 -159 -144 86 -98 vvcurveto
          -181 234 -28 212 67 callsubr
          52 -36 3 -38 9 vhcurveto
          -46 11 -25 34 -4 58 rrcurveto
          620 vlineto
          36 36 52 40 72 hhcurveto
          160 32 -112 -160 3 hvcurveto
          -408 vlineto
          -165 -151 84 -99 59 callsubr
          249 -19 199 vhcurveto
          endchar
        </CharString>
        <CharString name="hungarumlaut">
          -288 164 -21 830 -20 hstem
          549 973 rmoveto
          -150 -74 -182 -108 -54 hvcurveto
          -62 -123 -138 -150 -161 vvcurveto
          -49 33 -57 54 83 76 81 61 75 vhcurveto
          124 101 241 144 213 vvcurveto
          123 -82 107 -126 vhcurveto
          704 hmoveto
          -166 -103 -178 -112 -70 hvcurveto
          -80 -119 -179 -162 -8 -162 rrcurveto
          -6 vlineto
          -47 4 34 -44 50 hhcurveto
          107 93 90 53 80 hvcurveto
          145 103 308 138 235 vvcurveto
          124 -88 87 -125 vhcurveto
          endchar
        </CharString>
        <CharString name="hyphen">
          -638 447 341 hstem
          1163 632 rmoveto
          101 -4 -60 55 -103 hhcurveto
          -826 hlineto
          -104 -65 -62 -110 -107 66 -62 103 hvcurveto
          826 hlineto
          106 62 58 110 6 0 5 -1 7 hvcurveto
          endchar
        </CharString>
        <CharString name="i">
          -910 23 -21 1886 -20 hstem
          815 1654 -37 callgsubr
          -37 callsubr
        </CharString>
        <CharString name="iacute">
          -539 20 -21 2277 9 callgsubr
          922 -104 callsubr
          hintmask 11000000
          -4 callgsubr
          hintmask 10100000
          -750 -1362 -52 callsubr
        </CharString>
        <CharString name="icircumflex">
          -750 21 -21 2263 -20 hstem
          182 -106 callgsubr
          22 -532 -61 callgsubr
          93 98 callsubr
          -66 callsubr
        </CharString>
        <CharString name="idieresis">
          -277 23 -21 1941 -20 hstem
          270 300 293 164 vstem
          570 -49 callgsubr
          -159 -126 -84 -165 -161 128 -85 156 -101 callgsubr
          -1018 -796 rmoveto
          1 -534 rlineto
          -138 -145 59 -95 vvcurveto
          -188 250 -19 196 218 242 26 183 89 -142 -47 -6 123 vhcurveto
          -1 722 rlineto
          187 -8 -94 13 -209 26 callgsubr
          -94 139 49 97 callsubr
          endchar
        </CharString>
        <CharString name="igrave">
          -708 20 -21 2277 -20 hstem
          -21 2035 rmoveto
          11 -183 200 -91 callgsubr
          -96 29 callgsubr
          366 -1120 -52 callsubr
        </CharString>
        <CharString name="iogonek">
          -789 -711 219 2380 -20 hstemhm
          82 265 -218 218 hintmask 11100000
          634 -46 callsubr
          284 1630 -37 callgsubr
          hintmask 11010000
          -37 callsubr
        </CharString>
        <CharString name="itilde">
          -342 22 -21 1571 2 callgsubr
          hstem
          419 1 callsubr
          -67 hvcurveto
          121 -99 callsubr
          -48 -1090 rmoveto
          -1 -534 10 callsubr
          61 -98 vvcurveto
          -186 253 -19 193 97 callgsubr
          180 93 98 callsubr
          126 vhcurveto
          -1 722 rlineto
          187 -8 -94 13 -209 26 callsubr
          -96 138 51 6 -123 hvcurveto
          endchar
        </CharString>
        <CharString name="j">
          -913 -339 223 2004 -20 hstem
          364 493 vstem
          870 1654 -102 callgsubr
        </CharString>
        <CharString name="jcircumflex">
          -772 -339 223 2942 -20 hstem
          395 493 vstem
          127 2010 rmoveto
          111 47 107 75 55 -40 callgsubr
          rlineto
          -74 55 47 -108 111 hhcurveto
          65 47 88 callgsubr
          -4 23 -9 23 hvcurveto
          -41 -30 callgsubr
          -73 -71 340 -248 hhcurveto
          -248 -69 -80 callgsubr
          -8 -21 -3 -20 -17 vvcurveto
          -71 40 -42 70 vhcurveto
          775 -356 -102 callgsubr
        </CharString>
        <CharString name="k">
          36 86 callsubr
          1884 95 callsubr
          1877 224 rmoveto
          -4 46 -39 7 -44 5 -76 7 -52 20 -29 58 -87 callgsubr
          hintmask 01100000
          -209 106 -44 -98 348 hhcurveto
          200 201 29 195 hvcurveto
          endchar
        </CharString>
        <CharString name="kcommaaccent">
          37 84 callsubr
          648 0 callsubr
          1884 -20 hstemhm
          620 339 hintmask 11101100
          1263 -81 callgsubr
          602 653 rmoveto
          -4 46 -39 7 -44 5 -74 7 -54 21 -29 57 -87 callgsubr
          hintmask 11011100
          -210 107 -44 -97 349 hhcurveto
          199 200 29 195 hvcurveto
          endchar
        </CharString>
        <CharString name="kgreenlandic">
          160 21 -21 1295 -20 hstem
          1006 1080 rmoveto
          -2 11 rlineto
          178 -8 -230 26 -219 hhcurveto
          -40 callsubr
          hvcurveto
          2 -8 -1 -533 10 callsubr
          61 -98 vvcurveto
          -41 callgsubr
          180 93 -142 -50 -6 127 vhcurveto
          177 vlineto
          46 -1 35 -3 16 -24 149 -218 rcurveline
          55 -86 -11 -127 90 -50 rrcurveto
          -39 68 88 -5 123 hhcurveto
          188 200 27 186 56 -38 7 -49 5 hvcurveto
          -74 7 -47 25 64 callgsubr
          69 59 215 10 111 vvcurveto
          149 -157 13 -156 -140 -197 -20 -143 vhcurveto
          -66 110 -2 -54 vvcurveto
          -26 -16 -13 -21 -17 vhcurveto
          -251 -206 rlineto
          -25 -26 -17 -8 -54 hhcurveto
          195 vlineto
          136 148 -51 -1 85 vhcurveto
          endchar
        </CharString>
        <CharString name="l">
          -866 21 -21 1886 -20 hstem
          833 350 rmoveto
          1 1409 rlineto
          116 -5 -131 11 -174 hhcurveto
          -197 -270 -20 -191 -87 160 46 97 callsubr
          -1131 vlineto
          -2 -140 -143 99 callgsubr
          5 callgsubr
          -19 193 214 214 26 183 86 -112 -45 -6 102 vhcurveto
          endchar
        </CharString>
        <CharString name="less">
          -887 6 -21 1307 -20 hstem
          889 139 rmoveto
          -8 141 -166 110 -118 93 -197 156 rcurveline
          197 156 rlineto
          119 94 172 110 151 vvcurveto
          84 -53 58 -86 -123 -74 -83 -59 -73 vhcurveto
          -313 -255 rlineto
          -79 -63 -101 -55 -138 vvcurveto
          -139 103 -55 78 -63 vhcurveto
          314 -255 rlineto
          -58 71 74 -84 122 hhcurveto
          93 48 60 93 hvcurveto
          endchar
        </CharString>
        <CharString name="logicalnot">
          -710 254 -21 356 196 hstem
          800 197 vstem
          -19 676 rmoveto
          -83 4 51 -4 89 hhcurveto
          675 -282 hlineto
          -47 2 32 -27 64 hhcurveto
          94 3 55 92 2 hvcurveto
          333 vlineto
          47 -4 -38 25 -68 hhcurveto
          -760 hlineto
          -99 -46 -11 -98 hvcurveto
          endchar
        </CharString>
        <CharString name="lslash">
          -547 19 -21 1887 -20 hstem
          47 951 rmoveto
          -17 16 19 -5 21 hhcurveto
          28 33 10 7 25 hvcurveto
          883 236 rlineto
          65 17 66 14 66 vvcurveto
          83 -48 25 -42 -27 -32 -8 -8 -31 vhcurveto
          -883 -236 rlineto
          -63 -19 -58 -13 -69 vvcurveto
          -34 12 -32 17 -18 vhcurveto
          105 719 rmoveto
          4 -43 33 -5 35 -8 46 -11 24 -33 3 -56 rrcurveto
          -1135 vlineto
          -1 -160 -144 88 -100 vvcurveto
          -189 250 -19 197 67 callsubr
          51 -36 5 -38 9 vhcurveto
          -45 11 -25 34 -3 58 rrcurveto
          1280 vlineto
          93 callsubr
          -125 2 -185 -202 -245 -21 -194 vhcurveto
          endchar
        </CharString>
        <CharString name="m">
          885 86 callsubr
          1066 258 hstemhm
          hintmask 10100000
          907 222 rmoveto
          -4 64 -81 -28 -4 78 rrcurveto
          561 vlineto
          88 1 64 82 88 hhcurveto
          101 29 -70 -104 5 hvcurveto
          -512 vlineto
          -2 -120 -69 32 -88 vvcurveto
          -182 204 -23 189 192 171 20 189 77 -77 -30 -4 76 vhcurveto
          -1 588 rlineto
          88 2 36 61 88 hhcurveto
          111 33 -94 -111 5 hvcurveto
          1 -483 rlineto
          -117 -70 28 -83 vvcurveto
          -186 199 -23 194 195 187 22 191 83 -95 -38 -4 97 vhcurveto
          -1 16 -1 17 16 92 5 90 98 vvcurveto
          384 -89 257 -385 -234 -144 -89 -104 -78 vhcurveto
          115 -56 -136 78 -154 hhcurveto
          -197 -171 -53 -152 -128 hvcurveto
          160 -38 -164 16 -125 hhcurveto
          -187 -242 -22 -183 -41 callsubr
          -132 -124 56 -101 vvcurveto
          hintmask 01100000
          -182 225 -22 190 222 189 30 192 vhcurveto
          endchar
        </CharString>
        <CharString name="macron">
          -465 81 -21 443 -20 hstem
          1270 302 rmoveto
          131 -6 -77 66 callsubr
          -135 -83 -79 -141 -142 79 -81 138 71 callgsubr
          endchar
        </CharString>
        <CharString name="minus">
          -603 556 196 hstem
          1107 665 rmoveto
          85 -5 82 callsubr
          -89 -92 56 -4 91 73 callgsubr
        </CharString>
        <CharString name="multiply">
          -624 253 -21 991 -20 hstem
          1079 398 rmoveto
          -2 8 -2 43 -25 37 -23 24 rlinecurve
          -218 217 219 219 rlineto
          25 25 27 35 46 vvcurveto
          83 -80 88 -85 -49 -39 -29 -25 -25 vhcurveto
          -217 -217 -220 219 rlineto
          25 -25 -38 27 -47 hhcurveto
          -86 -80 -83 -84 -46 28 -40 24 -24 hvcurveto
          219 -219 -219 -219 -25 -25 -26 -36 1 -48 rlinecurve
          -84 75 -83 87 47 40 26 26 26 vhcurveto
          218 217 218 -217 24 -25 35 -26 49 1 rlinecurve
          84 80 79 84 2 hvcurveto
          endchar
        </CharString>
        <CharString name="n">
          107 20 24 callgsubr
          hstemhm
          hintmask 10010000
          816 355 -33 callgsubr
          -41 -6 121 6 callsubr
          -119 vhcurveto
          hintmask 01100000
          141 -7 -177 -53 callgsubr
          234 -19 194 51 callgsubr
          -115 -48 -6 107 vhcurveto
          endchar
        </CharString>
        <CharString name="nacute">
          107 19 24 callgsubr
          953 -34 callsubr
          hintmask 10100100
          1384 -104 callsubr
          hintmask 10101000
          -4 callgsubr
          hintmask 10010100
          -624 -1922 -33 callgsubr
          -42 -6 122 6 callsubr
          -118 vhcurveto
          hintmask 01100100
          141 -10 -175 -53 callgsubr
          234 -19 194 51 callgsubr
          -115 -48 -6 107 vhcurveto
          endchar
        </CharString>
        <CharString name="nine">
          -284 -27 -21 542 280 578 266 hstem
          804 1352 rmoveto
          139 14 -206 -190 hvcurveto
          -60 -1 -59 -49 vvcurveto
          -11 -1 -21 -3 -27 -31 -37 4 -23 hhcurveto
          -122 -44 187 130 -3 hvcurveto
          128 34 129 122 vhcurveto
          -750 -360 rmoveto
          -296 13 219 -202 307 hhcurveto
          129 101 32 49 95 hvcurveto
          -71 -225 -217 -96 -235 -56 rrcurveto
          -79 -19 -68 -24 -88 vvcurveto
          -69 42 -46 71 503 355 217 316 188 vhcurveto
          77 129 57 153 191 vvcurveto
          428 -320 232 -436 -401 -332 -187 -399 vhcurveto
          -13 1 -14 -13 vvcurveto
          endchar
        </CharString>
        <CharString name="nonmarkingreturn">
          endchar
        </CharString>
        <CharString name="ntilde">
          152 21 24 callgsubr
          247 2 callgsubr
          hstemhm
          hintmask 10011100
          720 -90 callgsubr
          85 -1650 -27 callsubr
          -134 -98 60 -104 vvcurveto
          -184 204 -20 194 32 callsubr
          -42 69 callsubr
          -4 39 1 -8 callsubr
          -179 -64 -143 -118 vhcurveto
          hintmask 01101100
          141 -7 -177 -53 callgsubr
          233 -19 193 52 callgsubr
          -115 -50 -6 107 vhcurveto
          endchar
        </CharString>
        <CharString name="numbersign">
          166 -102 0 callsubr
          538 268 342 269 600 -34 callsubr
          hintmask 01111000
          1720 1696 rmoveto
          130 -5 -114 69 -140 hhcurveto
          -113 -60 -73 -95 -17 hvcurveto
          -77 -432 rlineto
          -308 hlineto
          23 140 43 101 127 vvcurveto
          hintmask 01110100
          152 -99 81 -160 -113 -60 -73 -95 -17 vhcurveto
          -77 -432 rlineto
          -107 hlineto
          -109 -117 -5 -109 -1 hvcurveto
          1 -11 rlineto
          -132 5 116 -13 139 hhcurveto
          25 hlineto
          -25 -122 -15 -98 -21 -120 rrcurveto
          -94 hlineto
          -112 -114 -4 -113 -143 113 -10 143 hvcurveto
          14 hlineto
          -55 -320 rlineto
          30 callsubr
          307 hlineto
          -55 -320 rlineto
          hintmask 10111000
          30 callsubr
          75 hlineto
          127 158 -4 125 145 -168 4 -145 hvcurveto
          63 340 rlineto
          66 hlineto
          122 157 -4 123 141 -154 10 -143 hvcurveto
          23 140 43 101 127 11 0 12 11 vvcurveto
          -574 -672 rmoveto
          -62 -340 rlineto
          -309 hlineto
          63 340 rlineto
          endchar
        </CharString>
        <CharString name="o">
          -275 -25 10 callgsubr
          hstem
          1539 712 -61 callsubr
        </CharString>
        <CharString name="oacute">
          -241 -26 10 callgsubr
          952 -34 callsubr
          hintmask 11010000
          1179 -104 callsubr
          hintmask 11100000
          -4 callgsubr
          hintmask 11010000
          304 -1565 -35 callgsubr
          -441 -344 -222 -441 -414 292 -273 424 -70 callgsubr
          153 1 -346 -189 -153 -23 -151 -102 -147 -17 360 187 148 18 145 116 hvcurveto
          endchar
        </CharString>
        <CharString name="ocircumflex">
          -249 -25 10 callgsubr
          938 -20 hstem
          436 -106 callgsubr
          1076 -735 -61 callsubr
        </CharString>
        <CharString name="odieresis">
          -165 -24 10 callgsubr
          617 -20 hstem
          651 -105 callgsubr
          38 -1000 -60 callgsubr
        </CharString>
        <CharString name="oe">
          498 -25 256 -256 357 737 256 hstemhm
          1882 337 hintmask 10110000
          70 662 rmoveto
          -417 7 282 -270 428 hhcurveto
          204 154 65 109 86 hvcurveto
          -100 81 127 -74 183 hhcurveto
          -9 callgsubr
          2 8 3 7 9 vvcurveto
          32 -15 36 -33 vhcurveto
          hintmask 01110000
          -85 -91 -80 -118 -8 callgsubr
          -175 -128 -65 -88 -82 hvcurveto
          92 -86 -132 61 -179 hhcurveto
          -446 -337 -226 -437 -3 hvcurveto
          601 141 rmoveto
          117 1 17 149 114 hhcurveto
          169 -24 -382 -173 4 hvcurveto
          hintmask 10110000
          -116 -1 -6 -167 -113 hhcurveto
          -170 15 399 173 -5 hvcurveto
          1209 20 rmoveto
          -319 hlineto
          -32 callsubr
          28 -104 -142 2 vhcurveto
          endchar
        </CharString>
        <CharString name="ogonek">
          -1042 -701 219 517 -20 hstem
          108 265 vstem
          659 35 rmoveto
          -209 hlineto
          -176 7 callsubr
          170 -79 201 132 109 33 61 74 hvcurveto
          -55 185 rlineto
          -38 -45 -86 -22 -83 hhcurveto
          -81 -67 25 78 -4 hvcurveto
          146 167 231 118 36 vhcurveto
          endchar
        </CharString>
        <CharString name="ograve">
          -250 -26 10 callgsubr
          952 -20 hstem
          123 -94 callgsubr
          1420 -1323 -82 callsubr
          -147 -17 360 187 148 18 145 116 hvcurveto
          endchar
        </CharString>
        <CharString name="one">
          -776 22 -21 1590 -20 hstem
          213 1065 rmoveto
          -645 vlineto
          -1 -148 -157 58 -100 -73 callsubr
          217 234 -64 callsubr
          3 1068 rlineto
          68 -4 -41 45 -84 hhcurveto
          -274 -431 -77 -270 -99 35 callgsubr
          -132 hvcurveto
          endchar
        </CharString>
        <CharString name="onehalf">
          409 -228 196 -196 250 627 275 -205 205 471 -20 hstemhm
          137 427 -128 243 661 184 185 361 -257 384 hintmask 1010110110000000
          564 -28 callgsubr
          hintmask 1010101110000000
          47 callgsubr
          hintmask 1010110110000000
          794 510 -20 callgsubr
          hintmask 1010101110000000
          -59 callgsubr
          -77 74 -87 vhcurveto
          -22 -581 rmoveto
          -1 -14 rlineto
          -27 -2 15 -20 25 hhcurveto
          hintmask 1001110110000000
          67 40 70 85 hhcurveto
          81 57 -49 -80 4 hvcurveto
          -101 -59 -61 -75 -51 vhcurveto
          -21 -14 -6 -20 -18 vvcurveto
          -32 25 -34 31 vhcurveto
          19 28 12 20 hhcurveto
          hintmask 1010110101000000
          81 57 -53 -80 4 hvcurveto
          -103 -67 -67 -106 vhcurveto
          hintmask 0110110101000000
          -88 -73 54 -63 hhcurveto
          -27 -18 -36 -28 -9 4 -7 5 -6 hvcurveto
          -100 84 144 -64 183 hhcurveto
          219 187 121 215 189 -141 100 -156 41 hvcurveto
          hintmask 1010110110000000
          94 41 76 68 127 vvcurveto
          179 -166 71 -180 -150 -234 -72 -142 vhcurveto
          endchar
        </CharString>
        <CharString name="onequarter">
          298 -307 -21 342 247 -244 0 callsubr
          1398 -20 hstemhm
          127 427 -128 243 801 412 hintmask 11001101
          554 -28 callgsubr
          hintmask 11001011
          47 callgsubr
          hintmask 11001101
          794 510 -20 callgsubr
          hintmask 11001011
          -59 callgsubr
          -77 74 -87 vhcurveto
          531 -1321 rmoveto
          hintmask 10011101
          27 7 vlineto
          125 75 -1 128 hvcurveto
          hintmask 11001101
          133 -71 4 -129 vhcurveto
          -6 408 hlineto
          -2 19 rlineto
          205 -8 -192 92 callsubr
          -35 -49 -15 -49 1 -71 rlinecurve
          1 -42 rlineto
          hintmask 10101101
          -75 4 78 -8 85 hhcurveto
          hintmask 10011101
          23 21 1 23 hhcurveto
          250 hlineto
          -1 -29 -4 -109 -106 48 -1 -75 rlinecurve
          -127 192 -33 133 130 197 34 127 69 -106 72 callgsubr
          -340 -243 vlineto
          70 113 76 118 79 109 rrcurveto
          endchar
        </CharString>
        <CharString name="ordfeminine">
          -179 263 -50 callsubr
          hstemhm
          196 408 hintmask 10110000
          799 937 rmoveto
          19 15 -2 -3 17 hvcurveto
          -1 -16 0 -18 -19 -37 1 -41 -42 vvcurveto
          -133 -13 -133 -108 -99 -24 54 91 -2 vhcurveto
          158 44 140 151 vhcurveto
          -742 -359 rmoveto
          -219 164 -95 229 175 178 63 124 61 vhcurveto
          hintmask 01110000
          -119 54 106 -69 175 hhcurveto
          175 189 47 160 83 -137 -39 -6 117 hvcurveto
          -1 7 rlineto
          2 214 28 175 143 vvcurveto
          302 -118 143 -536 -260 -339 -95 -209 -120 210 -59 197 vhcurveto
          136 5 14 160 130 hhcurveto
          89 26 -97 -112 -56 -5 -59 -2 -52 hvcurveto
          -137 hlineto
          -362 -302 -107 -365 hvcurveto
          endchar
        </CharString>
        <CharString name="ordmasculine">
          -298 -25 210 935 205 hstem
          62 574 rmoveto
          -376 7 235 -223 389 hhcurveto
          436 310 294 452 379 -243 225 -391 -447 -297 -292 -458 hvcurveto
          833 109 rmoveto
          -151 -2 -11 -348 -126 hhcurveto
          -106 -33 205 156 -8 hvcurveto
          0 0 -1 0 vhcurveto
          0 0 2 3 14 -1 41 54 vvcurveto
          168 14 293 122 129 19 -288 -147 3 vhcurveto
          endchar
        </CharString>
        <CharString name="oslash">
          -227 -142 -21 139 10 callgsubr
          159 -20 hstem
          303 -34 rmoveto
          -14 -24 -8 -22 -20 vvcurveto
          -39 27 -24 36 30 36 18 43 26 vhcurveto
          890 1456 rlineto
          14 23 8 22 20 vvcurveto
          41 -28 25 -35 -31 -33 -18 -44 -27 vhcurveto
          334 -710 rmoveto
          380 -7 -260 233 -400 hhcurveto
          -452 -371 -237 -469 -392 274 -252 408 452 355 268 468 hvcurveto
          -732 357 rmoveto
          128 4 -210 -194 -186 -21 -249 -127 -131 -7 265 194 172 18 209 135 hvcurveto
          endchar
        </CharString>
        <CharString name="otilde">
          -192 -24 10 callgsubr
          246 2 callgsubr
          hstem
          525 -90 callgsubr
          1013 -1293 -60 callgsubr
        </CharString>
        <CharString name="p">
          -148 -540 -21 537 265 829 255 hstem
          1669 60 callsubr
          -159 -121 -38 -68 -90 hvcurveto
          69 -46 -98 8 -129 hhcurveto
          -191 2 callsubr
          -92 138 47 6 -123 hvcurveto
          1 -1103 rlineto
          -2 -138 -143 73 callsubr
          247 -19 198 97 callgsubr
          181 93 -141 -49 -6 126 vhcurveto
          -1 242 rlineto
          -51 88 107 81 callgsubr
          370 29 -1 29 -1 30 hvcurveto
          -757 -477 rmoveto
          -35 -27 5 11 -25 hvcurveto
          3 801 rlineto
          11 11 3 16 vhcurveto
          13 15 -2 11 60 callgsubr
          -35 -35 vvcurveto
          -157 -30 -136 -131 vhcurveto
          endchar
        </CharString>
        <CharString name="paragraph">
          -362 -41 0 callsubr
          1777 -20 hstemhm
          595 236 126 238 -238 383 hintmask 01111000
          -9 1199 rmoveto
          -315 15 264 -145 325 hhcurveto
          -715 vlineto
          -55 2 53 -30 64 hhcurveto
          78 39 44 76 hvcurveto
          1 1495 rlineto
          125 hlineto
          1 -1530 rlineto
          hintmask 10111000
          -55 2 53 -31 64 hhcurveto
          73 46 44 72 hvcurveto
          -1 1280 rlineto
          hintmask 01110100
          2 136 143 -58 94 vvcurveto
          181 -233 29 -212 -438 -467 -38 -440 -12 -1 -14 3 -13 vhcurveto
          endchar
        </CharString>
        <CharString name="parenleft">
          -790 -94 -21 1834 -20 hstem
          964 34 rmoveto
          -2 56 -26 50 -39 16 rrcurveto
          -224 92 -123 247 314 vvcurveto
          310 130 235 217 92 vhcurveto
          42 18 26 53 59 vvcurveto
          93 -59 50 -94 vhcurveto
          -18 hlineto
          -7 -4 -1 -1 -7 hvcurveto
          -468 -58 -322 -329 -526 vvcurveto
          -478 318 -441 491 vhcurveto
          17 hlineto
          100 50 51 99 hvcurveto
          endchar
        </CharString>
        <CharString name="parenright">
          -791 -95 -21 1836 -20 hstem
          31 1568 rmoveto
          2 -56 26 -49 39 -17 rrcurveto
          221 -95 126 -243 -310 vvcurveto
          -311 -128 -242 -219 -89 vhcurveto
          -42 -17 -26 -53 -61 vvcurveto
          -92 57 -49 96 vhcurveto
          17 hlineto
          7 5 1 1 4 hvcurveto
          464 58 328 327 521 vvcurveto
          529 -313 338 -477 59 vhcurveto
          1 -9 -4 1 -7 hhcurveto
          -18 hlineto
          -101 -50 -51 -99 hvcurveto
          endchar
        </CharString>
        <CharString name="percent">
          1404 -120 209 492 209 233 207 494 207 hstem
          2025 -56 callsubr
          -2057 -751 rmoveto
          -375 19 255 -224 386 35 callsubr
          -424 -280 -263 -436 -17 0 -18 2 -17 hvcurveto
          539 58 rmoveto
          -3 37 -2 50 52 vvcurveto
          158 19 189 97 169 7 -483 -47 1 vhcurveto
          -11 0 -12 -12 vvcurveto
          -163 -21 -206 -94 -130 -34 299 150 -10 vhcurveto
          1339 -760 -65 callsubr
          541 58 rmoveto
          -3 37 -2 52 52 vvcurveto
          157 21 188 96 166 8 -465 -59 1 vhcurveto
          -14 0 -14 -14 vvcurveto
          -163 -18 -205 -97 -127 -39 299 150 -7 vhcurveto
          endchar
        </CharString>
        <CharString name="period">
          -1158 1 74 callsubr
          668 -55 callgsubr
          endchar
        </CharString>
        <CharString name="periodcentered">
          -1030 634 -21 497 -20 hstem
          698 876 -10 callsubr
          -167 -158 -78 -171 -169 156 -79 170 178 146 78 184 hvcurveto
          endchar
        </CharString>
        <CharString name="perthousand">
          2963 -121 209 493 209 232 207 495 207 hstem
          2090 -56 callsubr
          -2059 -751 rmoveto
          -375 19 258 -224 385 35 callsubr
          -423 -283 -264 -435 -18 0 -17 2 -17 hvcurveto
          714 -390 rmoveto
          -160 -18 419 166 158 19 191 97 160 18 -406 -158 -162 -21 -208 -94 hvcurveto
          1166 -312 -57 callsubr
          743 390 -57 callsubr
          endchar
        </CharString>
        <CharString name="plus">
          -588 125 -21 506 236 506 -20 hstem
          442 317 vstem
          1226 741 rmoveto
          77 -5 -39 12 callsubr
          -83 -41 -32 -82 -91 35 -31 88 hvcurveto
          337 -402 hlineto
          -65 4 74 62 callsubr
          94 32 35 96 hvcurveto
          endchar
        </CharString>
        <CharString name="plusminus">
          -554 115 196 613 236 506 -20 hstem
          446 317 vstem
          1083 224 rmoveto
          85 -5 -62 2 -90 hhcurveto
          91 callsubr
          -89 -59 -11 -87 -94 54 -4 92 hvcurveto
          92 callgsubr
          103 55 3 105 hvcurveto
          148 832 rmoveto
          77 -4 -40 12 callsubr
          -85 -40 -33 -87 -86 41 -30 83 hvcurveto
          337 -402 hlineto
          -65 5 73 62 callsubr
          95 31 35 96 hvcurveto
          endchar
        </CharString>
        <CharString name="q">
          -92 -540 -21 535 264 830 256 hstem
          30 61 callgsubr
          175 134 48 81 92 hvcurveto
          2 -280 28 callsubr
          -145 59 -94 vvcurveto
          -184 238 -26 220 192 255 19 187 91 -139 -48 -6 123 vhcurveto
          1 1103 rlineto
          136 144 -60 97 vvcurveto
          189 -249 19 -197 -142 -116 -12 -104 -35 vhcurveto
          87 -95 -136 58 -185 hhcurveto
          -369 -146 -297 -375 -29 -1 -29 3 -29 hvcurveto
          776 502 rmoveto
          56 42 -22 -23 36 hvcurveto
          -739 vlineto
          -43 -3 -92 -2 -57 hhcurveto
          -136 -10 108 133 -7 hvcurveto
          -3 55 -3 65 64 vvcurveto
          198 30 207 148 vhcurveto
          endchar
        </CharString>
        <CharString name="question">
          -639 79 callgsubr
          241 492 hintmask 10110000
          597 1645 rmoveto
          -279 -220 -102 -150 -129 hvcurveto
          -10 -11 -4 -5 -16 vvcurveto
          -40 27 -56 38 vhcurveto
          hintmask 11010000
          101 86 79 137 hhcurveto
          127 83 -28 -117 7 hvcurveto
          -125 -56 -48 -61 -63 vhcurveto
          -73 -75 -46 -116 -154 vvcurveto
          -106 36 -83 112 176 -64 122 104 70 vhcurveto
          131 195 358 20 328 vvcurveto
          282 -262 166 -287 vhcurveto
          hintmask 10110000
          137 -1470 rmoveto
          122 -5 -118 55 -123 hhcurveto
          -124 -121 -58 -127 -131 119 -61 126 129 118 57 132 hvcurveto
          3 -1 3 5 vvcurveto
          endchar
        </CharString>
        <CharString name="questiondown">
          -576 79 callgsubr
          227 492 hintmask 10110000
          658 1645 rmoveto
          -277 -226 -100 -152 -140 hvcurveto
          -11 -12 -4 -7 -23 vvcurveto
          -39 3 22 -47 37 hhcurveto
          hintmask 11010000
          100 91 79 137 hhcurveto
          127 79 -27 -118 2 hvcurveto
          -122 -68 -54 -60 -60 vhcurveto
          -77 -77 -61 -130 -162 vvcurveto
          -95 40 -70 100 178 -58 122 104 74 vhcurveto
          142 198 376 19 348 vvcurveto
          268 -246 158 -279 vhcurveto
          hintmask 10110000
          60 -1461 rmoveto
          116 -5 -114 52 -118 hhcurveto
          -129 -126 -61 -136 -123 113 -57 123 133 123 60 140 hvcurveto
          endchar
        </CharString>
        <CharString name="quotedbl">
          -557 765 0 callsubr
          919 9 callgsubr
          632 1395 rmoveto
          -5 -1 -5 -5 vvcurveto
          3 -149 46 -150 19 -121 rrcurveto
          -120 23 10 -96 147 hhcurveto
          154 31 23 callsubr
          -188 -106 -73 -195 vhcurveto
          -668 hmoveto
          -5 -1 -5 -5 vvcurveto
          4 -149 39 -150 23 -121 rrcurveto
          hintmask 01010000
          -120 22 10 -96 146 hhcurveto
          155 32 23 callsubr
          -189 -103 -73 -195 vhcurveto
          endchar
        </CharString>
        <CharString name="quotedblbase">
          -401 -419 0 callsubr
          919 9 callgsubr
          778 -42 callsubr
          -670 hmoveto
          -5 -1 -4 -4 vvcurveto
          3 -149 45 -151 19 -122 rrcurveto
          hintmask 01010000
          -120 23 12 -96 145 hhcurveto
          156 29 86 130 35 hvcurveto
          36 135 70 173 169 vvcurveto
          164 -101 63 -177 49 callsubr
          endchar
        </CharString>
        <CharString name="quotedblleft">
          -308 37 callgsubr
          50 1083 rmoveto
          -80 callsubr
          706 hmoveto
          -80 callsubr
          endchar
        </CharString>
        <CharString name="quotedblright">
          -321 37 callgsubr
          683 1240 -77 callsubr
          695 30 -77 callsubr
          endchar
        </CharString>
        <CharString name="quoteleft">
          -1065 37 callgsubr
          25 1083 rmoveto
          -80 callsubr
          endchar
        </CharString>
        <CharString name="quoteright">
          -1064 37 callgsubr
          660 1240 -77 callsubr
          endchar
        </CharString>
        <CharString name="quotesinglbase">
          -1113 -419 -21 920 -20 hstem
          94 -42 callsubr
          endchar
        </CharString>
        <CharString name="quotesingle">
          -1236 765 -21 920 -20 hstem
          -41 1395 rmoveto
          8 -152 50 -158 31 -125 rrcurveto
          -120 29 17 -96 146 hhcurveto
          152 29 86 130 28 hvcurveto
          28 130 52 165 163 vvcurveto
          180 -106 66 -185 -179 -100 -66 -173 vhcurveto
          -10 1 -10 -9 vvcurveto
          endchar
        </CharString>
        <CharString name="r">
          -481 23 -21 1048 255 hstem
          852 1050 rmoveto
          -3 129 -71 callgsubr
          34 -18 44 33 vvcurveto
          29 11 20 42 1 vhcurveto
          endchar
        </CharString>
        <CharString name="rcaron">
          -409 23 -21 1045 258 959 -20 hstem
          1040 2264 rmoveto
          -112 -44 -107 -75 -56 hvcurveto
          -122 -162 -119 162 rlineto
          73 -54 -48 109 -111 hhcurveto
          -66 -45 -42 -69 -17 4 -22 8 -21 6 callgsubr
          rlineto
          8 21 5 19 18 vvcurveto
          69 -45 44 -67 vhcurveto
          -192 -1217 rmoveto
          130 -71 callgsubr
          35 -24 28 23 vvcurveto
          49 7 26 52 vhcurveto
          endchar
        </CharString>
        <CharString name="rcommaaccent">
          -420 84 callsubr
          649 -21 1045 258 hstem
          1015 -81 callgsubr
          -178 1475 rmoveto
          130 50 callsubr
          95 93 144 167 -111 65 -118 24 callsubr
          -27 -160 25 -118 -20 callsubr
          -139 -144 65 -101 vvcurveto
          -186 254 -19 194 216 238 26 183 52 callsubr
          509 vlineto
          -1 43 -24 29 28 vvcurveto
          40 13 21 46 vhcurveto
          endchar
        </CharString>
        <CharString name="registered">
          209 -18 200 1417 201 hstemhm
          43 240 160 463 -373 373 -373 464 86 402 215 240 hintmask 11110011
          993 1800 -83 callsubr
          494 934 rmoveto
          199 -11 -231 40 -220 hhcurveto
          -300 hlineto
          -127 -153 -18 -108 hvcurveto
          hintmask 11101011
          -58 86 32 4 -77 vhcurveto
          -425 vlineto
          -1 -84 -88 37 -58 vvcurveto
          -111 140 -17 131 vhcurveto
          hintmask 11100111
          133 149 17 111 hvcurveto
          hintmask 11110011
          53 -86 -31 -5 72 vhcurveto
          1 130 rlineto
          -1 11 10 -1 8 hhcurveto
          37 hlineto
          -152 56 33 -206 208 hhcurveto
          130 171 0 123 65 -97 -22 -31 51 hvcurveto
          -126 186 rlineto
          108 42 61 64 146 vvcurveto
          -577 37 rmoveto
          56 14 38 56 84 20 -76 -88 -14 0 -15 -1 -15 vhcurveto
          2 -11 rlineto
          -88 -2 -33 -35 -88 hhcurveto
          -23 -28 1 5 hvcurveto
          endchar
        </CharString>
        <CharString name="ring">
          -763 123 54 callsubr
          hstem
          68 274 358 282 vstem
          523 339 rmoveto
          -107 -74 65 111 114 70 68 110 107 71 -67 -110 -115 -70 -66 -107 hvcurveto
          458 63 callgsubr
          -256 -200 -136 -263 -259 200 -137 256 258 200 129 263 hvcurveto
          10 68 callsubr
        </CharString>
        <CharString name="s">
          -579 -24 238 930 181 hstem
          54 435 vstem
          58 852 rmoveto
          13 -305 332 -108 232 -82 rrcurveto
          64 -23 38 -35 -30 vvcurveto
          -30 -17 -25 -84 vhcurveto
          -298 -50 240 -119 hhcurveto
          -38 -32 -17 -58 -113 28 -92 52 -64 hvcurveto
          -85 107 163 -49 188 hhcurveto
          307 292 102 307 310 -288 118 -232 79 hvcurveto
          -70 23 -157 40 82 vvcurveto
          74 55 33 64 86 105 -59 -103 27 vhcurveto
          -24 6 30 -32 69 hhcurveto
          84 155 33 95 225 -306 46 -224 -332 -254 -132 -308 -12 1 -9 1 -11 hvcurveto
          endchar
        </CharString>
        <CharString name="s_b">
          1256 -26 234 -214 -21 46 -21 1069 258 -203 203 544 -20 hstemhm
          86 434 438 278 hintmask 10001111
          3005 60 callsubr
          -183 -134 -52 -87 -93 hvcurveto
          1 67 rlineto
          378 -7 -250 238 -373 hhcurveto
          -269 -225 -138 -275 -81 22 -70 26 -66 hvcurveto
          53 -93 77 callsubr
          -153 -316 22 callgsubr
          -244 85 callsubr
          -96 -59 -64 -100 -238 355 -84 248 309 289 117 311 311 -275 109 -234 79 hvcurveto
          -73 25 -158 37 -5 85 rrcurveto
          70 66 4 75 101 66 -31 -47 50 vhcurveto
          -81 85 35 -144 162 hhcurveto
          89 52 59 92 hvcurveto
          112 -65 50 111 vvcurveto
          83 29 81 79 92 34 -102 -99 4 vhcurveto
          1 -827 rlineto
          -2 -137 -143 59 -98 vvcurveto
          hintmask 01110111
          -15 callgsubr
          139 96 33 96 38 vhcurveto
          -96 94 137 -58 195 hhcurveto
          368 163 295 378 hvcurveto
          23 -2 23 23 vvcurveto
          -778 -488 rmoveto
          -60 -53 25 25 -35 hvcurveto
          741 vlineto
          40 73 9 55 177 -14 -235 -192 11 vhcurveto
          2 -37 2 -37 -35 vvcurveto
          -161 -29 -143 70 callsubr
          endchar
        </CharString>
        <CharString name="s_f">
          932 -23 234 -192 -21 1098 201 -172 202 260 205 560 -20 hstemhm
          59 434 252 493 -316 256 1008 442 hintmask 1010111011000000
          2049 370 46 callgsubr
          -107 16 hlineto
          -7 98 -66 47 -4 80 rrcurveto
          31 6 18 33 39 21 -37 -39 16 vhcurveto
          -89 36 64 -48 122 hhcurveto
          192 97 179 208 403 -320 188 -406 -406 -285 -184 -249 -164 hvcurveto
          -72 -108 -53 -138 -168 vvcurveto
          -128 32 -99 53 -90 vhcurveto
          hintmask 1001111101000000
          78 -85 -111 61 -166 hhcurveto
          -330 -256 -133 -332 -338 327 -85 252 -90 hvcurveto
          35 -13 72 -20 -29 vvcurveto
          -73 -78 -3 -87 vhcurveto
          -245 85 callsubr
          -97 -58 -65 -102 -235 360 -84 244 50 callgsubr
          311 -275 108 -234 80 hvcurveto
          43 callsubr
          66 4 75 vhcurveto
          196 55 -194 164 hhcurveto
          123 27 58 80 hvcurveto
          hintmask 0110111011000000
          66 -21 82 79 vvcurveto
          404 326 194 414 137 123 -48 -128 8 vhcurveto
          55 -66 -107 19 -128 hhcurveto
          -292 -116 -199 -297 hvcurveto
          -55 hlineto
          -66 -29 -28 -66 -75 24 -32 71 27 callsubr
          -135 -144 56 -93 59 callsubr
          247 -18 199 87 callsubr
          48 callgsubr
          124 vhcurveto
          endchar
        </CharString>
        <CharString name="s_k">
          1387 -25 234 -188 -21 1124 201 549 -20 hstemhm
          86 437 hintmask 01111000
          2128 372 rmoveto
          195 vlineto
          38 28 39 22 2 2 167 -312 rcurveline
          -208 111 -37 -99 339 hhcurveto
          189 200 27 186 58 -39 6 -48 5 hvcurveto
          -76 8 -45 24 64 callgsubr
          68 53 218 17 111 44 callsubr
          -64 106 -4 4 -53 vhcurveto
          -29 -16 -13 -21 -17 vhcurveto
          -346 -268 rlineto
          207 14 193 169 vvcurveto
          371 -89 249 -532 -286 -255 -162 -294 -49 38 -162 14 -60 vhcurveto
          103 -91 -161 75 -140 hhcurveto
          -307 -250 -153 -316 -337 328 -84 25 callsubr
          hintmask 10111000
          -73 -79 -2 -87 vhcurveto
          -244 91 202 -233 hhcurveto
          -97 -58 -67 -102 -235 357 -32 245 50 callgsubr
          309 -273 113 -234 78 hvcurveto
          -73 24 -158 40 -5 83 rrcurveto
          70 66 4 74 vhcurveto
          181 120 -185 120 217 -139 472 229 hhcurveto
          90 32 -99 -98 4 hvcurveto
          -833 vlineto
          -2 -137 -144 61 -95 41 callsubr
          -143 -47 69 callsubr
          endchar
        </CharString>
        <CharString name="s_p">
          1192 -539 -21 536 232 -232 262 -243 -21 1093 258 -202 202 434 -20 hstemhm
          60 435 476 233 hintmask 1100011110000000
          1240 432 rmoveto
          -13 288 -272 105 -224 77 43 callsubr
          66 4 75 vhcurveto
          289 -39 -303 249 hhcurveto
          78 58 17 74 hvcurveto
          101 -67 81 107 vvcurveto
          92 53 35 96 104 29 -114 -118 5 vhcurveto
          1 -1275 rlineto
          74 callgsubr
          55 -91 59 callsubr
          247 -19 199 97 callgsubr
          181 92 98 callsubr
          124 vhcurveto
          -1 246 rlineto
          -51 88 108 81 callgsubr
          369 380 -131 316 -385 -145 -102 -32 -52 -86 hvcurveto
          -1 42 rlineto
          312 -16 -257 164 -316 hhcurveto
          -282 -260 -137 -285 -32 2 -34 8 -33 hvcurveto
          53 -94 77 callsubr
          -154 -314 22 callgsubr
          -245 85 callsubr
          -94 -60 -65 -98 hvcurveto
          hintmask 1001101110000000
          -238 353 -85 250 50 callgsubr
          vhcurveto
          9 0 9 11 vvcurveto
          953 -192 rmoveto
          -32 -29 9 7 -27 hvcurveto
          799 vlineto
          12 18 2 19 vhcurveto
          12 12 -1 9 60 callgsubr
          -34 -35 vvcurveto
          hintmask 1010101110000000
          -157 -31 -137 -131 vhcurveto
          endchar
        </CharString>
        <CharString name="s_t_i">
          1624 -25 234 -234 349 -332 -21 48 -21 1094 203 -154 183 1123 -20 hstemhm
          60 434 495 184 1872 238 hintmask 1000011111000000
          2522 1606 rmoveto
          -158 8 154 -55 163 hhcurveto
          269 167 208 277 372 -317 197 -493 -722 -762 -418 -716 -51 2 -50 8 -51 hvcurveto
          81 -60 -156 82 -137 hhcurveto
          -330 -256 -133 -333 -338 329 -82 249 -91 hvcurveto
          36 -13 69 -19 4 -30 rrcurveto
          -73 -81 -3 -86 vhcurveto
          -245 74 182 -233 hhcurveto
          -93 -44 -24 -87 -205 308 -100 254 308 330 121 310 309 -277 107 -232 80 hvcurveto
          43 callsubr
          64 22 107 vhcurveto
          186 57 -176 152 hhcurveto
          72 43 36 74 hvcurveto
          20 -2 19 17 vvcurveto
          661 764 292 544 421 143 -123 -109 -51 -19 -35 -20 vhcurveto
          -8 -125 79 -68 hhcurveto
          -169 -113 -68 -172 hvcurveto
          hintmask 0011101111000000
          309 -310 rmoveto
          -209 -237 -28 -177 -93 138 51 6 -125 hvcurveto
          -543 vlineto
          -2 -137 -143 63 -102 vvcurveto
          -178 239 -28 208 67 callsubr
          90 -135 -47 -10 126 vhcurveto
          808 vlineto
          96 -5 -146 15 63 callsubr
          hintmask 0100101111000000
          -714 -968 rmoveto
          -81 -17 53 73 -4 hvcurveto
          -3 642 rlineto
          244 hlineto
          68 31 56 53 hvcurveto
          47 -4 -30 44 -64 hhcurveto
          -244 hlineto
          1 338 rlineto
          44 -4 -25 45 callgsubr
          -139 -193 -141 rrcurveto
          -19 -14 -8 -22 -18 vvcurveto
          -35 33 -32 45 64 callsubr
          hintmask 0011101111000000
          -312 81 -228 437 242 151 142 176 68 vhcurveto
          3 7 2 8 10 vvcurveto
          33 -1 -15 35 -34 hhcurveto
          hintmask 0100101111000000
          -70 -41 -58 -90 hhcurveto
          endchar
        </CharString>
        <CharString name="section">
          -697 -35 176 1112 343 hstemhm
          101 315 238 301 -268 338 hintmask 11110000
          101 1229 rmoveto
          5 -139 73 -82 87 -57 rrcurveto
          -98 -48 -67 -82 -144 vvcurveto
          -285 239 -65 227 -58 vhcurveto
          30 -8 53 -11 4 -26 rrcurveto
          -68 -71 -15 -75 vhcurveto
          -195 74 199 -183 hhcurveto
          -76 -46 -50 -75 -189 274 -61 201 hvcurveto
          hintmask 11101000
          235 233 86 240 162 -87 80 -103 61 hvcurveto
          104 46 87 80 152 vvcurveto
          292 -297 48 -218 78 vhcurveto
          -37 13 -55 18 -3 38 rrcurveto
          68 63 8 72 60 76 -11 -40 vhcurveto
          -34 -30 -2 -32 vvcurveto
          -60 75 -3 66 vhcurveto
          hintmask 11110000
          88 69 42 85 165 -217 51 -176 -251 -208 -85 -251 hvcurveto
          -10 1 -9 -10 vvcurveto
          501 -541 rmoveto
          -71 27 -101 42 34 vvcurveto
          19 8 13 13 17 vhcurveto
          23 23 rlineto
          -2 1 183 -56 -45 vvcurveto
          -36 -30 -24 -24 -13 vhcurveto
          endchar
        </CharString>
        <CharString name="semicolon">
          -1121 -352 -21 382 -21 1308 -20 hstem
          665 1063 rmoveto
          -3 callsubr
          -5 -895 -23 callsubr
          27 -26 36 269 192 66 callgsubr
        </CharString>
        <CharString name="seven">
          -542 -182 -21 1479 316 hstem
          51 1241 rmoveto
          -68 4 45 -45 68 hhcurveto
          9 8 4 7 6 hvcurveto
          123 98 222 14 236 hhcurveto
          39 hlineto
          -540 -1204 rlineto
          -9 -21 -3 -17 -23 vvcurveto
          -134 8 182 -80 140 hhcurveto
          155 17 69 111 40 hvcurveto
          456 1194 rlineto
          29 76 36 76 99 vvcurveto
          141 -97 29 -155 vhcurveto
          -755 hlineto
          -178 -62 -171 -179 hvcurveto
          endchar
        </CharString>
        <CharString name="six">
          -284 -26 268 579 278 541 -20 hstem
          777 242 rmoveto
          -120 -32 184 179 hvcurveto
          55 1 53 49 14 0 14 14 vvcurveto
          13 19 4 22 vhcurveto
          31 41 -6 27 hhcurveto
          121 47 -188 -130 -128 -34 -127 -121 hvcurveto
          754 359 rmoveto
          296 -16 -218 202 -308 hhcurveto
          -128 -100 -34 -48 -96 hvcurveto
          60 192 170 98 190 58 rrcurveto
          104 32 146 -3 132 vvcurveto
          69 -45 45 -68 -502 -355 -219 -314 -188 vhcurveto
          -75 -125 -58 -151 -183 vvcurveto
          -438 306 -236 448 402 333 188 401 vhcurveto
          12 0 11 14 vvcurveto
          endchar
        </CharString>
        <CharString name="slash">
          -781 -102 0 callsubr
          2120 95 callsubr
          248 -123 rmoveto
          116 68 77 91 27 hvcurveto
          164 554 175 576 162 557 rrcurveto
          7 25 7 25 33 vvcurveto
          124 -105 59 -130 -121 -62 -77 -91 -26 vhcurveto
          -161 -558 -177 -574 -166 -554 rrcurveto
          -8 -28 -4 -24 -33 vvcurveto
          hintmask 01100000
          -116 7 99 -65 126 hhcurveto
          endchar
        </CharString>
        <CharString name="space">
          endchar
        </CharString>
        <CharString name="sterling">
          -127 25 -21 717 270 391 213 hstem
          1161 403 vstem
          1607 438 37 callsubr
          25 callgsubr
          -47 -11 -64 -20 -59 hhcurveto
          -68 -73 26 40 hvcurveto
          -4 497 rlineto
          234 hlineto
          84 48 47 86 89 -47 48 -84 hvcurveto
          -234 hlineto
          1 146 rlineto
          131 1 7 114 128 hhcurveto
          119 6 -110 -124 hvcurveto
          -86 7 107 -37 93 hhcurveto
          114 82 60 116 280 -329 114 -295 -433 -236 -202 -400 -37 hvcurveto
          -58 hlineto
          -83 -50 -47 -84 -90 46 -49 86 hvcurveto
          53 -301 hlineto
          -150 -159 65 1 -106 vhcurveto
          -209 272 -18 217 vhcurveto
          748 hlineto
          190 114 204 202 4 callsubr
        </CharString>
        <CharString name="t">
          -710 -24 338 783 200 410 -20 hstem
          1109 78 callsubr
          -244 338 hlineto
          44 -2 -26 28 -44 hhcurveto
          -46 -44 -16 -35 -15 hvcurveto
          -60 -134 -290 -245 -129 -29 rrcurveto
          -69 -15 -9 -48 -23 vvcurveto
          -39 37 -26 41 vhcurveto
          49 hlineto
          -1 -206 -22 -204 -175 vvcurveto
          -311 83 -225 435 245 148 139 179 69 vhcurveto
          3 7 2 8 10 vvcurveto
          34 -1 -15 33 -34 -71 -74 -72 -43 hhcurveto
          -104 -15 135 154 hvcurveto
          70 4 68 68 vvcurveto
          -2 288 rlineto
          244 hlineto
          68 29 31 69 hvcurveto
          6 -1 4 5 vvcurveto
          endchar
        </CharString>
        <CharString name="t_f">
          485 -26 327 -302 302 795 200 564 -20 hstemhm
          1746 451 hintmask 10111000
          878 304 rmoveto
          -84 -29 56 83 -4 hvcurveto
          59 callgsubr
          322 -747 hlineto
          -40 -53 -8 -55 vhcurveto
          -35 -33 3 -27 hhcurveto
          776 66 rmoveto
          728 150 vlineto
          59 25 35 62 73 -28 28 -70 hvcurveto
          -106 21 hlineto
          -7 99 -46 65 -5 85 rrcurveto
          -22 callsubr
          -328 338 hlineto
          44 -2 -26 45 callgsubr
          -140 -192 -141 rrcurveto
          -18 -13 -10 -21 -19 vvcurveto
          -41 35 -27 44 64 callsubr
          -312 81 -228 436 144 108 51 73 79 vhcurveto
          hintmask 01111000
          -82 75 156 -17 173 hhcurveto
          87 callsubr
          48 callgsubr
          126 hvcurveto
          endchar
        </CharString>
        <CharString name="thorn">
          7 -592 -21 579 264 840 256 355 -34 callsubr
          hintmask 11110000
          568 1681 rmoveto
          -196 -250 -21 -190 -87 139 47 69 callgsubr
          -1542 vlineto
          -2 -138 -142 58 -92 59 callsubr
          246 -19 199 191 265 22 187 93 -137 -49 -6 123 vhcurveto
          -2 9 1 319 rlineto
          -77 92 125 -48 173 hhcurveto
          367 162 307 369 376 -138 308 -378 -179 -132 -48 -83 -91 hvcurveto
          -1 264 rlineto
          hintmask 11101000
          195 -11 -71 28 -229 hhcurveto
          hintmask 11110000
          599 -1044 rmoveto
          -5 0 -5 -5 -11 87 callgsubr
          1 -38 1 -36 -37 vvcurveto
          -136 -18 -115 -134 -57 -45 20 23 -36 vhcurveto
          1 756 rlineto
          36 68 5 51 176 -8 -244 -188 vhcurveto
          endchar
        </CharString>
        <CharString name="three">
          -547 -22 280 1069 293 hstem
          1277 484 rmoveto
          -15 251 -198 135 -213 56 rrcurveto
          133 62 113 91 187 vvcurveto
          251 -242 103 -253 -225 -328 -102 -219 -39 10 -33 40 15 12 2 8 9 vhcurveto
          49 67 71 41 99 hhcurveto
          120 86 -73 -121 2 hvcurveto
          -148 -100 -81 -91 -64 vhcurveto
          -24 -17 -19 -18 -34 vvcurveto
          -47 36 -54 46 vhcurveto
          27 40 18 26 hhcurveto
          120 86 -79 -117 2 hvcurveto
          -147 -104 -87 -146 -110 -113 31 39 -70 vhcurveto
          5 -9 -10 3 -13 hhcurveto
          -39 -25 -55 -40 hvcurveto
          1 -12 5 -7 7 -8 rrcurveto
          -141 122 211 -95 261 hhcurveto
          310 269 168 310 hvcurveto
          9 15 callgsubr
        </CharString>
        <CharString name="threequarters">
          593 -308 -21 318 -21 44 247 -244 0 callsubr
          268 198 -198 251 626 273 -204 204 hstemhm
          360 358 -256 384 915 412 hintmask 1110010101010000
          -9 1200 rmoveto
          -1 -13 rlineto
          -2 0 -2 -1 vvcurveto
          -25 13 -17 24 vhcurveto
          hintmask 1110010011010000
          67 39 69 85 hhcurveto
          81 56 -49 -80 5 hvcurveto
          -99 -60 -65 -73 -50 vhcurveto
          -19 -13 -11 -18 -16 vvcurveto
          -33 24 -34 32 vhcurveto
          20 26 12 20 hhcurveto
          hintmask 1110010100110000
          84 57 -59 -82 2 hvcurveto
          -99 -72 -63 -102 vhcurveto
          hintmask 1110001100110000
          -86 -74 53 -63 hhcurveto
          -28 -17 -37 -28 -8 2 -7 6 -7 hvcurveto
          -99 86 145 -65 183 hhcurveto
          217 187 120 214 191 -141 99 -156 42 hvcurveto
          hintmask 1110010101010000
          94 42 75 62 129 vvcurveto
          180 -165 71 -180 -151 -232 -73 -142 vhcurveto
          1626 93 -20 callgsubr
          -59 callgsubr
          -76 74 -88 vhcurveto
          557 -1321 rmoveto
          hintmask 1100110101010000
          27 8 vlineto
          124 75 -1 123 hvcurveto
          hintmask 1110010101010000
          138 -68 4 70 callsubr
          -7 427 hlineto
          205 -12 -190 92 callsubr
          -34 -48 -15 -49 1 -73 rlinecurve
          hintmask 1101010101010000
          -113 56 -11 113 vhcurveto
          hintmask 1100110101010000
          23 21 1 23 hhcurveto
          249 hlineto
          -1 -29 -4 -107 -105 46 -1 -74 rlinecurve
          -127 193 -33 130 130 198 34 127 69 -107 72 callgsubr
          hintmask 1110010101010000
          -340 -243 vlineto
          70 115 78 116 79 109 rrcurveto
          endchar
        </CharString>
        <CharString name="tilde">
          -299 143 -21 125 2 callgsubr
          hstem
          506 680 rmoveto
          -261 -96 -225 -210 -69 hvcurveto
          122 -12 callsubr
          0 callgsubr
          275 99 205 229 63 hvcurveto
          -124 -57 callgsubr
          -46 -38 -89 vhcurveto
          -261 -177 117 -243 hhcurveto
          endchar
        </CharString>
        <CharString name="trademark">
          732 635 -21 627 354 -1 -20 hstemhm
          357 414 339 276 -178 276 308 511 -412 412 hintmask 11011010
          1093 1366 rmoveto
          109 -7 -58 120 -110 -242 -219 -2 -243 hhcurveto
          -110 -67 -122 -115 -70 33 -45 68 71 36 54 67 20 hvcurveto
          23 98 rlineto
          70 hlineto
          -1 -588 rlineto
          -92 -99 42 -69 vvcurveto
          -121 161 -18 143 145 163 17 123 61 -94 -27 -5 83 vhcurveto
          591 70 vlineto
          23 -100 rlineto
          -67 15 40 -54 72 hhcurveto
          74 29 49 76 hvcurveto
          1209 -494 rmoveto
          464 vlineto
          1 96 100 -45 72 vvcurveto
          hintmask 10111010
          118 -144 17 -143 -131 -48 -87 -83 -46 vhcurveto
          -136 -254 -167 269 rlineto
          88 -55 -55 67 -140 hhcurveto
          -108 -121 -32 -105 -63 95 33 4 -85 hvcurveto
          hintmask 11010110
          -1 -469 rlineto
          -93 -100 42 1 -67 vhcurveto
          -99 93 -42 100 92 90 45 95 vhcurveto
          hintmask 11011001
          60 -93 -27 -5 84 vhcurveto
          1 259 239 -370 rlineto
          -9 6 8 -5 10 hhcurveto
          11 8 5 9 4 hvcurveto
          219 409 -1 -297 rlineto
          hintmask 11011010
          -92 -99 42 -69 vvcurveto
          -121 160 -18 142 146 163 14 124 65 -95 -31 -6 85 vhcurveto
          endchar
        </CharString>
        <CharString name="two">
          -582 2 315 1024 278 hstem
          1228 350 rmoveto
          68 -4 -47 45 -68 hhcurveto
          -9 -8 -4 -7 -4 hvcurveto
          -122 -102 -221 -13 -236 hhcurveto
          273 168 368 283 417 vvcurveto
          295 -214 139 -302 -255 -208 -95 -139 -121 vhcurveto
          -7 -8 -4 -10 -16 vvcurveto
          -37 4 22 -48 35 hhcurveto
          13 9 5 5 11 hvcurveto
          39 72 89 26 108 hhcurveto
          111 84 -27 -93 4 hvcurveto
          -1 -44 -4 -36 -20 -53 -117 -318 -219 -269 -165 -274 rrcurveto
          -14 -23 -10 -27 -35 vvcurveto
          -85 49 -55 86 vhcurveto
          782 hlineto
          160 83 151 167 hvcurveto
          11 -1 10 11 vvcurveto
          endchar
        </CharString>
        <CharString name="u">
          43 -24 56 callgsubr
          1297 9 callgsubr
          186 927 -70 callsubr
          hintmask 10010000
          -93 -53 -57 -96 -138 -37 32 callgsubr
          -222 -26 -178 -96 121 17 callsubr
        </CharString>
        <CharString name="uacute">
          19 -25 56 callgsubr
          2278 -34 callsubr
          hintmask 10010000
          1324 -104 callsubr
          hintmask 10100000
          -4 callgsubr
          hintmask 10010000
          -1216 -1350 -3 callgsubr
          hintmask 01010000
          -45 callgsubr
          hintmask 10010000
          -93 -1 -52 -57 -96 hhcurveto
          -137 -38 56 callsubr
          hvcurveto
          61 callsubr
          -221 -26 -178 -96 120 17 callsubr
        </CharString>
        <CharString name="ucircumflex">
          14 -24 56 callgsubr
          2264 -20 hstemhm
          944 411 hintmask 10110000
          577 -106 callgsubr
          -444 -520 -19 callsubr
          36 callgsubr
          hintmask 01110000
          -97 callgsubr
          hintmask 10110000
          -62 callsubr
        </CharString>
        <CharString name="udieresis">
          80 -22 253 1712 -20 hstem
          786 -105 callgsubr
          -1482 -784 rmoveto
          3 -34 -1 -32 -33 -137 -14 -126 -113 vvcurveto
          -288 85 -188 427 -39 callsubr
          -129 24 118 -57 156 hhcurveto
          212 205 27 184 -77 callgsubr
          -213 -227 -26 -180 -92 126 54 2 -107 hvcurveto
          -2 -566 rlineto
          -93 -56 -57 -95 -137 -36 32 callgsubr
          -224 -26 -180 -93 123 48 6 -117 hvcurveto
          endchar
        </CharString>
        <CharString name="ugrave">
          14 -24 56 callgsubr
          2277 95 callsubr
          258 -94 callgsubr
          -99 -1107 -70 callsubr
          hintmask 10100000
          -62 callsubr
        </CharString>
        <CharString name="umacron">
          65 -25 56 callgsubr
          1891 95 callsubr
          1510 1688 rmoveto
          131 -7 -76 66 callsubr
          -136 -83 -80 -142 -141 81 -80 137 71 callgsubr
          -1351 -761 -3 callgsubr
          hintmask 01100000
          -45 callgsubr
          hintmask 10100000
          -93 -1 -52 -57 -96 hhcurveto
          -137 -38 56 callsubr
          hvcurveto
          -62 callgsubr
        </CharString>
        <CharString name="underscore">
          -464 -340 341 hstem
          1293 -155 rmoveto
          -1 12 rlineto
          93 -5 -56 51 -99 hhcurveto
          -826 hlineto
          -109 -68 -67 -117 -100 58 -57 101 hvcurveto
          826 hlineto
          112 65 65 121 1 hvcurveto
          endchar
        </CharString>
        <CharString name="uni00A0">
          endchar
        </CharString>
        <CharString name="uni00AD">
          -602 371 196 hstem
          248 371 rmoveto
          92 callgsubr
          93 63 3 93 96 -61 4 -95 hvcurveto
          91 callsubr
          -87 -61 -9 -87 -96 53 -4 94 hvcurveto
          endchar
        </CharString>
        <CharString name="uni00B2">
          -618 -1 293 706 326 -256 256 hstemhm
          626 467 hintmask 11010000
          1113 322 rmoveto
          6 vlineto
          59 -2 -40 38 -60 hhcurveto
          -9 -7 -3 -7 -4 hvcurveto
          -112 -70 -164 -11 -186 hhcurveto
          233 127 289 200 342 vvcurveto
          241 -187 122 -254 -238 -190 -89 -128 -121 vhcurveto
          -8 -7 -4 -8 -16 vvcurveto
          -32 19 -46 35 vhcurveto
          hintmask 10110000
          83 81 70 115 hhcurveto
          114 86 -25 -102 2 hvcurveto
          -92 -55 -82 -42 -66 vhcurveto
          -122 -192 -163 -173 -138 -175 rrcurveto
          -15 -19 -10 -28 -30 vvcurveto
          -59 46 -26 65 vhcurveto
          682 hlineto
          158 81 161 161 hvcurveto
          endchar
        </CharString>
        <CharString name="uni00B3">
          -494 -319 279 1071 292 hstem
          94 992 rmoveto
          -7 vlineto
          -31 2 12 -21 35 hhcurveto
          14 12 0 8 12 hvcurveto
          49 70 73 41 99 hhcurveto
          116 75 -68 -111 2 hvcurveto
          -155 -109 -88 -96 -65 vhcurveto
          -28 -19 -20 -15 -41 vvcurveto
          -45 34 -48 43 vhcurveto
          29 38 18 29 hhcurveto
          115 77 -75 -110 2 hvcurveto
          -152 -112 -97 -149 -117 -95 29 41 -76 vhcurveto
          5 -9 -10 3 -12 hhcurveto
          -37 -32 -53 -40 hvcurveto
          1 -12 2 -9 6 -8 rrcurveto
          -141 117 202 -94 262 hhcurveto
          322 282 184 319 254 -187 136 -213 56 hvcurveto
          135 60 127 100 193 vvcurveto
          241 -224 99 -252 -226 -344 -106 -227 vhcurveto
          endchar
        </CharString>
        <CharString name="uni00B5">
          137 -642 -21 636 254 -210 -21 1299 -20 hstemhm
          226 242 -242 299 hintmask 11010100
          212 908 rmoveto
          28 -836 rlineto
          1 -20 0 -20 -20 -150 -16 -147 -147 vvcurveto
          -152 21 -79 135 108 36 53 101 vhcurveto
          hintmask 11011000
          201 -45 200 -12 223 vhcurveto
          -81 51 91 -61 132 hhcurveto
          220 158 91 118 97 hvcurveto
          hintmask 10111000
          -129 27 124 -57 156 hhcurveto
          210 228 27 176 98 -145 -56 -6 135 hvcurveto
          -24 703 rlineto
          144 -8 -106 70 -195 90 callgsubr
          147 54 7 -137 hvcurveto
          16 -532 rlineto
          hintmask 11011000
          -92 -68 -58 -96 -149 -45 100 147 -8 vhcurveto
          -20 610 rlineto
          147 -8 -110 64 -187 90 callgsubr
          149 49 7 -136 hvcurveto
          endchar
        </CharString>
        <CharString name="uni00B9">
          -768 21 -21 1296 -20 hstem
          538 1296 rmoveto
          -187 -274 -47 -181 -98 151 49 7 -133 hvcurveto
          -466 vlineto
          -1 -149 -158 59 -99 vvcurveto
          -184 272 -47 191 184 284 47 180 56 -39 5 -42 10 vhcurveto
          -51 12 -27 37 -3 62 rrcurveto
          5 1 5 5 vvcurveto
          -1 553 rlineto
          11 1 11 11 vvcurveto
          222 -4 -64 64 -241 hhcurveto
          endchar
        </CharString>
        <CharString name="uniFB02">
          235 23 -21 1096 201 1 -20 388 294 hstemhm
          hintmask 11010000
          873 372 rmoveto
          726 98 vlineto
          68 34 33 73 68 -25 27 -66 hvcurveto
          -106 hlineto
          -14 -9 12 19 hvcurveto
          25 5 33 23 vvcurveto
          179 118 78 171 45 47 -7 -7 40 vhcurveto
          -68 -1272 72 callsubr
          238 -18 196 214 258 26 188 80 -134 -44 -6 113 vhcurveto
          73 1407 rlineto
          176 -12 -521 14 -263 hhcurveto
          hintmask 10110000
          -446 -355 -226 -436 -23 hvcurveto
          -56 hlineto
          -67 -34 -31 -73 -67 22 -30 69 hvcurveto
          50 hlineto
          -37 -717 72 callsubr
          239 -16 195 213 258 25 187 78 -133 -38 -6 110 vhcurveto
          -1 6 rlineto
          endchar
        </CharString>
        <CharString name="uniFB03">
          1308 86 callsubr
          1098 201 379 180 -88 191 hstemhm
          238 390 271 431 36 455 527 474 hintmask 0111011110000000
          793 1676 rmoveto
          43 46 -12 -27 40 hvcurveto
          -14 -31 -9 -33 -39 vvcurveto
          -129 103 -60 134 123 71 71 120 216 -226 107 -260 -375 16 callgsubr
          -139 -144 65 -101 vvcurveto
          -186 254 -17 192 213 246 13 callsubr
          514 -719 vlineto
          94 callgsubr
          hintmask 1011011110000000
          -41 callgsubr
          181 92 20 callgsubr
          726 332 -727 vlineto
          -132 -142 61 -95 vvcurveto
          hintmask 0110111110000000
          -190 248 -19 198 215 237 24 181 93 20 callgsubr
          785 vlineto
          90 -4 -142 48 -148 hhcurveto
          -653 hlineto
          -56 -81 142 85 -4 hvcurveto
          165 140 79 157 113 118 -43 -88 61 vhcurveto
          81 callsubr
          127 143 100 64 140 300 -383 110 -323 -437 -313 -221 -441 vhcurveto
          -171 -181 -2 -177 hhcurveto
          -73 -134 115 103 -2 hvcurveto
          hintmask 0111011110000000
          108 79 55 87 vhcurveto
          endchar
        </CharString>
        <CharString name="uniFB04">
          1389 23 -21 1099 197 370 294 hstem
          899 451 vstem
          1952 372 46 callgsubr
          -106 hlineto
          -21 -4 19 25 hvcurveto
          20 2 23 19 vvcurveto
          183 95 80 181 45 47 -7 -7 41 vhcurveto
          -1 -1272 rlineto
          74 callgsubr
          56 -92 41 callsubr
          -142 -49 69 callsubr
          1396 vlineto
          180 -12 -528 14 -265 hhcurveto
          -445 -345 -228 -436 hvcurveto
          -550 79 callsubr
          69 69 3 75 -11 callgsubr
          125 90 74 124 75 callgsubr
          -255 -374 16 callgsubr
          -135 -144 56 -92 15 callsubr
          728 536 -717 vlineto
          74 callgsubr
          55 -91 15 callsubr
          endchar
        </CharString>
        <CharString name="uogonek">
          25 -736 219 493 56 callgsubr
          22 -21 1296 -34 callsubr
          552 265 hintmask 10011010
          1104 -29 callsubr
          hintmask 10101010
          83 callgsubr
          hintmask 10011010
          -953 928 -19 callsubr
          hintmask 11001010
          36 callgsubr
          hintmask 10101010
          -97 callgsubr
          hintmask 11000110
          -62 callsubr
        </CharString>
        <CharString name="v">
          -181 -30 -21 hstem
          923 1135 rmoveto
          178 -12 -276 -17 -192 hhcurveto
          -176 -261 -13 -157 -52 39 -12 43 75 callsubr
          -28 29 -56 471 -870 rcurveline
          -53 25 46 -80 70 hhcurveto
          72 40 72 53 26 hvcurveto
          424 878 rlineto
          41 77 203 17 87 vvcurveto
          130 -130 32 -141 -11 callsubr
          -1 -19 -2 -7 -7 -16 -127 -278 rcurveline
          -187 362 rlineto
          1 -1 0 1 19 129 22 57 vvcurveto
          endchar
        </CharString>
        <CharString name="w">
          343 5 -21 hstem
          1542 1164 rmoveto
          98 -5 -108 34 -128 hhcurveto
          -154 -135 -13 -152 -89 111 6 4 -64 hvcurveto
          -7 0 -5 -2 -5 vhcurveto
          -130 -275 -128 275 -5 11 -4 9 1 8 rlinecurve
          55 87 -3 75 vvcurveto
          165 -313 9 -155 -184 -276 5 -176 -50 43 -16 37 -17 vhcurveto
          65 -30 47 -40 35 -63 503 -901 rcurveline
          -17 9 14 -7 14 hhcurveto
          20 14 12 12 7 hvcurveto
          287 477 272 -477 rlineto
          -17 9 13 -7 15 hhcurveto
          19 14 11 13 7 hvcurveto
          513 959 rlineto
          33 68 146 3 94 vvcurveto
          136 -106 27 -143 -151 -148 -17 -147 -90 109 4 4 -61 vhcurveto
          -7 0 -5 -2 -5 vhcurveto
          -142 -275 -154 275 -2 4 -2 5 -1 5 rlinecurve
          53 128 63 67 vvcurveto
          endchar
        </CharString>
        <CharString name="x">
          -153 22 -21 1299 -20 hstem
          966 1123 rmoveto
          3 -52 67 -14 -46 vvcurveto
          -28 -18 -13 -19 -17 vhcurveto
          -76 -67 -66 67 rlineto
          -18 19 -12 16 15 49 94 17 65 vvcurveto
          175 -235 -12 -182 -157 -304 -13 -157 -96 148 -24 53 -55 vhcurveto
          342 -360 -277 -244 rlineto
          -60 -57 -191 3 -101 vvcurveto
          -129 130 -63 131 187 159 21 181 55 -88 -10 -4 45 vhcurveto
          23 16 15 17 15 vhcurveto
          118 105 101 -107 rlineto
          20 -22 9 -14 -12 -43 -92 2 -60 vvcurveto
          -171 261 -21 179 169 284 34 157 84 -151 14 -50 57 vhcurveto
          -395 402 231 204 rlineto
          66 55 219 18 109 vvcurveto
          149 -158 14 -154 -149 -148 -24 -149 vhcurveto
          endchar
        </CharString>
        <CharString name="y">
          -103 -473 275 213 -21 hstem
          443 -6 rmoveto
          -116 -61 -89 -100 -131 99 -147 211 236 113 184 161 82 84 callgsubr
          57 53 31 67 15 rlinecurve
          46 10 52 10 54 7 callgsubr
          -4 0 -4 -3 vvcurveto
          -12 -3 -5 -7 -14 vhcurveto
          -157 -373 -175 373 rlineto
          -11 19 -19 21 23 59 114 -12 70 vvcurveto
          173 -268 -10 -184 vhcurveto
          -11 hlineto
          -172 -281 -2 -167 -54 38 -10 44 75 callsubr
          -29 29 -55 476 -1006 rcurveline
          3 -6 1 -5 2 -10 rrcurveto
          -37 -57 -84 -32 vhcurveto
          -74 18 192 63 callsubr
          endchar
        </CharString>
        <CharString name="yacute">
          -99 -534 280 2530 -34 callsubr
          728 163 hintmask 10110000
          1263 -104 callsubr
          hintmask 11010000
          -4 callgsubr
          hintmask 10110000
          -1134 -2537 80 callsubr
          255 128 214 191 88 84 callgsubr
          57 53 31 67 15 rlinecurve
          46 10 52 10 54 vvcurveto
          133 -126 32 -145 -145 -240 -19 callgsubr
          -4 0 -3 -2 vvcurveto
          -12 -3 -6 -7 -15 29 callsubr
          70 vvcurveto
          173 -268 -10 -184 vhcurveto
          -11 hlineto
          -171 -281 -2 -167 -54 37 -10 44 75 callsubr
          -29 29 -55 11 callgsubr
          -154 -45 -134 -163 hvcurveto
          endchar
        </CharString>
        <CharString name="ydieresis">
          -39 -531 280 2194 -20 hstem
          1079 510 vstem
          727 -105 callgsubr
          -1400 -1971 80 callsubr
          254 127 214 191 90 84 callgsubr
          56 53 31 67 16 rlinecurve
          45 10 53 8 56 7 callgsubr
          -3 0 -2 -2 vvcurveto
          -14 -2 -5 -8 -16 29 callsubr
          72 vvcurveto
          171 -271 -10 -181 vhcurveto
          -11 hlineto
          -171 -283 -2 -167 -54 40 -10 43 75 callsubr
          -28 29 -56 11 callgsubr
          -136 -64 -115 -146 -11 -1 -12 2 -13 hvcurveto
          endchar
        </CharString>
        <CharString name="yen">
          21 21 -21 414 178 100 178 715 -34 callsubr
          1272 477 hintmask 11110100
          375 223 rmoveto
          -203 7 269 -20 218 hhcurveto
          213 286 19 208 102 -153 -52 -7 137 hvcurveto
          229 hlineto
          57 32 30 60 57 -35 31 -53 hvcurveto
          -235 100 234 77 callgsubr
          -165 hlineto
          208 291 41 57 59 40 76 20 rlinecurve
          47 12 45 8 59 vvcurveto
          154 -140 74 -160 19 callsubr
          -89 117 39 4 -69 vhcurveto
          -32 -13 -18 -16 -25 vhcurveto
          -114 -151 rlineto
          -16 -12 -17 -21 -24 hhcurveto
          -20 -12 12 15 -13 hvcurveto
          -106 161 rlineto
          -15 23 -20 20 27 67 115 -29 85 vvcurveto
          hintmask 11101100
          207 -277 21 -215 -237 -265 -30 -200 -55 37 -12 41 -12 vhcurveto
          71 -22 51 -36 41 -56 214 -291 rcurveline
          -146 80 callgsubr
          219 -100 -218 hlineto
          -54 -34 -30 -58 -57 30 -32 58 hvcurveto
          213 hlineto
          -5 -146 -156 67 -112 vvcurveto
          endchar
        </CharString>
        <CharString name="z">
          -473 -2 184 935 177 hstem
          50 957 rmoveto
          -79 4 51 -52 80 hhcurveto
          101 44 78 82 24 hvcurveto
          31 131 rlineto
          195 hlineto
          9 10 -4 -11 hvcurveto
          -477 -937 rlineto
          -17 -33 -14 -28 -38 vvcurveto
          -52 32 -16 52 vhcurveto
          919 hlineto
          146 87 170 156 88 -50 61 -86 hvcurveto
          -224 131 -291 -241 hhcurveto
          -38 -34 3 37 13 3 12 9 17 hvcurveto
          438 877 11 23 13 31 1 33 rlinecurve
          48 -28 18 -54 vhcurveto
          -895 hlineto
          -158 -76 -179 -160 hvcurveto
          endchar
        </CharString>
        <CharString name="zero">
          -224 -25 254 1137 252 hstem
          58 700 rmoveto
          -436 23 268 -289 449 hhcurveto
          498 295 348 511 475 -277 309 -471 -497 -290 -341 -510 -22 -1 -23 2 -22 hvcurveto
          925 152 rmoveto
          1 -45 3 -62 -69 vvcurveto
          -198 -18 -249 -111 -195 -4 608 55 vhcurveto
          20 -1 20 22 vvcurveto
          189 21 223 110 144 38 -346 -168 11 vhcurveto
          endchar
        </CharString>
      <CharString index="0">
        1742 rmoveto
        112 44 58 callsubr
        121 162 120 58 callgsubr
        54 48 -108 112 hhcurveto
        65 46 88 callgsubr
        -3 23 -9 23 -107 callsubr
        return
      </CharString>
      <CharString index="1">
        1447 -96 callsubr
        39 66 19 -3 22 -9 25 -107 callsubr
        return
      </CharString>
      <CharString index="2">
        -49 callgsubr
        -158 -127 -83 -164 -162 -17 callsubr
        -101 callgsubr
        return
      </CharString>
      <CharString index="3">
        -80 callgsubr
        -9 -23 -4 -21 -20 vvcurveto
        -67 48 -40 64 vhcurveto
        return
      </CharString>
      <CharString index="4">
        -44 callsubr
        -128 -81 -162 -164 123 -103 callsubr
        return
      </CharString>
      <CharString index="5">
        -10 callsubr
        -162 -165 -77 -169 -169 155 -80 170 51 callsubr
        -835 -1887 rmoveto
        -83 4 89 -23 90 hhcurveto
        373 264 190 371 2 hvcurveto
        967 vlineto
        98 -5 -138 11 -170 26 callgsubr
        -92 140 48 97 callsubr
        1 -711 4 -83 112 -78 4 -58 rlinecurve
        -68 -43 -44 -178 -60 -48 -46 -61 -2 -1 -2 2 -3 vhcurveto
        endchar
      </CharString>
      <CharString index="6">
        171 115 -69 callsubr
        -158 -52 callgsubr
        170 115 88 177 hvcurveto
        return
      </CharString>
      <CharString index="7">
        -72 callgsubr
        -149 -157 63 -105 -73 callsubr
        217 234 268 40 callgsubr
        103 -155 -55 -13 callsubr
        224 vlineto
        -3 43 22 -1 46 hhcurveto
        12 hlineto
        99 -278 rlineto
        -190 71 92 -161 265 -85 callsubr
        434 vlineto
        102 21 68 106 172 10 -167 -172 vhcurveto
        -63 callsubr
      </CharString>
      <CharString index="8">
        -68 callsubr
        -121 -156 -154 -94 callsubr
        return
      </CharString>
      <CharString index="9">
        -35 callsubr
        92 76 29 92 hvcurveto
        0 callgsubr
        276 97 -86 callsubr
        -1 -48 -38 -88 -259 -25 callsubr
        return
      </CharString>
      <CharString index="10">
        -102 callsubr
        125 53 2 -107 hvcurveto
        -2 -566 rlineto
        return
      </CharString>
      <CharString index="11">
        -39 callgsubr
        vhcurveto
        hintmask 11100000
        -59 callsubr
        hvcurveto
        hintmask 11010000
        -84 callsubr
        return
      </CharString>
      <CharString index="12">
        -76 callsubr
        -26 44 -19 68 -220 38 callsubr
        -3 -26 callsubr
        -332 20 -231 vhcurveto
        endchar
      </CharString>
      <CharString index="13">
        2035 rmoveto
        11 -183 201 -91 callgsubr
        -97 29 callgsubr
        return
      </CharString>
      <CharString index="14">
        -89 callgsubr
        40 -1 39 38 127 8 112 98 vvcurveto
        356 -102 167 -579 -263 -320 -94 -205 return
      </CharString>
      <CharString index="15">
        37 callsubr
        -127 -60 -106 callsubr
        -150 -157 65 -106 -63 callgsubr
      </CharString>
      <CharString index="16">
        -119 115 -82 -25 callgsubr
        51 44 47 55 110 -77 93 -53 79 hvcurveto
        140 -94 -93 305 -216 hhcurveto
        -141 return
      </CharString>
      <CharString index="17">
        1 callsubr
        -68 hvcurveto
        122 -99 callsubr
        return
      </CharString>
      <CharString index="18">
        -119 61 109 -69 175 hhcurveto
        177 176 46 157 91 -145 -46 -7 127 hvcurveto
        -2 return
      </CharString>
      <CharString index="19">
        -75 callgsubr
        -18 callsubr
        2 vhcurveto
        59 callgsubr
        return
      </CharString>
      <CharString index="20">
        -274 480 rcurveline
        150 107 rlineto
        70 50 226 17 114 vvcurveto
        149 -197 12 -156 -141 -186 -20 -142 vhcurveto
        -66 100 -4 -53 vvcurveto
        -29 -14 -15 -23 -14 vhcurveto
        -249 -152 -18 -11 -27 -17 -27 -16 rlinecurve
        -47 -29 rlineto
        1036 vlineto
        114 -7 -136 7 -167 -7 callgsubr
        -1132 rlineto
        46 callsubr
        213 246 26 180 92 -143 -48 -6 127 vhcurveto
        1 191 44 26 rlineto
        12 21 23 15 -1 hhcurveto
        159 -313 rlineto
        return
      </CharString>
      <CharString index="21">
        rmoveto
        -396 23 -79 callsubr
        -610 -324 -302 -532 -23 0 -22 2 -23 hvcurveto
        867 637 rmoveto
        return
      </CharString>
      <CharString index="22">
        -93 callgsubr
        -123 217 -61 199 vhcurveto
        136 3 160 131 return
      </CharString>
      <CharString index="23">
        -132 -87 callsubr
      </CharString>
      <CharString index="24">
        -67 callgsubr
        153 -30 callsubr
        return
      </CharString>
      <CharString index="25">
        -222 -441 -414 294 -273 423 -70 callgsubr
        return
      </CharString>
      <CharString index="26">
        -429 rmoveto
        188 -8 -114 119 -195 hhcurveto
        -171 -155 -94 -170 -150 116 -72 152 hvcurveto
        -95 -24 -68 -49 -39 vhcurveto
        -32 -25 -43 -23 -55 vvcurveto
        -32 32 -24 31 272 190 231 280 vhcurveto
        9 0 8 11 vvcurveto
        return
      </CharString>
      <CharString index="27">
        -338 -196 -74 hvcurveto
        -42 -111 rlineto
        return
      </CharString>
      <CharString index="28">
        -88 callgsubr
        hintmask 11001000
        -1 153 163 -96 callgsubr
        151 160 -67 105 vvcurveto
        210 -283 18 -219 return
      </CharString>
      <CharString index="29">
        -90 callsubr
        42 118 138 -64 callgsubr
        175 175 63 124 54 hvcurveto
        return
      </CharString>
      <CharString index="30">
        86 -109 -45 -6 109 hvcurveto
        799 vlineto
        -31 callsubr
        return
      </CharString>
      <CharString index="31">
        -102 -105 -30 -78 callsubr
        101 hhcurveto
        146 61 return
      </CharString>
      <CharString index="32">
        -58 callgsubr
        -17 callgsubr
        return
      </CharString>
      <CharString index="33">
        -81 callsubr
        156 130 73 154 vhcurveto
        90 -117 -59 88 vvcurveto
        14 3 18 10 24 vhcurveto
        23 39 callgsubr
        17 -87 3 -31 rlineto
        -5 callsubr
        return
      </CharString>
      <CharString index="34">
        rmoveto
        152 -8 -144 70 -160 hhcurveto
        -169 -171 -82 -179 -159 151 -75 162 173 164 79 182 2 hvcurveto
        return
      </CharString>
      <CharString index="35">
        rmoveto
        361 -18 -423 67 -387 hhcurveto
        -541 hlineto
        -210 -292 -21 -205 -100 54 callgsubr
        hvcurveto
        -36 callsubr
        return
      </CharString>
      <CharString index="36">
        50 callsubr
        94 93 144 167 -109 65 -119 24 callsubr
        -30 -156 25 -119 -20 callsubr
        -137 -144 73 callsubr
        248 -19 198 217 239 25 184 52 callsubr
        -1 509 rlineto
        return
      </CharString>
      <CharString index="37">
        438 331 251 440 hvcurveto
        15 -1 14 16 vvcurveto
        -751 357 rmoveto
        return
      </CharString>
      <CharString index="38">
        rmoveto
        -32 callsubr
        27 -105 -141 2 vhcurveto
        339 17 rmoveto
        308 -17 return
      </CharString>
      <CharString index="39">
        -36 hvcurveto
        -105 -10 rlineto
        460 358 vlineto
        39 -167 rlineto
        -99 23 return
      </CharString>
      <CharString index="40">
        -210 -282 -29 callgsubr
        return
      </CharString>
      <CharString index="41">
        -208 272 -21 return
      </CharString>
      <CharString index="42">
        rmoveto
        370 vlineto
        291 389 40 58 58 41 76 20 rlinecurve
        49 13 44 5 66 3 callsubr
        -89 118 39 3 -69 vhcurveto
        1 -31 -13 -20 -17 -24 -114 -160 rcurveline
        -16 -12 -17 -22 -24 hhcurveto
        -15 -15 9 19 -15 hvcurveto
        -105 170 rlineto
        -14 23 -21 18 27 69 115 -32 90 vvcurveto
        return
      </CharString>
      <CharString index="43">
        vhcurveto
        -723 -359 rmoveto
        -218 12 168 -96 229 hhcurveto
        return
      </CharString>
      <CharString index="44">
        vvcurveto
        -208 272 -21 217 -56 callgsubr
      </CharString>
      <CharString index="45">
        -49 callsubr
        -213 -224 -26 -178 -96 122 17 callsubr
      </CharString>
      <CharString index="46">
        rmoveto
        -1 -534 10 callsubr
        61 -98 vvcurveto
        -41 callgsubr
        180 return
      </CharString>
      <CharString index="47">
        -35 callgsubr
        -442 -344 -82 callgsubr
        150 4 -336 -190 -156 -22 -157 -105 -147 -15 -13 callgsubr
      </CharString>
      <CharString index="48">
        -48 -62 -82 -61 -88 vvcurveto
        -80 78 -72 87 83 34 58 51 40 vhcurveto
        211 267 217 275 210 269 60 77 rcurveline
        34 40 34 25 61 vvcurveto
        80 return
      </CharString>
      <CharString index="49">
        rmoveto
        1 -50 3 -48 -48 -170 -14 -148 -129 vvcurveto
        return
      </CharString>
      <CharString index="50">
        125 rlineto
        1 -1 1 -2 -3 vvcurveto
        -88 return
      </CharString>
      <CharString index="51">
        vhcurveto
        870 hlineto
        190 114 203 201 4 callsubr
      </CharString>
      <CharString index="52">
        241 89 callgsubr
        -7 -153 83 callsubr
        -160 -6 callgsubr
        147 79 182 hvcurveto
        return
      </CharString>
      <CharString index="53">
        -45 callsubr
        -241 -65 192 264 146 30 134 139 hvcurveto
        206 -92 -303 215 hhcurveto
        94 46 60 96 292 -254 111 -303 return
      </CharString>
      <CharString index="54">
        37 -133 99 callsubr
        -245 -44 callgsubr
        -132 -124 56 -101 vvcurveto
        -185 return
      </CharString>
      <CharString index="55">
        -128 -50 callgsubr
        return
      </CharString>
      <CharString index="56">
        -63 -34 -50 -50 -50 30 -50 66 27 callsubr
        -1 -138 -145 63 -97 vvcurveto
        -189 250 -17 198 217 250 13 callsubr
        112 vlineto
        60 26 52 51 hvcurveto
        48 -4 -30 47 -65 hhcurveto
        return
      </CharString>
      <CharString index="57">
        -83 -165 -161 -17 callsubr
        return
      </CharString>
      <CharString index="58">
        1711 -38 callgsubr
        return
      </CharString>
      <CharString index="59">
        -86 callgsubr
        169 11 21 callsubr
        return
      </CharString>
      <CharString index="60">
        -281 rmoveto
        -85 -35 -49 -85 -96 -83 46 38 -63 vhcurveto
        -180 vlineto
        -95 7 164 -13 128 hhcurveto
        197 143 110 202 175 -151 93 -146 34 hvcurveto
        -208 hlineto
        88 -60 133 -78 7 -129 rrcurveto
        -10 vlineto
        return
      </CharString>
      <CharString index="61">
        -99 callgsubr
        hintmask 11100000
        -15 callsubr
        hintmask 11010000
        return
      </CharString>
      <CharString index="62">
        -102 callsubr
        122 54 6 -108 hvcurveto
        -3 -566 rlineto
        return
      </CharString>
      <CharString index="63">
        -20 -185 -41 callsubr
        return
      </CharString>
      <CharString index="64">
        -2 callsubr
        -97 -56 -62 -70 -147 vvcurveto
        -215 140 -58 156 -67 -7 callsubr
        92 46 64 89 hvcurveto
        return
      </CharString>
      <CharString index="65">
        -27 callgsubr
        129 -1 -196 -150 vhcurveto
        -10 87 callgsubr
        -54 callsubr
      </CharString>
      <CharString index="66">
        -1 callgsubr
        245 26 return
      </CharString>
      <CharString index="67">
        hvcurveto
        120 162 121 -162 return
      </CharString>
      <CharString index="68">
        -63 106 vvcurveto
        148 -153 81 -146 return
      </CharString>
      <CharString index="69">
        rmoveto
        155 -8 -122 57 callsubr
        return
      </CharString>
      <CharString index="70">
        rmoveto
        161 -8 -152 73 -165 hhcurveto
        -162 -163 -77 -168 -169 155 -80 169 178 148 78 183 hvcurveto
        -32 -1305 rmoveto
        1 845 rlineto
        92 -5 -143 10 -163 hhcurveto
        return
      </CharString>
      <CharString index="71">
        -13 vhcurveto
        68 -20 51 -41 42 -55 281 -389 rcurveline
        -360 vlineto
        -152 -162 68 1 -107 vhcurveto
        -209 275 -20 219 213 286 19 208 101 -154 -53 -13 callsubr
        endchar
      </CharString>
      <CharString index="72">
        rmoveto
        380 -20 -282 233 -397 hhcurveto
        return
      </CharString>
      <CharString index="73">
        -5 callgsubr
        110 -72 160 return
      </CharString>
      <CharString index="74">
        -27 callsubr
        -132 -97 56 -96 59 callsubr
        196 -20 201 32 callsubr
        return
      </CharString>
      <CharString index="75">
        -55 hlineto
        -67 -29 -27 -66 -75 25 -31 71 27 callsubr
        -2 return
      </CharString>
      <CharString index="76">
        -129 25 118 -57 157 hhcurveto
        return
      </CharString>
      <CharString index="77">
        110 rlineto
        195 return
      </CharString>
      <CharString index="78">
        -21 -204 -101 return
      </CharString>
      <CharString index="79">
        784 rmoveto
        435 vlineto
        168 -46 8 -168 -129 -195 -33 -127 -70 107 38 4 -95 vhcurveto
        -326 vlineto
        -2 -103 -108 37 -66 vvcurveto
        -130 187 -34 138 vhcurveto
        return
      </CharString>
      <CharString index="80">
        -263 -320 -94 -205 -123 217 -61 199 vhcurveto
        136 3 160 131 return
      </CharString>
      <CharString index="81">
        rmoveto
        1 361 rlineto
        7 2 3 5 3 3 -2 -3 5 vhcurveto
        671 -622 rlineto
        -58 62 return
      </CharString>
      <CharString index="82">
        rrcurveto
        -70 97 133 -134 119 hhcurveto
        return
      </CharString>
      <CharString index="83">
        -192 2 callsubr
        return
      </CharString>
      <CharString index="84">
        vhcurveto
        -36 callsubr
        -152 -157 67 -108 vvcurveto
        -161 return
      </CharString>
      <CharString index="85">
        -135 vhcurveto
        1 -273 rlineto
        -19 -8 -9 -10 -5 -5 2 4 -5 vhcurveto
        -572 534 return
      </CharString>
      <CharString index="86">
        72 154 91 -115 -59 -1 87 vhcurveto
        14 4 19 7 24 vhcurveto
        25 39 callgsubr
        15 -87 4 14 callgsubr
        return
      </CharString>
      <CharString index="87">
        rmoveto
        -89 -32 -49 -54 -39 hvcurveto
        -210 -270 -215 -275 -209 -268 rrcurveto
        return
      </CharString>
      <CharString index="88">
        -19 -146 vhcurveto
        2 -68 124 -2 4 -52 1 -14 rcurveline
        return
      </CharString>
      <CharString index="89">
        6 1 5 6 vvcurveto
        481 hlineto
        return
      </CharString>
      <CharString index="90">
        -414 122 -202 682 return
      </CharString>
      <CharString index="91">
        -22 callgsubr
        -92 85 -60 84 -168 1 rlinecurve
        49 callgsubr
        return
      </CharString>
      <CharString index="92">
        5 callgsubr
        -19 194 return
      </CharString>
      <CharString index="93">
        -26 callgsubr
        81 -96 104 hhcurveto
        122 32 86 129 hvcurveto
        959 vlineto
        return
      </CharString>
      <CharString index="94">
        364 186 147 18 143 116 hvcurveto
        endchar
      </CharString>
      <CharString index="95">
        -209 hlineto
        -177 7 callsubr
        return
      </CharString>
      <CharString index="96">
        vhcurveto
        -15 -31 -8 -32 -39 vvcurveto
        -130 102 -60 134 return
      </CharString>
      <CharString index="97">
        -23 callgsubr
        150 -66 return
      </CharString>
      <CharString index="98">
        300 193 132 213 84 hvcurveto
        return
      </CharString>
      <CharString index="99">
        hhcurveto
        -224 -78 108 225 78 callgsubr
        120 61 10 126 321 -255 186 -326 return
      </CharString>
      <CharString index="100">
        17 callgsubr
        141 43 69 callgsubr
        -1 return
      </CharString>
      <CharString index="101">
        -78 -171 -168 157 -78 168 178 return
      </CharString>
      <CharString index="102">
        -46 -11 -36 16 -59 vvcurveto
        -155 return
      </CharString>
      <CharString index="103">
        130 -107 100 70 callsubr
        return
      </CharString>
      <CharString index="104">
        rmoveto
        3 -34 -1 -35 -33 -135 -13 -125 -111 vvcurveto
        -289 82 -189 429 -39 callsubr
        return
      </CharString>
      <CharString index="105">
        149 150 73 154 100 -155 -52 -7 134 hvcurveto
        endchar
      </CharString>
      <CharString index="106">
        -15 callgsubr
        213 return
      </CharString>
      <CharString index="107">
        236 170 -110 236 hhcurveto
        return
      </CharString>
      <CharString index="108">
        2300 8 callgsubr
        return
      </CharString>
      <CharString index="109">
        317 132 -20 return
      </CharString>
      <CharString index="110">
        hvcurveto
        -41 -174 rlineto
        return
      </CharString>
      <CharString index="111">
        151 157 -65 107 vvcurveto
        160 -153 67 -160 vhcurveto
        return
      </CharString>
      <CharString index="112">
        -186 254 return
      </CharString>
      <CharString index="113">
        47 callsubr
        65 -335 249 hhcurveto
        248 68 43 callgsubr
        return
      </CharString>
      <CharString index="114">
        vvcurveto
        133 -127 32 -144 -11 callsubr
        return
      </CharString>
      <CharString index="115">
        rmoveto
        -261 -94 -225 -210 return
      </CharString>
      <CharString index="116">
        -20 21 95 callsubr
        return
      </CharString>
      <CharString index="117">
        254 840 256 return
      </CharString>
      <CharString index="118">
        506 -936 rcurveline
        3 -5 1 -7 2 -9 rrcurveto
        -76 -98 -170 -60 vhcurveto
        -74 16 287 -165 hhcurveto
        return
      </CharString>
      <CharString index="119">
        -155 hhcurveto
        return
      </CharString>
      <CharString index="120">
        36 callsubr
        218 27 callgsubr
        -42 69 callsubr
        722 return
      </CharString>
      <CharString index="121">
        -12 0 -10 1 -9 rlinecurve
        -5 callsubr
        return
      </CharString>
      <CharString index="122">
        0 39 callsubr
      </CharString>
      <CharString index="123">
        34 callsubr
        vhcurveto
        -32 callgsubr
        return
      </CharString>
      <CharString index="124">
        hhcurveto
        -198 -250 -20 -191 -85 return
      </CharString>
      <CharString index="125">
        -2 -121 -123 57 -87 vvcurveto
        -153 207 -25 180 182 202 24 155 return
      </CharString>
      <CharString index="126">
        450 -291 291 -291 452 474 return
      </CharString>
      <CharString index="127">
        -142 -47 -6 125 vhcurveto
        return
      </CharString>
      <CharString index="128">
        219 1163 209 return
      </CharString>
      <CharString index="129">
        -338 329 -85 25 callsubr
        -73 -81 -3 -86 vhcurveto
        return
      </CharString>
      <CharString index="130">
        42 -295 115 rcurveline
        295 115 rlineto
        108 42 205 86 144 vvcurveto
        return
      </CharString>
      <CharString index="131">
        0 callsubr
        1069 226 -226 255 return
      </CharString>
      <CharString index="132">
        -125 -63 -103 -104 -27 3 callgsubr
        return
      </CharString>
      <CharString index="133">
        99 callsubr
        -255 -20 -186 return
      </CharString>
      <CharString index="134">
        241 24 183 87 -142 return
      </CharString>
      <CharString index="135">
        160 -8 -152 return
      </CharString>
      <CharString index="136">
        -102 -140 hvcurveto
        return
      </CharString>
      <CharString index="137">
        -36 callsubr
        -149 -157 63 -105 90 callsubr
        return
      </CharString>
      <CharString index="138">
        18 -219 return
      </CharString>
      <CharString index="139">
        56 callsubr
        vhcurveto
        61 callsubr
        return
      </CharString>
      <CharString index="140">
        -279 -397 -383 return
      </CharString>
      <CharString index="141">
        rmoveto
        28 callgsubr
        return
      </CharString>
      <CharString index="142">
        153 52 6 return
      </CharString>
      <CharString index="143">
        -282 90 -184 421 -39 callsubr
        return
      </CharString>
      <CharString index="144">
        719 -21 897 -20 hstem
        return
      </CharString>
      <CharString index="145">
        -30 callsubr
        vhcurveto
        return
      </CharString>
      <CharString index="146">
        87 rlineto
        406 hlineto
        return
      </CharString>
      <CharString index="147">
        28 198 return
      </CharString>
      <CharString index="148">
        163 -156 rcurveline
        -163 -156 -77 -73 -72 -64 -64 -68 rlinecurve
        return
      </CharString>
      <CharString index="149">
        -1 153 163 -39 callgsubr
        vhcurveto
        return
      </CharString>
      <CharString index="150">
        336 196 75 hvcurveto
        43 113 return
      </CharString>
      <CharString index="151">
        74 63 callsubr
        return
      </CharString>
</ttFont>
